M48
;DRILL file {Pcbnew (2013-may-18)-stable} date Thu 14 Nov 2013 05:33:24 PM CST
;FORMAT={-:-/ absolute / inch / decimal}
FMAT,2
INCH,TZ
T1C0.025
T2C0.032
T3C0.040
%
G90
G05
M72
T1
X7.2638Y-5.5945
X7.47Y-4.504
X7.47Y-4.556
X7.7425Y-5.66
X8.1325Y-5.5775
X8.38Y-5.74
X8.56Y-5.56
X9.1Y-5.52
X9.16Y-5.32
X9.6498Y-5.5382
X9.74Y-4.26
X9.74Y-5.16
X9.74Y-5.26
X9.94Y-4.9
X9.96Y-4.46
X9.96Y-4.56
X10.14Y-5.14
X10.18Y-5.26
X10.32Y-4.24
X10.38Y-4.76
X10.48Y-5.28
X10.5Y-5.06
X10.62Y-5.42
X10.6425Y-4.1025
X10.7Y-4.98
X10.7Y-5.3
X10.73Y-4.1
X10.778Y-4.499
T2
X10.96Y-4.37
X10.96Y-4.47
X10.96Y-4.77
X10.96Y-4.87
T3
X6.88Y-3.98
X6.88Y-4.22
X6.88Y-4.82
X6.98Y-3.98
X6.98Y-4.22
X6.98Y-4.82
X7.08Y-3.98
X7.08Y-4.22
X7.08Y-4.82
X7.18Y-3.98
X7.18Y-4.22
X7.18Y-4.82
X7.28Y-3.98
X7.28Y-4.22
X7.28Y-4.82
X7.38Y-3.98
X7.38Y-4.22
X7.38Y-4.82
X7.48Y-3.98
X7.48Y-4.22
X7.48Y-4.82
X7.58Y-4.22
X7.58Y-4.82
X7.68Y-4.22
X7.68Y-4.82
X7.78Y-4.22
X7.78Y-4.82
X7.88Y-4.22
X7.88Y-4.82
X7.98Y-4.22
X7.98Y-4.82
X8.08Y-4.22
X8.08Y-4.82
X8.18Y-4.22
X8.18Y-4.42
X8.18Y-4.52
X8.18Y-4.82
X8.28Y-4.22
X8.28Y-4.42
X8.28Y-4.52
X8.28Y-4.82
X8.38Y-4.22
X8.38Y-4.42
X8.38Y-4.52
X8.38Y-4.82
X8.48Y-3.98
X8.48Y-4.22
X8.48Y-4.42
X8.48Y-4.52
X8.48Y-4.62
X8.48Y-4.82
X8.58Y-3.98
X8.58Y-4.22
X8.58Y-4.82
X8.68Y-3.98
X8.68Y-4.22
X8.68Y-4.82
X8.78Y-3.98
X8.78Y-4.22
X8.78Y-4.42
X8.78Y-4.52
X8.78Y-4.62
X8.78Y-4.82
X10.13Y-5.66
X10.23Y-5.66
X10.33Y-5.66
X10.43Y-5.66
X10.53Y-5.66
X10.63Y-5.66
T0
M30
