G04 (created by PCBNEW (2013-may-18)-stable) date Thu 14 Nov 2013 05:30:19 PM CST*
%MOIN*%
G04 Gerber Fmt 3.4, Leading zero omitted, Abs format*
%FSLAX34Y34*%
G01*
G70*
G90*
G04 APERTURE LIST*
%ADD10C,0.005*%
%ADD11C,0.00393701*%
%ADD12C,0.00787402*%
%ADD13C,0.011811*%
G04 APERTURE END LIST*
G54D10*
G54D11*
X65000Y-59000D02*
X65000Y-38000D01*
X111000Y-59000D02*
X65000Y-59000D01*
X111000Y-38000D02*
X111000Y-59000D01*
X65000Y-38000D02*
X111000Y-38000D01*
G54D12*
X72512Y-55819D02*
X72762Y-56069D01*
X72762Y-55819D02*
X72512Y-56069D01*
X74575Y-44915D02*
X74825Y-45165D01*
X74825Y-44915D02*
X74575Y-45165D01*
X74575Y-45435D02*
X74825Y-45685D01*
X74825Y-45435D02*
X74575Y-45685D01*
X77300Y-56475D02*
X77550Y-56725D01*
X77550Y-56475D02*
X77300Y-56725D01*
X81200Y-55650D02*
X81450Y-55900D01*
X81450Y-55650D02*
X81200Y-55900D01*
X83675Y-57275D02*
X83925Y-57525D01*
X83925Y-57275D02*
X83675Y-57525D01*
X85475Y-55475D02*
X85725Y-55725D01*
X85725Y-55475D02*
X85475Y-55725D01*
X90875Y-55075D02*
X91125Y-55325D01*
X91125Y-55075D02*
X90875Y-55325D01*
X91475Y-53075D02*
X91725Y-53325D01*
X91725Y-53075D02*
X91475Y-53325D01*
X96373Y-55257D02*
X96623Y-55507D01*
X96623Y-55257D02*
X96373Y-55507D01*
X97275Y-42475D02*
X97525Y-42725D01*
X97525Y-42475D02*
X97275Y-42725D01*
X97275Y-51475D02*
X97525Y-51725D01*
X97525Y-51475D02*
X97275Y-51725D01*
X97275Y-52475D02*
X97525Y-52725D01*
X97525Y-52475D02*
X97275Y-52725D01*
X99275Y-48875D02*
X99525Y-49125D01*
X99525Y-48875D02*
X99275Y-49125D01*
X99475Y-44475D02*
X99725Y-44725D01*
X99725Y-44475D02*
X99475Y-44725D01*
X99475Y-45475D02*
X99725Y-45725D01*
X99725Y-45475D02*
X99475Y-45725D01*
X101275Y-51275D02*
X101525Y-51525D01*
X101525Y-51275D02*
X101275Y-51525D01*
X101675Y-52475D02*
X101925Y-52725D01*
X101925Y-52475D02*
X101675Y-52725D01*
X103075Y-42275D02*
X103325Y-42525D01*
X103325Y-42275D02*
X103075Y-42525D01*
X103675Y-47475D02*
X103925Y-47725D01*
X103925Y-47475D02*
X103675Y-47725D01*
X104675Y-52675D02*
X104925Y-52925D01*
X104925Y-52675D02*
X104675Y-52925D01*
X104875Y-50475D02*
X105125Y-50725D01*
X105125Y-50475D02*
X104875Y-50725D01*
X106075Y-54075D02*
X106325Y-54325D01*
X106325Y-54075D02*
X106075Y-54325D01*
X106300Y-40900D02*
X106550Y-41150D01*
X106550Y-40900D02*
X106300Y-41150D01*
X106875Y-49675D02*
X107125Y-49925D01*
X107125Y-49675D02*
X106875Y-49925D01*
X106875Y-52875D02*
X107125Y-53125D01*
X107125Y-52875D02*
X106875Y-53125D01*
X107175Y-40875D02*
X107425Y-41125D01*
X107425Y-40875D02*
X107175Y-41125D01*
X107655Y-44865D02*
X107905Y-45115D01*
X107905Y-44865D02*
X107655Y-45115D01*
X109760Y-43700D02*
G75*
G03X109760Y-43700I-160J0D01*
G74*
G01*
X109760Y-44700D02*
G75*
G03X109760Y-44700I-160J0D01*
G74*
G01*
X109760Y-47700D02*
G75*
G03X109760Y-47700I-160J0D01*
G74*
G01*
X109760Y-48700D02*
G75*
G03X109760Y-48700I-160J0D01*
G74*
G01*
X68800Y-39600D02*
X68800Y-40000D01*
X68600Y-39800D02*
X69000Y-39800D01*
X68800Y-42000D02*
X68800Y-42400D01*
X68600Y-42200D02*
X69000Y-42200D01*
X68800Y-48000D02*
X68800Y-48400D01*
X68600Y-48200D02*
X69000Y-48200D01*
X69800Y-39600D02*
X69800Y-40000D01*
X69600Y-39800D02*
X70000Y-39800D01*
X69800Y-42000D02*
X69800Y-42400D01*
X69600Y-42200D02*
X70000Y-42200D01*
X69800Y-48000D02*
X69800Y-48400D01*
X69600Y-48200D02*
X70000Y-48200D01*
X70800Y-39600D02*
X70800Y-40000D01*
X70600Y-39800D02*
X71000Y-39800D01*
X70800Y-42000D02*
X70800Y-42400D01*
X70600Y-42200D02*
X71000Y-42200D01*
X70800Y-48000D02*
X70800Y-48400D01*
X70600Y-48200D02*
X71000Y-48200D01*
X71800Y-39600D02*
X71800Y-40000D01*
X71600Y-39800D02*
X72000Y-39800D01*
X71800Y-42000D02*
X71800Y-42400D01*
X71600Y-42200D02*
X72000Y-42200D01*
X71800Y-48000D02*
X71800Y-48400D01*
X71600Y-48200D02*
X72000Y-48200D01*
X72800Y-39600D02*
X72800Y-40000D01*
X72600Y-39800D02*
X73000Y-39800D01*
X72800Y-42000D02*
X72800Y-42400D01*
X72600Y-42200D02*
X73000Y-42200D01*
X72800Y-48000D02*
X72800Y-48400D01*
X72600Y-48200D02*
X73000Y-48200D01*
X73800Y-39600D02*
X73800Y-40000D01*
X73600Y-39800D02*
X74000Y-39800D01*
X73800Y-42000D02*
X73800Y-42400D01*
X73600Y-42200D02*
X74000Y-42200D01*
X73800Y-48000D02*
X73800Y-48400D01*
X73600Y-48200D02*
X74000Y-48200D01*
X74800Y-39600D02*
X74800Y-40000D01*
X74600Y-39800D02*
X75000Y-39800D01*
X74800Y-42000D02*
X74800Y-42400D01*
X74600Y-42200D02*
X75000Y-42200D01*
X74800Y-48000D02*
X74800Y-48400D01*
X74600Y-48200D02*
X75000Y-48200D01*
X75800Y-42000D02*
X75800Y-42400D01*
X75600Y-42200D02*
X76000Y-42200D01*
X75800Y-48000D02*
X75800Y-48400D01*
X75600Y-48200D02*
X76000Y-48200D01*
X76800Y-42000D02*
X76800Y-42400D01*
X76600Y-42200D02*
X77000Y-42200D01*
X76800Y-48000D02*
X76800Y-48400D01*
X76600Y-48200D02*
X77000Y-48200D01*
X77800Y-42000D02*
X77800Y-42400D01*
X77600Y-42200D02*
X78000Y-42200D01*
X77800Y-48000D02*
X77800Y-48400D01*
X77600Y-48200D02*
X78000Y-48200D01*
X78800Y-42000D02*
X78800Y-42400D01*
X78600Y-42200D02*
X79000Y-42200D01*
X78800Y-48000D02*
X78800Y-48400D01*
X78600Y-48200D02*
X79000Y-48200D01*
X79800Y-42000D02*
X79800Y-42400D01*
X79600Y-42200D02*
X80000Y-42200D01*
X79800Y-48000D02*
X79800Y-48400D01*
X79600Y-48200D02*
X80000Y-48200D01*
X80800Y-42000D02*
X80800Y-42400D01*
X80600Y-42200D02*
X81000Y-42200D01*
X80800Y-48000D02*
X80800Y-48400D01*
X80600Y-48200D02*
X81000Y-48200D01*
X81800Y-42000D02*
X81800Y-42400D01*
X81600Y-42200D02*
X82000Y-42200D01*
X81800Y-44000D02*
X81800Y-44400D01*
X81600Y-44200D02*
X82000Y-44200D01*
X81800Y-45000D02*
X81800Y-45400D01*
X81600Y-45200D02*
X82000Y-45200D01*
X81800Y-48000D02*
X81800Y-48400D01*
X81600Y-48200D02*
X82000Y-48200D01*
X82800Y-42000D02*
X82800Y-42400D01*
X82600Y-42200D02*
X83000Y-42200D01*
X82800Y-44000D02*
X82800Y-44400D01*
X82600Y-44200D02*
X83000Y-44200D01*
X82800Y-45000D02*
X82800Y-45400D01*
X82600Y-45200D02*
X83000Y-45200D01*
X82800Y-48000D02*
X82800Y-48400D01*
X82600Y-48200D02*
X83000Y-48200D01*
X83800Y-42000D02*
X83800Y-42400D01*
X83600Y-42200D02*
X84000Y-42200D01*
X83800Y-44000D02*
X83800Y-44400D01*
X83600Y-44200D02*
X84000Y-44200D01*
X83800Y-45000D02*
X83800Y-45400D01*
X83600Y-45200D02*
X84000Y-45200D01*
X83800Y-48000D02*
X83800Y-48400D01*
X83600Y-48200D02*
X84000Y-48200D01*
X84800Y-39600D02*
X84800Y-40000D01*
X84600Y-39800D02*
X85000Y-39800D01*
X84800Y-42000D02*
X84800Y-42400D01*
X84600Y-42200D02*
X85000Y-42200D01*
X84800Y-44000D02*
X84800Y-44400D01*
X84600Y-44200D02*
X85000Y-44200D01*
X84800Y-45000D02*
X84800Y-45400D01*
X84600Y-45200D02*
X85000Y-45200D01*
X84800Y-46000D02*
X84800Y-46400D01*
X84600Y-46200D02*
X85000Y-46200D01*
X84800Y-48000D02*
X84800Y-48400D01*
X84600Y-48200D02*
X85000Y-48200D01*
X85800Y-39600D02*
X85800Y-40000D01*
X85600Y-39800D02*
X86000Y-39800D01*
X85800Y-42000D02*
X85800Y-42400D01*
X85600Y-42200D02*
X86000Y-42200D01*
X85800Y-48000D02*
X85800Y-48400D01*
X85600Y-48200D02*
X86000Y-48200D01*
X86800Y-39600D02*
X86800Y-40000D01*
X86600Y-39800D02*
X87000Y-39800D01*
X86800Y-42000D02*
X86800Y-42400D01*
X86600Y-42200D02*
X87000Y-42200D01*
X86800Y-48000D02*
X86800Y-48400D01*
X86600Y-48200D02*
X87000Y-48200D01*
X87800Y-39600D02*
X87800Y-40000D01*
X87600Y-39800D02*
X88000Y-39800D01*
X87800Y-42000D02*
X87800Y-42400D01*
X87600Y-42200D02*
X88000Y-42200D01*
X87800Y-44000D02*
X87800Y-44400D01*
X87600Y-44200D02*
X88000Y-44200D01*
X87800Y-45000D02*
X87800Y-45400D01*
X87600Y-45200D02*
X88000Y-45200D01*
X87800Y-46000D02*
X87800Y-46400D01*
X87600Y-46200D02*
X88000Y-46200D01*
X87800Y-48000D02*
X87800Y-48400D01*
X87600Y-48200D02*
X88000Y-48200D01*
X101300Y-56400D02*
X101300Y-56800D01*
X101100Y-56600D02*
X101500Y-56600D01*
X102300Y-56400D02*
X102300Y-56800D01*
X102100Y-56600D02*
X102500Y-56600D01*
X103300Y-56400D02*
X103300Y-56800D01*
X103100Y-56600D02*
X103500Y-56600D01*
X104300Y-56400D02*
X104300Y-56800D01*
X104100Y-56600D02*
X104500Y-56600D01*
X105300Y-56400D02*
X105300Y-56800D01*
X105100Y-56600D02*
X105500Y-56600D01*
X106300Y-56400D02*
X106300Y-56800D01*
X106100Y-56600D02*
X106500Y-56600D01*
G54D13*
X66048Y-60796D02*
X66048Y-59615D01*
X66330Y-59615D01*
X66498Y-59672D01*
X66611Y-59784D01*
X66667Y-59897D01*
X66723Y-60122D01*
X66723Y-60290D01*
X66667Y-60515D01*
X66611Y-60628D01*
X66498Y-60740D01*
X66330Y-60796D01*
X66048Y-60796D01*
X67230Y-60796D02*
X67230Y-60009D01*
X67230Y-60234D02*
X67286Y-60122D01*
X67342Y-60065D01*
X67455Y-60009D01*
X67567Y-60009D01*
X67961Y-60796D02*
X67961Y-60009D01*
X67961Y-59615D02*
X67904Y-59672D01*
X67961Y-59728D01*
X68017Y-59672D01*
X67961Y-59615D01*
X67961Y-59728D01*
X68692Y-60796D02*
X68579Y-60740D01*
X68523Y-60628D01*
X68523Y-59615D01*
X69311Y-60796D02*
X69198Y-60740D01*
X69142Y-60628D01*
X69142Y-59615D01*
X70660Y-60796D02*
X70660Y-59615D01*
X71054Y-60459D01*
X71448Y-59615D01*
X71448Y-60796D01*
X72516Y-60796D02*
X72516Y-60178D01*
X72460Y-60065D01*
X72348Y-60009D01*
X72123Y-60009D01*
X72010Y-60065D01*
X72516Y-60740D02*
X72404Y-60796D01*
X72123Y-60796D01*
X72010Y-60740D01*
X71954Y-60628D01*
X71954Y-60515D01*
X72010Y-60403D01*
X72123Y-60347D01*
X72404Y-60347D01*
X72516Y-60290D01*
X73079Y-60009D02*
X73079Y-61190D01*
X73079Y-60065D02*
X73191Y-60009D01*
X73416Y-60009D01*
X73529Y-60065D01*
X73585Y-60122D01*
X73641Y-60234D01*
X73641Y-60571D01*
X73585Y-60684D01*
X73529Y-60740D01*
X73416Y-60796D01*
X73191Y-60796D01*
X73079Y-60740D01*
X74147Y-60684D02*
X74204Y-60740D01*
X74147Y-60796D01*
X74091Y-60740D01*
X74147Y-60684D01*
X74147Y-60796D01*
X74147Y-60065D02*
X74204Y-60122D01*
X74147Y-60178D01*
X74091Y-60122D01*
X74147Y-60065D01*
X74147Y-60178D01*
X64730Y-62674D02*
X64980Y-62924D01*
X64980Y-62674D02*
X64730Y-62924D01*
X66273Y-62096D02*
X66386Y-62096D01*
X66498Y-62152D01*
X66555Y-62208D01*
X66611Y-62321D01*
X66667Y-62546D01*
X66667Y-62827D01*
X66611Y-63052D01*
X66555Y-63164D01*
X66498Y-63221D01*
X66386Y-63277D01*
X66273Y-63277D01*
X66161Y-63221D01*
X66105Y-63164D01*
X66048Y-63052D01*
X65992Y-62827D01*
X65992Y-62546D01*
X66048Y-62321D01*
X66105Y-62208D01*
X66161Y-62152D01*
X66273Y-62096D01*
X67173Y-63164D02*
X67230Y-63221D01*
X67173Y-63277D01*
X67117Y-63221D01*
X67173Y-63164D01*
X67173Y-63277D01*
X68242Y-62096D02*
X68017Y-62096D01*
X67904Y-62152D01*
X67848Y-62208D01*
X67736Y-62377D01*
X67679Y-62602D01*
X67679Y-63052D01*
X67736Y-63164D01*
X67792Y-63221D01*
X67904Y-63277D01*
X68129Y-63277D01*
X68242Y-63221D01*
X68298Y-63164D01*
X68354Y-63052D01*
X68354Y-62771D01*
X68298Y-62658D01*
X68242Y-62602D01*
X68129Y-62546D01*
X67904Y-62546D01*
X67792Y-62602D01*
X67736Y-62658D01*
X67679Y-62771D01*
X69367Y-62489D02*
X69367Y-63277D01*
X69086Y-62039D02*
X68804Y-62883D01*
X69535Y-62883D01*
X69985Y-63277D02*
X69985Y-62489D01*
X69985Y-62602D02*
X70042Y-62546D01*
X70154Y-62489D01*
X70323Y-62489D01*
X70435Y-62546D01*
X70492Y-62658D01*
X70492Y-63277D01*
X70492Y-62658D02*
X70548Y-62546D01*
X70660Y-62489D01*
X70829Y-62489D01*
X70942Y-62546D01*
X70998Y-62658D01*
X70998Y-63277D01*
X71560Y-63277D02*
X71560Y-62489D01*
X71560Y-62602D02*
X71616Y-62546D01*
X71729Y-62489D01*
X71898Y-62489D01*
X72010Y-62546D01*
X72066Y-62658D01*
X72066Y-63277D01*
X72066Y-62658D02*
X72123Y-62546D01*
X72235Y-62489D01*
X72404Y-62489D01*
X72516Y-62546D01*
X72573Y-62658D01*
X72573Y-63277D01*
X74879Y-62039D02*
X73866Y-63558D01*
X76397Y-62096D02*
X76510Y-62096D01*
X76622Y-62152D01*
X76678Y-62208D01*
X76735Y-62321D01*
X76791Y-62546D01*
X76791Y-62827D01*
X76735Y-63052D01*
X76678Y-63164D01*
X76622Y-63221D01*
X76510Y-63277D01*
X76397Y-63277D01*
X76285Y-63221D01*
X76228Y-63164D01*
X76172Y-63052D01*
X76116Y-62827D01*
X76116Y-62546D01*
X76172Y-62321D01*
X76228Y-62208D01*
X76285Y-62152D01*
X76397Y-62096D01*
X77297Y-63164D02*
X77353Y-63221D01*
X77297Y-63277D01*
X77241Y-63221D01*
X77297Y-63164D01*
X77297Y-63277D01*
X78084Y-62096D02*
X78197Y-62096D01*
X78309Y-62152D01*
X78366Y-62208D01*
X78422Y-62321D01*
X78478Y-62546D01*
X78478Y-62827D01*
X78422Y-63052D01*
X78366Y-63164D01*
X78309Y-63221D01*
X78197Y-63277D01*
X78084Y-63277D01*
X77972Y-63221D01*
X77916Y-63164D01*
X77859Y-63052D01*
X77803Y-62827D01*
X77803Y-62546D01*
X77859Y-62321D01*
X77916Y-62208D01*
X77972Y-62152D01*
X78084Y-62096D01*
X78928Y-62208D02*
X78984Y-62152D01*
X79097Y-62096D01*
X79378Y-62096D01*
X79491Y-62152D01*
X79547Y-62208D01*
X79603Y-62321D01*
X79603Y-62433D01*
X79547Y-62602D01*
X78872Y-63277D01*
X79603Y-63277D01*
X80672Y-62096D02*
X80109Y-62096D01*
X80053Y-62658D01*
X80109Y-62602D01*
X80222Y-62546D01*
X80503Y-62546D01*
X80615Y-62602D01*
X80672Y-62658D01*
X80728Y-62771D01*
X80728Y-63052D01*
X80672Y-63164D01*
X80615Y-63221D01*
X80503Y-63277D01*
X80222Y-63277D01*
X80109Y-63221D01*
X80053Y-63164D01*
X81178Y-62096D02*
X81178Y-62321D01*
X81628Y-62096D02*
X81628Y-62321D01*
X83371Y-63727D02*
X83315Y-63670D01*
X83203Y-63502D01*
X83146Y-63389D01*
X83090Y-63221D01*
X83034Y-62939D01*
X83034Y-62714D01*
X83090Y-62433D01*
X83146Y-62264D01*
X83203Y-62152D01*
X83315Y-61983D01*
X83371Y-61927D01*
X83765Y-62208D02*
X83821Y-62152D01*
X83934Y-62096D01*
X84215Y-62096D01*
X84327Y-62152D01*
X84384Y-62208D01*
X84440Y-62321D01*
X84440Y-62433D01*
X84384Y-62602D01*
X83709Y-63277D01*
X84440Y-63277D01*
X85115Y-62602D02*
X85002Y-62546D01*
X84946Y-62489D01*
X84890Y-62377D01*
X84890Y-62321D01*
X84946Y-62208D01*
X85002Y-62152D01*
X85115Y-62096D01*
X85340Y-62096D01*
X85452Y-62152D01*
X85508Y-62208D01*
X85565Y-62321D01*
X85565Y-62377D01*
X85508Y-62489D01*
X85452Y-62546D01*
X85340Y-62602D01*
X85115Y-62602D01*
X85002Y-62658D01*
X84946Y-62714D01*
X84890Y-62827D01*
X84890Y-63052D01*
X84946Y-63164D01*
X85002Y-63221D01*
X85115Y-63277D01*
X85340Y-63277D01*
X85452Y-63221D01*
X85508Y-63164D01*
X85565Y-63052D01*
X85565Y-62827D01*
X85508Y-62714D01*
X85452Y-62658D01*
X85340Y-62602D01*
X86971Y-63277D02*
X86971Y-62096D01*
X87477Y-63277D02*
X87477Y-62658D01*
X87421Y-62546D01*
X87308Y-62489D01*
X87140Y-62489D01*
X87027Y-62546D01*
X86971Y-62602D01*
X88208Y-63277D02*
X88096Y-63221D01*
X88039Y-63164D01*
X87983Y-63052D01*
X87983Y-62714D01*
X88039Y-62602D01*
X88096Y-62546D01*
X88208Y-62489D01*
X88377Y-62489D01*
X88489Y-62546D01*
X88546Y-62602D01*
X88602Y-62714D01*
X88602Y-63052D01*
X88546Y-63164D01*
X88489Y-63221D01*
X88377Y-63277D01*
X88208Y-63277D01*
X89277Y-63277D02*
X89164Y-63221D01*
X89108Y-63108D01*
X89108Y-62096D01*
X90177Y-63221D02*
X90064Y-63277D01*
X89839Y-63277D01*
X89727Y-63221D01*
X89670Y-63108D01*
X89670Y-62658D01*
X89727Y-62546D01*
X89839Y-62489D01*
X90064Y-62489D01*
X90177Y-62546D01*
X90233Y-62658D01*
X90233Y-62771D01*
X89670Y-62883D01*
X90683Y-63221D02*
X90795Y-63277D01*
X91020Y-63277D01*
X91133Y-63221D01*
X91189Y-63108D01*
X91189Y-63052D01*
X91133Y-62939D01*
X91020Y-62883D01*
X90852Y-62883D01*
X90739Y-62827D01*
X90683Y-62714D01*
X90683Y-62658D01*
X90739Y-62546D01*
X90852Y-62489D01*
X91020Y-62489D01*
X91133Y-62546D01*
X91583Y-63727D02*
X91639Y-63670D01*
X91751Y-63502D01*
X91808Y-63389D01*
X91864Y-63221D01*
X91920Y-62939D01*
X91920Y-62714D01*
X91864Y-62433D01*
X91808Y-62264D01*
X91751Y-62152D01*
X91639Y-61983D01*
X91583Y-61927D01*
G54D12*
X64980Y-64358D02*
G75*
G03X64980Y-64358I-160J0D01*
G74*
G01*
G54D13*
X66273Y-63655D02*
X66386Y-63655D01*
X66498Y-63711D01*
X66555Y-63767D01*
X66611Y-63880D01*
X66667Y-64105D01*
X66667Y-64386D01*
X66611Y-64611D01*
X66555Y-64723D01*
X66498Y-64780D01*
X66386Y-64836D01*
X66273Y-64836D01*
X66161Y-64780D01*
X66105Y-64723D01*
X66048Y-64611D01*
X65992Y-64386D01*
X65992Y-64105D01*
X66048Y-63880D01*
X66105Y-63767D01*
X66161Y-63711D01*
X66273Y-63655D01*
X67173Y-64723D02*
X67230Y-64780D01*
X67173Y-64836D01*
X67117Y-64780D01*
X67173Y-64723D01*
X67173Y-64836D01*
X67904Y-64161D02*
X67792Y-64105D01*
X67736Y-64048D01*
X67679Y-63936D01*
X67679Y-63880D01*
X67736Y-63767D01*
X67792Y-63711D01*
X67904Y-63655D01*
X68129Y-63655D01*
X68242Y-63711D01*
X68298Y-63767D01*
X68354Y-63880D01*
X68354Y-63936D01*
X68298Y-64048D01*
X68242Y-64105D01*
X68129Y-64161D01*
X67904Y-64161D01*
X67792Y-64217D01*
X67736Y-64273D01*
X67679Y-64386D01*
X67679Y-64611D01*
X67736Y-64723D01*
X67792Y-64780D01*
X67904Y-64836D01*
X68129Y-64836D01*
X68242Y-64780D01*
X68298Y-64723D01*
X68354Y-64611D01*
X68354Y-64386D01*
X68298Y-64273D01*
X68242Y-64217D01*
X68129Y-64161D01*
X69479Y-64836D02*
X68804Y-64836D01*
X69142Y-64836D02*
X69142Y-63655D01*
X69029Y-63823D01*
X68917Y-63936D01*
X68804Y-63992D01*
X69985Y-64836D02*
X69985Y-64048D01*
X69985Y-64161D02*
X70042Y-64105D01*
X70154Y-64048D01*
X70323Y-64048D01*
X70435Y-64105D01*
X70492Y-64217D01*
X70492Y-64836D01*
X70492Y-64217D02*
X70548Y-64105D01*
X70660Y-64048D01*
X70829Y-64048D01*
X70942Y-64105D01*
X70998Y-64217D01*
X70998Y-64836D01*
X71560Y-64836D02*
X71560Y-64048D01*
X71560Y-64161D02*
X71616Y-64105D01*
X71729Y-64048D01*
X71898Y-64048D01*
X72010Y-64105D01*
X72066Y-64217D01*
X72066Y-64836D01*
X72066Y-64217D02*
X72123Y-64105D01*
X72235Y-64048D01*
X72404Y-64048D01*
X72516Y-64105D01*
X72573Y-64217D01*
X72573Y-64836D01*
X74879Y-63598D02*
X73866Y-65117D01*
X76397Y-63655D02*
X76510Y-63655D01*
X76622Y-63711D01*
X76678Y-63767D01*
X76735Y-63880D01*
X76791Y-64105D01*
X76791Y-64386D01*
X76735Y-64611D01*
X76678Y-64723D01*
X76622Y-64780D01*
X76510Y-64836D01*
X76397Y-64836D01*
X76285Y-64780D01*
X76228Y-64723D01*
X76172Y-64611D01*
X76116Y-64386D01*
X76116Y-64105D01*
X76172Y-63880D01*
X76228Y-63767D01*
X76285Y-63711D01*
X76397Y-63655D01*
X77297Y-64723D02*
X77353Y-64780D01*
X77297Y-64836D01*
X77241Y-64780D01*
X77297Y-64723D01*
X77297Y-64836D01*
X78084Y-63655D02*
X78197Y-63655D01*
X78309Y-63711D01*
X78366Y-63767D01*
X78422Y-63880D01*
X78478Y-64105D01*
X78478Y-64386D01*
X78422Y-64611D01*
X78366Y-64723D01*
X78309Y-64780D01*
X78197Y-64836D01*
X78084Y-64836D01*
X77972Y-64780D01*
X77916Y-64723D01*
X77859Y-64611D01*
X77803Y-64386D01*
X77803Y-64105D01*
X77859Y-63880D01*
X77916Y-63767D01*
X77972Y-63711D01*
X78084Y-63655D01*
X78872Y-63655D02*
X79603Y-63655D01*
X79209Y-64105D01*
X79378Y-64105D01*
X79491Y-64161D01*
X79547Y-64217D01*
X79603Y-64330D01*
X79603Y-64611D01*
X79547Y-64723D01*
X79491Y-64780D01*
X79378Y-64836D01*
X79041Y-64836D01*
X78928Y-64780D01*
X78872Y-64723D01*
X80053Y-63767D02*
X80109Y-63711D01*
X80222Y-63655D01*
X80503Y-63655D01*
X80615Y-63711D01*
X80672Y-63767D01*
X80728Y-63880D01*
X80728Y-63992D01*
X80672Y-64161D01*
X79997Y-64836D01*
X80728Y-64836D01*
X81178Y-63655D02*
X81178Y-63880D01*
X81628Y-63655D02*
X81628Y-63880D01*
X83371Y-65286D02*
X83315Y-65230D01*
X83203Y-65061D01*
X83146Y-64948D01*
X83090Y-64780D01*
X83034Y-64498D01*
X83034Y-64273D01*
X83090Y-63992D01*
X83146Y-63823D01*
X83203Y-63711D01*
X83315Y-63542D01*
X83371Y-63486D01*
X84327Y-64048D02*
X84327Y-64836D01*
X84046Y-63598D02*
X83765Y-64442D01*
X84496Y-64442D01*
X85846Y-64836D02*
X85846Y-63655D01*
X86352Y-64836D02*
X86352Y-64217D01*
X86296Y-64105D01*
X86183Y-64048D01*
X86015Y-64048D01*
X85902Y-64105D01*
X85846Y-64161D01*
X87083Y-64836D02*
X86971Y-64780D01*
X86915Y-64723D01*
X86858Y-64611D01*
X86858Y-64273D01*
X86915Y-64161D01*
X86971Y-64105D01*
X87083Y-64048D01*
X87252Y-64048D01*
X87365Y-64105D01*
X87421Y-64161D01*
X87477Y-64273D01*
X87477Y-64611D01*
X87421Y-64723D01*
X87365Y-64780D01*
X87252Y-64836D01*
X87083Y-64836D01*
X88152Y-64836D02*
X88039Y-64780D01*
X87983Y-64667D01*
X87983Y-63655D01*
X89052Y-64780D02*
X88939Y-64836D01*
X88714Y-64836D01*
X88602Y-64780D01*
X88546Y-64667D01*
X88546Y-64217D01*
X88602Y-64105D01*
X88714Y-64048D01*
X88939Y-64048D01*
X89052Y-64105D01*
X89108Y-64217D01*
X89108Y-64330D01*
X88546Y-64442D01*
X89558Y-64780D02*
X89670Y-64836D01*
X89895Y-64836D01*
X90008Y-64780D01*
X90064Y-64667D01*
X90064Y-64611D01*
X90008Y-64498D01*
X89895Y-64442D01*
X89727Y-64442D01*
X89614Y-64386D01*
X89558Y-64273D01*
X89558Y-64217D01*
X89614Y-64105D01*
X89727Y-64048D01*
X89895Y-64048D01*
X90008Y-64105D01*
X90458Y-65286D02*
X90514Y-65230D01*
X90627Y-65061D01*
X90683Y-64948D01*
X90739Y-64780D01*
X90795Y-64498D01*
X90795Y-64273D01*
X90739Y-63992D01*
X90683Y-63823D01*
X90627Y-63711D01*
X90514Y-63542D01*
X90458Y-63486D01*
X64780Y-65717D02*
X64780Y-66117D01*
X64580Y-65917D02*
X64980Y-65917D01*
X66667Y-66395D02*
X65992Y-66395D01*
X66330Y-66395D02*
X66330Y-65214D01*
X66217Y-65383D01*
X66105Y-65495D01*
X65992Y-65551D01*
X67173Y-66282D02*
X67230Y-66339D01*
X67173Y-66395D01*
X67117Y-66339D01*
X67173Y-66282D01*
X67173Y-66395D01*
X67961Y-65214D02*
X68073Y-65214D01*
X68186Y-65270D01*
X68242Y-65326D01*
X68298Y-65439D01*
X68354Y-65664D01*
X68354Y-65945D01*
X68298Y-66170D01*
X68242Y-66282D01*
X68186Y-66339D01*
X68073Y-66395D01*
X67961Y-66395D01*
X67848Y-66339D01*
X67792Y-66282D01*
X67736Y-66170D01*
X67679Y-65945D01*
X67679Y-65664D01*
X67736Y-65439D01*
X67792Y-65326D01*
X67848Y-65270D01*
X67961Y-65214D01*
X68804Y-65326D02*
X68861Y-65270D01*
X68973Y-65214D01*
X69254Y-65214D01*
X69367Y-65270D01*
X69423Y-65326D01*
X69479Y-65439D01*
X69479Y-65551D01*
X69423Y-65720D01*
X68748Y-66395D01*
X69479Y-66395D01*
X69985Y-66395D02*
X69985Y-65607D01*
X69985Y-65720D02*
X70042Y-65664D01*
X70154Y-65607D01*
X70323Y-65607D01*
X70435Y-65664D01*
X70492Y-65776D01*
X70492Y-66395D01*
X70492Y-65776D02*
X70548Y-65664D01*
X70660Y-65607D01*
X70829Y-65607D01*
X70942Y-65664D01*
X70998Y-65776D01*
X70998Y-66395D01*
X71560Y-66395D02*
X71560Y-65607D01*
X71560Y-65720D02*
X71616Y-65664D01*
X71729Y-65607D01*
X71898Y-65607D01*
X72010Y-65664D01*
X72066Y-65776D01*
X72066Y-66395D01*
X72066Y-65776D02*
X72123Y-65664D01*
X72235Y-65607D01*
X72404Y-65607D01*
X72516Y-65664D01*
X72573Y-65776D01*
X72573Y-66395D01*
X74879Y-65158D02*
X73866Y-66676D01*
X76397Y-65214D02*
X76510Y-65214D01*
X76622Y-65270D01*
X76678Y-65326D01*
X76735Y-65439D01*
X76791Y-65664D01*
X76791Y-65945D01*
X76735Y-66170D01*
X76678Y-66282D01*
X76622Y-66339D01*
X76510Y-66395D01*
X76397Y-66395D01*
X76285Y-66339D01*
X76228Y-66282D01*
X76172Y-66170D01*
X76116Y-65945D01*
X76116Y-65664D01*
X76172Y-65439D01*
X76228Y-65326D01*
X76285Y-65270D01*
X76397Y-65214D01*
X77297Y-66282D02*
X77353Y-66339D01*
X77297Y-66395D01*
X77241Y-66339D01*
X77297Y-66282D01*
X77297Y-66395D01*
X78084Y-65214D02*
X78197Y-65214D01*
X78309Y-65270D01*
X78366Y-65326D01*
X78422Y-65439D01*
X78478Y-65664D01*
X78478Y-65945D01*
X78422Y-66170D01*
X78366Y-66282D01*
X78309Y-66339D01*
X78197Y-66395D01*
X78084Y-66395D01*
X77972Y-66339D01*
X77916Y-66282D01*
X77859Y-66170D01*
X77803Y-65945D01*
X77803Y-65664D01*
X77859Y-65439D01*
X77916Y-65326D01*
X77972Y-65270D01*
X78084Y-65214D01*
X79491Y-65607D02*
X79491Y-66395D01*
X79209Y-65158D02*
X78928Y-66001D01*
X79659Y-66001D01*
X80334Y-65214D02*
X80447Y-65214D01*
X80559Y-65270D01*
X80615Y-65326D01*
X80672Y-65439D01*
X80728Y-65664D01*
X80728Y-65945D01*
X80672Y-66170D01*
X80615Y-66282D01*
X80559Y-66339D01*
X80447Y-66395D01*
X80334Y-66395D01*
X80222Y-66339D01*
X80165Y-66282D01*
X80109Y-66170D01*
X80053Y-65945D01*
X80053Y-65664D01*
X80109Y-65439D01*
X80165Y-65326D01*
X80222Y-65270D01*
X80334Y-65214D01*
X81178Y-65214D02*
X81178Y-65439D01*
X81628Y-65214D02*
X81628Y-65439D01*
X83371Y-66845D02*
X83315Y-66789D01*
X83203Y-66620D01*
X83146Y-66507D01*
X83090Y-66339D01*
X83034Y-66057D01*
X83034Y-65832D01*
X83090Y-65551D01*
X83146Y-65383D01*
X83203Y-65270D01*
X83315Y-65101D01*
X83371Y-65045D01*
X84327Y-65214D02*
X84102Y-65214D01*
X83990Y-65270D01*
X83934Y-65326D01*
X83821Y-65495D01*
X83765Y-65720D01*
X83765Y-66170D01*
X83821Y-66282D01*
X83877Y-66339D01*
X83990Y-66395D01*
X84215Y-66395D01*
X84327Y-66339D01*
X84384Y-66282D01*
X84440Y-66170D01*
X84440Y-65889D01*
X84384Y-65776D01*
X84327Y-65720D01*
X84215Y-65664D01*
X83990Y-65664D01*
X83877Y-65720D01*
X83821Y-65776D01*
X83765Y-65889D01*
X85002Y-66395D02*
X85227Y-66395D01*
X85340Y-66339D01*
X85396Y-66282D01*
X85508Y-66114D01*
X85565Y-65889D01*
X85565Y-65439D01*
X85508Y-65326D01*
X85452Y-65270D01*
X85340Y-65214D01*
X85115Y-65214D01*
X85002Y-65270D01*
X84946Y-65326D01*
X84890Y-65439D01*
X84890Y-65720D01*
X84946Y-65832D01*
X85002Y-65889D01*
X85115Y-65945D01*
X85340Y-65945D01*
X85452Y-65889D01*
X85508Y-65832D01*
X85565Y-65720D01*
X86971Y-66395D02*
X86971Y-65214D01*
X87477Y-66395D02*
X87477Y-65776D01*
X87421Y-65664D01*
X87308Y-65607D01*
X87140Y-65607D01*
X87027Y-65664D01*
X86971Y-65720D01*
X88208Y-66395D02*
X88096Y-66339D01*
X88039Y-66282D01*
X87983Y-66170D01*
X87983Y-65832D01*
X88039Y-65720D01*
X88096Y-65664D01*
X88208Y-65607D01*
X88377Y-65607D01*
X88489Y-65664D01*
X88546Y-65720D01*
X88602Y-65832D01*
X88602Y-66170D01*
X88546Y-66282D01*
X88489Y-66339D01*
X88377Y-66395D01*
X88208Y-66395D01*
X89277Y-66395D02*
X89164Y-66339D01*
X89108Y-66226D01*
X89108Y-65214D01*
X90177Y-66339D02*
X90064Y-66395D01*
X89839Y-66395D01*
X89727Y-66339D01*
X89670Y-66226D01*
X89670Y-65776D01*
X89727Y-65664D01*
X89839Y-65607D01*
X90064Y-65607D01*
X90177Y-65664D01*
X90233Y-65776D01*
X90233Y-65889D01*
X89670Y-66001D01*
X90683Y-66339D02*
X90795Y-66395D01*
X91020Y-66395D01*
X91133Y-66339D01*
X91189Y-66226D01*
X91189Y-66170D01*
X91133Y-66057D01*
X91020Y-66001D01*
X90852Y-66001D01*
X90739Y-65945D01*
X90683Y-65832D01*
X90683Y-65776D01*
X90739Y-65664D01*
X90852Y-65607D01*
X91020Y-65607D01*
X91133Y-65664D01*
X91583Y-66845D02*
X91639Y-66789D01*
X91751Y-66620D01*
X91808Y-66507D01*
X91864Y-66339D01*
X91920Y-66057D01*
X91920Y-65832D01*
X91864Y-65551D01*
X91808Y-65383D01*
X91751Y-65270D01*
X91639Y-65101D01*
X91583Y-65045D01*
M02*
