G04 (created by PCBNEW (2013-may-18)-stable) date Thu 14 Nov 2013 05:27:43 PM CST*
%MOIN*%
G04 Gerber Fmt 3.4, Leading zero omitted, Abs format*
%FSLAX34Y34*%
G01*
G70*
G90*
G04 APERTURE LIST*
%ADD10C,0.00590551*%
%ADD11C,0.074*%
%ADD12R,0.074X0.074*%
%ADD13C,0.042*%
%ADD14R,0.0315X0.0394*%
%ADD15R,0.0255906X0.0787402*%
%ADD16R,0.125984X0.0787402*%
%ADD17R,0.1X0.05*%
%ADD18R,0.05X0.1*%
%ADD19R,0.06X0.06*%
%ADD20C,0.06*%
%ADD21C,0.066*%
%ADD22R,0.0413386X0.0125984*%
%ADD23R,0.0531496X0.014*%
%ADD24R,0.05X0.015*%
%ADD25C,0.035*%
%ADD26C,0.011811*%
%ADD27C,0.0275591*%
%ADD28C,0.01*%
G04 APERTURE END LIST*
G54D10*
G54D11*
X68800Y-42200D03*
X69800Y-42200D03*
X70800Y-42200D03*
X71800Y-42200D03*
X72800Y-42200D03*
X73800Y-42200D03*
X74800Y-42200D03*
X75800Y-42200D03*
X76800Y-42200D03*
X77800Y-42200D03*
X78800Y-42200D03*
X79800Y-42200D03*
X80800Y-42200D03*
X81800Y-42200D03*
X82800Y-42200D03*
X83800Y-42200D03*
X84800Y-42200D03*
X85800Y-42200D03*
X86800Y-42200D03*
X87800Y-42200D03*
X87800Y-48200D03*
X86800Y-48200D03*
X85800Y-48200D03*
X84800Y-48200D03*
X83800Y-48200D03*
X82800Y-48200D03*
X81800Y-48200D03*
X80800Y-48200D03*
X79800Y-48200D03*
X78800Y-48200D03*
X77800Y-48200D03*
X76800Y-48200D03*
X75800Y-48200D03*
X74800Y-48200D03*
X73800Y-48200D03*
X72800Y-48200D03*
X71800Y-48200D03*
X70800Y-48200D03*
X69800Y-48200D03*
G54D12*
X68800Y-48200D03*
X87800Y-44200D03*
G54D11*
X87800Y-45200D03*
X87800Y-46200D03*
X84800Y-44200D03*
X83800Y-44200D03*
X82800Y-44200D03*
X81800Y-44200D03*
X81800Y-45200D03*
X82800Y-45200D03*
X83800Y-45200D03*
X84800Y-45200D03*
G54D13*
X74700Y-45560D03*
X74700Y-45040D03*
G54D11*
X84800Y-46200D03*
G54D14*
X98800Y-52067D03*
X99175Y-52933D03*
X98425Y-52933D03*
X95900Y-52067D03*
X96275Y-52933D03*
X95525Y-52933D03*
G54D15*
X74800Y-54600D03*
X74300Y-54600D03*
X73800Y-54600D03*
X73300Y-54600D03*
X72800Y-54600D03*
G54D16*
X73800Y-52237D03*
G54D15*
X85800Y-54600D03*
X85300Y-54600D03*
X84800Y-54600D03*
X84300Y-54600D03*
X83800Y-54600D03*
G54D16*
X84800Y-52237D03*
G54D17*
X71300Y-53500D03*
X71300Y-54700D03*
G54D18*
X110200Y-50200D03*
X109000Y-50200D03*
X99400Y-54300D03*
X98200Y-54300D03*
X99400Y-50700D03*
X98200Y-50700D03*
X96500Y-54300D03*
X95300Y-54300D03*
X95300Y-50700D03*
X96500Y-50700D03*
G54D17*
X98700Y-43800D03*
X98700Y-42600D03*
X81800Y-53500D03*
X81800Y-54700D03*
X78800Y-54500D03*
X78800Y-55700D03*
X76800Y-52000D03*
X76800Y-53200D03*
X76800Y-54500D03*
X76800Y-55700D03*
G54D18*
X104400Y-42600D03*
X105600Y-42600D03*
G54D17*
X89800Y-54500D03*
X89800Y-55700D03*
X87800Y-52000D03*
X87800Y-53200D03*
G54D18*
X100400Y-44100D03*
X101600Y-44100D03*
G54D17*
X94900Y-46000D03*
X94900Y-44800D03*
X103048Y-41366D03*
X103048Y-40166D03*
X94905Y-43575D03*
X94905Y-42375D03*
G54D18*
X100400Y-42200D03*
X101600Y-42200D03*
G54D17*
X87800Y-54500D03*
X87800Y-55700D03*
X98700Y-46500D03*
X98700Y-47700D03*
G54D18*
X100400Y-48100D03*
X101600Y-48100D03*
X100400Y-46100D03*
X101600Y-46100D03*
X110200Y-46200D03*
X109000Y-46200D03*
G54D17*
X105854Y-49821D03*
X105854Y-51021D03*
G54D18*
X104400Y-47600D03*
X105600Y-47600D03*
G54D19*
X101300Y-56600D03*
G54D20*
X102300Y-56600D03*
X103300Y-56600D03*
X104300Y-56600D03*
X105300Y-56600D03*
X106300Y-56600D03*
G54D21*
X109600Y-43700D03*
X109600Y-44700D03*
X109600Y-48700D03*
X109600Y-47700D03*
G54D19*
X84800Y-39800D03*
G54D20*
X85800Y-39800D03*
X86800Y-39800D03*
X87800Y-39800D03*
G54D19*
X68800Y-39800D03*
G54D20*
X69800Y-39800D03*
X70800Y-39800D03*
X71800Y-39800D03*
X72800Y-39800D03*
X73800Y-39800D03*
X74800Y-39800D03*
G54D22*
X103779Y-44844D03*
X103779Y-45100D03*
X103779Y-44588D03*
X103779Y-44332D03*
X103779Y-45355D03*
X103779Y-45611D03*
X103779Y-45867D03*
X106220Y-45867D03*
X106220Y-45611D03*
X106220Y-45355D03*
X106220Y-45100D03*
X106220Y-44844D03*
X106220Y-44588D03*
X106220Y-44332D03*
G54D23*
X102774Y-52085D03*
X102774Y-51829D03*
X102774Y-51574D03*
X102774Y-51318D03*
X104467Y-51318D03*
X104467Y-51574D03*
X104467Y-51829D03*
X104467Y-52085D03*
G54D24*
X107550Y-51616D03*
X107550Y-51872D03*
X107550Y-52128D03*
X107550Y-52384D03*
X109250Y-52384D03*
X109250Y-52128D03*
X109250Y-51872D03*
X109250Y-51616D03*
G54D25*
X106425Y-41025D03*
X107780Y-44990D03*
X107300Y-41000D03*
X97400Y-42600D03*
X104800Y-52800D03*
X101400Y-51400D03*
X99400Y-49000D03*
X72637Y-55944D03*
X105000Y-50600D03*
X106200Y-54200D03*
X97400Y-51600D03*
X91000Y-55200D03*
X85600Y-55600D03*
X83800Y-57400D03*
X81325Y-55775D03*
X77425Y-56600D03*
X96498Y-55382D03*
X101800Y-52600D03*
X97400Y-52600D03*
X103800Y-47600D03*
X107000Y-53000D03*
X103200Y-42400D03*
X91600Y-53200D03*
X107000Y-49800D03*
X99600Y-44600D03*
X99600Y-45600D03*
G54D26*
X103779Y-44588D02*
X103311Y-44588D01*
X101600Y-42876D02*
X101600Y-42200D01*
X103311Y-44588D02*
X101600Y-42876D01*
X103779Y-45611D02*
X103311Y-45611D01*
X101600Y-47323D02*
X101600Y-48100D01*
X103311Y-45611D02*
X101600Y-47323D01*
X106561Y-44588D02*
X106220Y-44588D01*
X106750Y-44400D02*
X106561Y-44588D01*
X106750Y-41350D02*
X106750Y-44400D01*
X106425Y-41025D02*
X106750Y-41350D01*
X106220Y-44588D02*
X106220Y-44844D01*
X103779Y-44844D02*
X102344Y-44844D01*
X102344Y-44844D02*
X101600Y-44100D01*
X103779Y-45355D02*
X102344Y-45355D01*
X102344Y-45355D02*
X101600Y-46100D01*
X107158Y-45611D02*
X106220Y-45611D01*
X107780Y-44990D02*
X107158Y-45611D01*
X106220Y-45355D02*
X106220Y-45611D01*
G54D27*
X94900Y-44800D02*
X94900Y-43580D01*
X94900Y-43580D02*
X94905Y-43575D01*
G54D26*
X97475Y-45100D02*
X96018Y-45100D01*
X95718Y-44800D02*
X94900Y-44800D01*
X96018Y-45100D02*
X95718Y-44800D01*
X103779Y-45100D02*
X97475Y-45100D01*
X97475Y-45100D02*
X97469Y-45100D01*
X106775Y-45100D02*
X106220Y-45100D01*
X107300Y-44575D02*
X106775Y-45100D01*
X107300Y-41000D02*
X107300Y-44575D01*
G54D27*
X73800Y-39800D02*
X73800Y-40200D01*
X73800Y-40200D02*
X74400Y-40800D01*
X74400Y-40800D02*
X76300Y-40800D01*
X76300Y-40800D02*
X76800Y-41300D01*
X76800Y-41300D02*
X76800Y-42200D01*
X84800Y-42200D02*
X84800Y-39800D01*
X87800Y-42200D02*
X87800Y-39800D01*
X86800Y-42200D02*
X86800Y-39800D01*
X85800Y-42200D02*
X85800Y-39800D01*
G54D26*
X107550Y-51872D02*
X107550Y-51616D01*
X107550Y-51616D02*
X107400Y-51466D01*
X107400Y-51466D02*
X107400Y-50400D01*
X107400Y-50400D02*
X107600Y-50200D01*
X107600Y-50200D02*
X109000Y-50200D01*
G54D27*
X105400Y-52085D02*
X105400Y-52200D01*
X97400Y-42600D02*
X98700Y-42600D01*
X105400Y-52200D02*
X104800Y-52800D01*
G54D26*
X104467Y-52085D02*
X105400Y-52085D01*
X105400Y-52085D02*
X106285Y-52085D01*
X106328Y-52128D02*
X107550Y-52128D01*
X106285Y-52085D02*
X106328Y-52128D01*
X98700Y-42600D02*
X99700Y-42600D01*
G54D28*
X100100Y-42200D02*
X100400Y-42200D01*
X99700Y-42600D02*
X100100Y-42200D01*
G54D26*
X80800Y-48200D02*
X80800Y-49000D01*
X101856Y-50400D02*
X102774Y-51318D01*
X101200Y-50400D02*
X101856Y-50400D01*
X100200Y-49400D02*
X101200Y-50400D01*
X81200Y-49400D02*
X100200Y-49400D01*
X80800Y-49000D02*
X81200Y-49400D01*
X81800Y-48200D02*
X81800Y-48600D01*
X101574Y-51574D02*
X102774Y-51574D01*
X101400Y-51400D02*
X101574Y-51574D01*
X82200Y-49000D02*
X99400Y-49000D01*
X81800Y-48600D02*
X82200Y-49000D01*
G54D27*
X74300Y-54600D02*
X74300Y-55581D01*
X74300Y-55581D02*
X74418Y-55700D01*
X76800Y-55700D02*
X74418Y-55700D01*
X72637Y-55944D02*
X74173Y-55944D01*
X74173Y-55944D02*
X74418Y-55700D01*
X78800Y-55700D02*
X76800Y-55700D01*
X97500Y-56500D02*
X98300Y-56500D01*
X105500Y-57400D02*
X106300Y-56600D01*
X99200Y-57400D02*
X105500Y-57400D01*
X98300Y-56500D02*
X99200Y-57400D01*
X98200Y-54300D02*
X98200Y-53158D01*
X98200Y-53158D02*
X98425Y-52933D01*
X94600Y-56500D02*
X97500Y-56500D01*
X97500Y-56500D02*
X97600Y-56500D01*
X98200Y-55900D02*
X98200Y-54300D01*
X97600Y-56500D02*
X98200Y-55900D01*
X95300Y-54300D02*
X95300Y-53158D01*
X95300Y-53158D02*
X95525Y-52933D01*
X78800Y-55700D02*
X78800Y-56200D01*
X78800Y-56200D02*
X79100Y-56500D01*
X79100Y-56500D02*
X94600Y-56500D01*
X95300Y-55800D02*
X95300Y-54300D01*
X94600Y-56500D02*
X95300Y-55800D01*
X105421Y-51021D02*
X105854Y-51021D01*
X105000Y-50600D02*
X105421Y-51021D01*
G54D26*
X110016Y-51616D02*
X109250Y-51616D01*
X110400Y-52000D02*
X110016Y-51616D01*
X110400Y-52800D02*
X110400Y-52000D01*
G54D27*
X109800Y-53400D02*
X110400Y-52800D01*
X108600Y-53400D02*
X109800Y-53400D01*
X107800Y-54200D02*
X108600Y-53400D01*
X106200Y-54200D02*
X107800Y-54200D01*
X97400Y-50700D02*
X97325Y-50700D01*
X97400Y-51600D02*
X97400Y-50700D01*
X89800Y-55700D02*
X90500Y-55700D01*
X90500Y-55700D02*
X91000Y-55200D01*
X68800Y-39800D02*
X68200Y-39800D01*
X71600Y-57400D02*
X83800Y-57400D01*
X67000Y-52800D02*
X71600Y-57400D01*
X67000Y-41000D02*
X67000Y-52800D01*
X68200Y-39800D02*
X67000Y-41000D01*
X85600Y-55600D02*
X85612Y-55587D01*
X85612Y-55587D02*
X85600Y-55600D01*
X85600Y-55600D02*
X85600Y-55575D01*
X94905Y-42375D02*
X92425Y-42375D01*
X92425Y-42375D02*
X88600Y-46200D01*
X88600Y-46200D02*
X87800Y-46200D01*
X103048Y-40166D02*
X97114Y-40166D01*
X97114Y-40166D02*
X94905Y-42375D01*
X109600Y-43700D02*
X109600Y-40800D01*
X108966Y-40166D02*
X103048Y-40166D01*
X109600Y-40800D02*
X108966Y-40166D01*
G54D26*
X104467Y-51574D02*
X105300Y-51574D01*
X105300Y-51574D02*
X105854Y-51021D01*
G54D27*
X85300Y-54600D02*
X85300Y-55275D01*
X85300Y-55275D02*
X85600Y-55575D01*
X85600Y-55575D02*
X85725Y-55700D01*
X85725Y-55700D02*
X87800Y-55700D01*
X96500Y-50700D02*
X97325Y-50700D01*
X97325Y-50700D02*
X98200Y-50700D01*
X87800Y-55700D02*
X89800Y-55700D01*
X100400Y-48100D02*
X100400Y-48800D01*
X107800Y-46200D02*
X109000Y-46200D01*
X107200Y-46800D02*
X107800Y-46200D01*
X107200Y-48000D02*
X107200Y-46800D01*
X106400Y-48800D02*
X107200Y-48000D01*
X105000Y-48800D02*
X106400Y-48800D01*
X104600Y-49200D02*
X105000Y-48800D01*
X100800Y-49200D02*
X104600Y-49200D01*
X100400Y-48800D02*
X100800Y-49200D01*
X109600Y-44700D02*
X109500Y-44700D01*
X109500Y-44700D02*
X109000Y-45200D01*
X109000Y-45200D02*
X109000Y-46200D01*
G54D26*
X100400Y-48100D02*
X100000Y-48100D01*
X100000Y-48100D02*
X99600Y-47700D01*
X99600Y-47700D02*
X98700Y-47700D01*
G54D27*
X68800Y-42200D02*
X68400Y-42200D01*
X70100Y-54700D02*
X71300Y-54700D01*
X67800Y-52400D02*
X70100Y-54700D01*
X67800Y-42800D02*
X67800Y-52400D01*
X68400Y-42200D02*
X67800Y-42800D01*
X71300Y-54700D02*
X71300Y-55750D01*
X81800Y-55300D02*
X81800Y-54700D01*
X81325Y-55775D02*
X81800Y-55300D01*
X72150Y-56600D02*
X77425Y-56600D01*
X71300Y-55750D02*
X72150Y-56600D01*
X83800Y-54600D02*
X84300Y-54600D01*
X81800Y-54700D02*
X83700Y-54700D01*
X83700Y-54700D02*
X83800Y-54600D01*
X71300Y-54700D02*
X72700Y-54700D01*
X72700Y-54700D02*
X72800Y-54600D01*
X72800Y-54600D02*
X73300Y-54600D01*
X96500Y-54300D02*
X96498Y-54302D01*
X96498Y-54302D02*
X96498Y-55382D01*
X96500Y-54300D02*
X96500Y-53158D01*
X96500Y-53158D02*
X96275Y-52933D01*
G54D26*
X95900Y-52067D02*
X96867Y-52067D01*
X102314Y-52085D02*
X102774Y-52085D01*
X101800Y-52600D02*
X102314Y-52085D01*
X96867Y-52067D02*
X97400Y-52600D01*
G54D27*
X95900Y-52067D02*
X95767Y-52067D01*
X95300Y-51600D02*
X95300Y-50700D01*
X95767Y-52067D02*
X95300Y-51600D01*
G54D26*
X70800Y-48200D02*
X70800Y-49000D01*
X72500Y-50700D02*
X95300Y-50700D01*
X70800Y-49000D02*
X72500Y-50700D01*
G54D27*
X104300Y-56600D02*
X104300Y-56500D01*
X99400Y-55000D02*
X99400Y-54300D01*
X99700Y-55300D02*
X99400Y-55000D01*
X103100Y-55300D02*
X99700Y-55300D01*
X104300Y-56500D02*
X103100Y-55300D01*
G54D26*
X99400Y-54300D02*
X99400Y-53158D01*
X99400Y-53158D02*
X99175Y-52933D01*
X99400Y-51588D02*
X99641Y-51829D01*
X99641Y-51829D02*
X102774Y-51829D01*
X88250Y-50075D02*
X94575Y-50075D01*
X98500Y-49800D02*
X99400Y-50700D01*
X94850Y-49800D02*
X98500Y-49800D01*
X94575Y-50075D02*
X94850Y-49800D01*
X71800Y-48200D02*
X71800Y-48975D01*
X72900Y-50075D02*
X88250Y-50075D01*
X71800Y-48975D02*
X72900Y-50075D01*
X98800Y-52067D02*
X98933Y-52067D01*
X99400Y-51600D02*
X99400Y-51588D01*
X99400Y-51588D02*
X99400Y-50700D01*
X98933Y-52067D02*
X99400Y-51600D01*
G54D27*
X103800Y-47600D02*
X104400Y-47600D01*
G54D26*
X107550Y-52384D02*
X107550Y-52450D01*
X107550Y-52450D02*
X107000Y-53000D01*
G54D27*
X103600Y-42000D02*
X103600Y-41918D01*
X103641Y-41959D02*
X103600Y-42000D01*
X103200Y-42400D02*
X103641Y-41959D01*
X89800Y-53200D02*
X91600Y-53200D01*
X105854Y-49821D02*
X106979Y-49821D01*
X106979Y-49821D02*
X107000Y-49800D01*
G54D26*
X104467Y-51318D02*
X104467Y-50332D01*
X104979Y-49821D02*
X105854Y-49821D01*
X104467Y-50332D02*
X104979Y-49821D01*
G54D27*
X68800Y-48200D02*
X68800Y-47600D01*
X78800Y-44200D02*
X78800Y-42200D01*
X76400Y-46600D02*
X78800Y-44200D01*
X69800Y-46600D02*
X76400Y-46600D01*
X68800Y-47600D02*
X69800Y-46600D01*
X87800Y-52000D02*
X88600Y-52000D01*
X89800Y-53200D02*
X89800Y-54500D01*
X88600Y-52000D02*
X89800Y-53200D01*
X87800Y-52000D02*
X85037Y-52000D01*
X85037Y-52000D02*
X84800Y-52237D01*
X78800Y-42200D02*
X78800Y-42800D01*
X78800Y-42800D02*
X79200Y-43200D01*
X79200Y-43200D02*
X85600Y-43200D01*
X85600Y-43200D02*
X86600Y-44200D01*
X86600Y-44200D02*
X86600Y-45600D01*
X78800Y-42200D02*
X78800Y-41400D01*
X78800Y-41400D02*
X77200Y-39800D01*
X77200Y-39800D02*
X74800Y-39800D01*
X68800Y-48200D02*
X68800Y-51000D01*
X68800Y-51000D02*
X71300Y-53500D01*
X73800Y-52237D02*
X72562Y-52237D01*
X72562Y-52237D02*
X71300Y-53500D01*
X73800Y-54600D02*
X73800Y-52237D01*
X84800Y-54600D02*
X84800Y-52237D01*
X81300Y-53000D02*
X84037Y-53000D01*
X84037Y-53000D02*
X84800Y-52237D01*
X78800Y-53000D02*
X81300Y-53000D01*
X81300Y-53000D02*
X81800Y-53500D01*
X76800Y-52000D02*
X77800Y-52000D01*
X78800Y-53000D02*
X78800Y-54500D01*
X77800Y-52000D02*
X78800Y-53000D01*
X76800Y-52000D02*
X74037Y-52000D01*
X74037Y-52000D02*
X73800Y-52237D01*
G54D26*
X103779Y-45867D02*
X103779Y-46979D01*
X103779Y-46979D02*
X104400Y-47600D01*
G54D27*
X100400Y-46100D02*
X100100Y-46100D01*
X100100Y-44100D02*
X100400Y-44100D01*
X99600Y-44600D02*
X100100Y-44100D01*
X100100Y-46100D02*
X99600Y-45600D01*
X104400Y-42600D02*
X104282Y-42600D01*
X104282Y-42600D02*
X103600Y-41918D01*
X103600Y-41918D02*
X103048Y-41366D01*
G54D26*
X103779Y-44332D02*
X103779Y-43220D01*
X103779Y-43220D02*
X104400Y-42600D01*
G54D27*
X94900Y-46000D02*
X90000Y-46000D01*
X90000Y-46000D02*
X89000Y-47000D01*
X89000Y-47000D02*
X87200Y-47000D01*
X87200Y-47000D02*
X86600Y-46400D01*
X86600Y-46400D02*
X86600Y-45600D01*
X87000Y-45200D02*
X87800Y-45200D01*
X86600Y-45600D02*
X87000Y-45200D01*
X98700Y-46500D02*
X95400Y-46500D01*
X95400Y-46500D02*
X94900Y-46000D01*
X100400Y-46100D02*
X99100Y-46100D01*
X99100Y-46100D02*
X98700Y-46500D01*
X98700Y-43800D02*
X100100Y-43800D01*
X100100Y-43800D02*
X100400Y-44100D01*
X109600Y-47700D02*
X109700Y-47700D01*
X109700Y-47700D02*
X110200Y-47200D01*
X110200Y-47200D02*
X110200Y-46200D01*
G54D26*
X105600Y-42600D02*
X105600Y-42800D01*
X106220Y-43420D02*
X106220Y-44332D01*
X105600Y-42800D02*
X106220Y-43420D01*
X106220Y-45867D02*
X106220Y-46979D01*
X106220Y-46979D02*
X105600Y-47600D01*
G54D27*
X87800Y-53200D02*
X87800Y-54500D01*
X85800Y-54600D02*
X86550Y-54600D01*
X86550Y-54600D02*
X86650Y-54500D01*
X86650Y-54500D02*
X87800Y-54500D01*
X76800Y-53200D02*
X76800Y-54500D01*
X76800Y-54500D02*
X75700Y-54500D01*
X75700Y-54500D02*
X75600Y-54600D01*
X75600Y-54600D02*
X74800Y-54600D01*
X109600Y-48700D02*
X109600Y-48800D01*
X110200Y-49400D02*
X110200Y-50200D01*
X109600Y-48800D02*
X110200Y-49400D01*
G54D10*
G36*
X110730Y-58730D02*
X65269Y-58730D01*
X65269Y-38269D01*
X110730Y-38269D01*
X110730Y-52609D01*
X110709Y-52577D01*
X110709Y-52000D01*
X110700Y-51954D01*
X110700Y-50650D01*
X110700Y-49650D01*
X110700Y-46650D01*
X110700Y-45749D01*
X110699Y-45650D01*
X110661Y-45558D01*
X110591Y-45487D01*
X110499Y-45449D01*
X110312Y-45450D01*
X110250Y-45512D01*
X110250Y-46150D01*
X110637Y-46150D01*
X110700Y-46087D01*
X110700Y-45749D01*
X110700Y-46650D01*
X110700Y-46312D01*
X110637Y-46250D01*
X110250Y-46250D01*
X110250Y-46887D01*
X110312Y-46950D01*
X110499Y-46950D01*
X110591Y-46912D01*
X110661Y-46841D01*
X110699Y-46749D01*
X110700Y-46650D01*
X110700Y-49650D01*
X110662Y-49558D01*
X110591Y-49488D01*
X110587Y-49486D01*
X110587Y-49400D01*
X110558Y-49251D01*
X110474Y-49125D01*
X110474Y-49125D01*
X110184Y-48836D01*
X110184Y-47788D01*
X110180Y-47689D01*
X110180Y-44585D01*
X110091Y-44371D01*
X109928Y-44208D01*
X109908Y-44200D01*
X109928Y-44191D01*
X110091Y-44028D01*
X110179Y-43815D01*
X110180Y-43585D01*
X110091Y-43371D01*
X109987Y-43267D01*
X109987Y-40800D01*
X109987Y-40799D01*
X109958Y-40651D01*
X109958Y-40651D01*
X109930Y-40609D01*
X109874Y-40525D01*
X109874Y-40525D01*
X109240Y-39891D01*
X109114Y-39807D01*
X108966Y-39778D01*
X103761Y-39778D01*
X103760Y-39774D01*
X103689Y-39704D01*
X103597Y-39666D01*
X103498Y-39665D01*
X102498Y-39665D01*
X102406Y-39703D01*
X102336Y-39774D01*
X102334Y-39778D01*
X97114Y-39778D01*
X96965Y-39807D01*
X96839Y-39891D01*
X94856Y-41874D01*
X94355Y-41874D01*
X94263Y-41912D01*
X94193Y-41983D01*
X94191Y-41987D01*
X92425Y-41987D01*
X92276Y-42016D01*
X92234Y-42044D01*
X92150Y-42100D01*
X88439Y-45812D01*
X88424Y-45812D01*
X88424Y-45298D01*
X88420Y-45190D01*
X88420Y-42077D01*
X88325Y-41849D01*
X88187Y-41710D01*
X88187Y-40190D01*
X88265Y-40111D01*
X88349Y-39909D01*
X88350Y-39691D01*
X88266Y-39488D01*
X88111Y-39334D01*
X87909Y-39250D01*
X87691Y-39249D01*
X87488Y-39333D01*
X87334Y-39488D01*
X87300Y-39569D01*
X87266Y-39488D01*
X87111Y-39334D01*
X86909Y-39250D01*
X86691Y-39249D01*
X86488Y-39333D01*
X86334Y-39488D01*
X86300Y-39569D01*
X86266Y-39488D01*
X86111Y-39334D01*
X85909Y-39250D01*
X85691Y-39249D01*
X85488Y-39333D01*
X85350Y-39472D01*
X85350Y-39450D01*
X85312Y-39358D01*
X85241Y-39288D01*
X85149Y-39250D01*
X85050Y-39249D01*
X84450Y-39249D01*
X84358Y-39287D01*
X84288Y-39358D01*
X84250Y-39450D01*
X84249Y-39549D01*
X84249Y-40149D01*
X84287Y-40241D01*
X84358Y-40311D01*
X84412Y-40334D01*
X84412Y-41711D01*
X84299Y-41823D01*
X84151Y-41674D01*
X83923Y-41580D01*
X83677Y-41579D01*
X83449Y-41674D01*
X83299Y-41823D01*
X83151Y-41674D01*
X82923Y-41580D01*
X82677Y-41579D01*
X82449Y-41674D01*
X82299Y-41823D01*
X82151Y-41674D01*
X81923Y-41580D01*
X81677Y-41579D01*
X81449Y-41674D01*
X81299Y-41823D01*
X81151Y-41674D01*
X80923Y-41580D01*
X80677Y-41579D01*
X80449Y-41674D01*
X80299Y-41823D01*
X80151Y-41674D01*
X79923Y-41580D01*
X79677Y-41579D01*
X79449Y-41674D01*
X79275Y-41847D01*
X79236Y-41834D01*
X79165Y-41904D01*
X79165Y-41763D01*
X79129Y-41660D01*
X78898Y-41575D01*
X78652Y-41585D01*
X78470Y-41660D01*
X78434Y-41763D01*
X78800Y-42129D01*
X79165Y-41763D01*
X79165Y-41904D01*
X78870Y-42200D01*
X79236Y-42565D01*
X79275Y-42552D01*
X79448Y-42725D01*
X79676Y-42819D01*
X79922Y-42820D01*
X80150Y-42725D01*
X80300Y-42576D01*
X80448Y-42725D01*
X80676Y-42819D01*
X80922Y-42820D01*
X81150Y-42725D01*
X81300Y-42576D01*
X81448Y-42725D01*
X81676Y-42819D01*
X81922Y-42820D01*
X82150Y-42725D01*
X82300Y-42576D01*
X82448Y-42725D01*
X82676Y-42819D01*
X82922Y-42820D01*
X83150Y-42725D01*
X83300Y-42576D01*
X83448Y-42725D01*
X83676Y-42819D01*
X83922Y-42820D01*
X84150Y-42725D01*
X84300Y-42576D01*
X84448Y-42725D01*
X84676Y-42819D01*
X84922Y-42820D01*
X85150Y-42725D01*
X85300Y-42576D01*
X85448Y-42725D01*
X85676Y-42819D01*
X85922Y-42820D01*
X86150Y-42725D01*
X86300Y-42576D01*
X86448Y-42725D01*
X86676Y-42819D01*
X86922Y-42820D01*
X87150Y-42725D01*
X87300Y-42576D01*
X87448Y-42725D01*
X87676Y-42819D01*
X87922Y-42820D01*
X88150Y-42725D01*
X88325Y-42551D01*
X88419Y-42323D01*
X88420Y-42077D01*
X88420Y-45190D01*
X88420Y-45188D01*
X88414Y-45052D01*
X88339Y-44870D01*
X88236Y-44834D01*
X88272Y-44798D01*
X88311Y-44782D01*
X88381Y-44711D01*
X88419Y-44619D01*
X88420Y-44520D01*
X88420Y-43780D01*
X88382Y-43688D01*
X88311Y-43618D01*
X88219Y-43580D01*
X88120Y-43579D01*
X87380Y-43579D01*
X87288Y-43617D01*
X87218Y-43688D01*
X87180Y-43780D01*
X87179Y-43879D01*
X87179Y-44619D01*
X87217Y-44711D01*
X87288Y-44781D01*
X87327Y-44798D01*
X87363Y-44834D01*
X87260Y-44870D01*
X87175Y-45101D01*
X87185Y-45347D01*
X87260Y-45529D01*
X87363Y-45565D01*
X87729Y-45200D01*
X87723Y-45194D01*
X87794Y-45123D01*
X87800Y-45129D01*
X87805Y-45123D01*
X87876Y-45194D01*
X87870Y-45200D01*
X88236Y-45565D01*
X88339Y-45529D01*
X88424Y-45298D01*
X88424Y-45812D01*
X88288Y-45812D01*
X88152Y-45675D01*
X88165Y-45636D01*
X87800Y-45270D01*
X87729Y-45341D01*
X87434Y-45636D01*
X87447Y-45675D01*
X87274Y-45848D01*
X87180Y-46076D01*
X87179Y-46322D01*
X87274Y-46550D01*
X87448Y-46725D01*
X87676Y-46819D01*
X87922Y-46820D01*
X88150Y-46725D01*
X88289Y-46587D01*
X88600Y-46587D01*
X88748Y-46558D01*
X88874Y-46474D01*
X92585Y-42762D01*
X94191Y-42762D01*
X94192Y-42766D01*
X94263Y-42836D01*
X94355Y-42874D01*
X94454Y-42875D01*
X95454Y-42875D01*
X95546Y-42837D01*
X95616Y-42766D01*
X95654Y-42674D01*
X95655Y-42575D01*
X95655Y-42173D01*
X97274Y-40553D01*
X102334Y-40553D01*
X102335Y-40557D01*
X102406Y-40627D01*
X102498Y-40665D01*
X102597Y-40666D01*
X103597Y-40666D01*
X103689Y-40628D01*
X103759Y-40557D01*
X103761Y-40553D01*
X108805Y-40553D01*
X109212Y-40960D01*
X109212Y-43267D01*
X109108Y-43371D01*
X109020Y-43584D01*
X109019Y-43814D01*
X109108Y-44028D01*
X109271Y-44191D01*
X109291Y-44199D01*
X109271Y-44208D01*
X109108Y-44371D01*
X109020Y-44584D01*
X109020Y-44631D01*
X108725Y-44925D01*
X108641Y-45051D01*
X108612Y-45200D01*
X108612Y-45486D01*
X108608Y-45487D01*
X108538Y-45558D01*
X108500Y-45650D01*
X108499Y-45749D01*
X108499Y-45812D01*
X108205Y-45812D01*
X108205Y-44905D01*
X108140Y-44749D01*
X108021Y-44629D01*
X107864Y-44565D01*
X107695Y-44564D01*
X107603Y-44603D01*
X107604Y-44598D01*
X107609Y-44575D01*
X107609Y-44575D01*
X107609Y-44575D01*
X107609Y-41292D01*
X107660Y-41241D01*
X107724Y-41084D01*
X107725Y-40915D01*
X107660Y-40759D01*
X107541Y-40639D01*
X107384Y-40575D01*
X107215Y-40574D01*
X107059Y-40639D01*
X106939Y-40758D01*
X106875Y-40915D01*
X106874Y-41037D01*
X106850Y-41012D01*
X106850Y-40940D01*
X106785Y-40784D01*
X106666Y-40664D01*
X106509Y-40600D01*
X106340Y-40599D01*
X106184Y-40664D01*
X106064Y-40783D01*
X106000Y-40940D01*
X105999Y-41109D01*
X106064Y-41265D01*
X106183Y-41385D01*
X106340Y-41449D01*
X106412Y-41449D01*
X106440Y-41478D01*
X106440Y-43204D01*
X106439Y-43201D01*
X106439Y-43201D01*
X106100Y-42862D01*
X106100Y-42050D01*
X106062Y-41958D01*
X105991Y-41888D01*
X105899Y-41850D01*
X105800Y-41849D01*
X105300Y-41849D01*
X105208Y-41887D01*
X105138Y-41958D01*
X105100Y-42050D01*
X105099Y-42149D01*
X105099Y-43149D01*
X105137Y-43241D01*
X105208Y-43311D01*
X105300Y-43349D01*
X105399Y-43350D01*
X105712Y-43350D01*
X105911Y-43548D01*
X105911Y-44041D01*
X105872Y-44057D01*
X105801Y-44127D01*
X105763Y-44219D01*
X105763Y-44318D01*
X105763Y-44444D01*
X105770Y-44460D01*
X105763Y-44475D01*
X105763Y-44574D01*
X105763Y-44700D01*
X105770Y-44716D01*
X105763Y-44731D01*
X105763Y-44830D01*
X105763Y-44956D01*
X105770Y-44971D01*
X105763Y-44987D01*
X105763Y-45086D01*
X105763Y-45212D01*
X105770Y-45227D01*
X105763Y-45242D01*
X105763Y-45342D01*
X105763Y-45468D01*
X105770Y-45483D01*
X105763Y-45498D01*
X105763Y-45598D01*
X105763Y-45724D01*
X105770Y-45739D01*
X105763Y-45754D01*
X105763Y-45854D01*
X105763Y-45980D01*
X105801Y-46072D01*
X105871Y-46142D01*
X105911Y-46158D01*
X105911Y-46851D01*
X105909Y-46853D01*
X105899Y-46850D01*
X105800Y-46849D01*
X105300Y-46849D01*
X105208Y-46887D01*
X105138Y-46958D01*
X105100Y-47050D01*
X105099Y-47149D01*
X105099Y-48149D01*
X105137Y-48241D01*
X105208Y-48311D01*
X105300Y-48349D01*
X105399Y-48350D01*
X105899Y-48350D01*
X105991Y-48312D01*
X106061Y-48241D01*
X106099Y-48149D01*
X106100Y-48050D01*
X106100Y-47537D01*
X106439Y-47198D01*
X106439Y-47198D01*
X106439Y-47198D01*
X106506Y-47097D01*
X106506Y-47097D01*
X106529Y-46979D01*
X106529Y-46158D01*
X106568Y-46142D01*
X106638Y-46072D01*
X106677Y-45980D01*
X106677Y-45920D01*
X107158Y-45920D01*
X107276Y-45897D01*
X107276Y-45897D01*
X107376Y-45830D01*
X107792Y-45415D01*
X107864Y-45415D01*
X108020Y-45350D01*
X108140Y-45231D01*
X108204Y-45074D01*
X108205Y-44905D01*
X108205Y-45812D01*
X107800Y-45812D01*
X107651Y-45841D01*
X107525Y-45925D01*
X106925Y-46525D01*
X106841Y-46651D01*
X106812Y-46800D01*
X106812Y-47839D01*
X106239Y-48412D01*
X105000Y-48412D01*
X104900Y-48432D01*
X104900Y-48050D01*
X104900Y-47149D01*
X104900Y-43050D01*
X104900Y-42149D01*
X104899Y-42050D01*
X104861Y-41958D01*
X104791Y-41887D01*
X104699Y-41849D01*
X104512Y-41850D01*
X104450Y-41912D01*
X104450Y-42550D01*
X104837Y-42550D01*
X104900Y-42487D01*
X104900Y-42149D01*
X104900Y-43050D01*
X104900Y-42712D01*
X104837Y-42650D01*
X104450Y-42650D01*
X104450Y-43287D01*
X104512Y-43350D01*
X104699Y-43350D01*
X104791Y-43312D01*
X104861Y-43241D01*
X104899Y-43149D01*
X104900Y-43050D01*
X104900Y-47149D01*
X104899Y-47050D01*
X104861Y-46958D01*
X104791Y-46887D01*
X104699Y-46849D01*
X104512Y-46850D01*
X104450Y-46912D01*
X104450Y-47550D01*
X104837Y-47550D01*
X104900Y-47487D01*
X104900Y-47149D01*
X104900Y-48050D01*
X104900Y-47712D01*
X104837Y-47650D01*
X104450Y-47650D01*
X104450Y-48287D01*
X104512Y-48350D01*
X104699Y-48350D01*
X104791Y-48312D01*
X104861Y-48241D01*
X104899Y-48149D01*
X104900Y-48050D01*
X104900Y-48432D01*
X104851Y-48441D01*
X104725Y-48525D01*
X104725Y-48525D01*
X104725Y-48525D01*
X104439Y-48812D01*
X104350Y-48812D01*
X104350Y-48287D01*
X104350Y-47650D01*
X104350Y-47550D01*
X104350Y-46912D01*
X104350Y-43287D01*
X104350Y-42650D01*
X104350Y-42550D01*
X104350Y-41912D01*
X104287Y-41850D01*
X104100Y-41849D01*
X104008Y-41887D01*
X103938Y-41958D01*
X103900Y-42050D01*
X103899Y-42149D01*
X103900Y-42487D01*
X103962Y-42550D01*
X104350Y-42550D01*
X104350Y-42650D01*
X103962Y-42650D01*
X103900Y-42712D01*
X103899Y-43050D01*
X103900Y-43149D01*
X103938Y-43241D01*
X104008Y-43312D01*
X104100Y-43350D01*
X104287Y-43350D01*
X104350Y-43287D01*
X104350Y-46912D01*
X104287Y-46850D01*
X104100Y-46849D01*
X104008Y-46887D01*
X103938Y-46958D01*
X103900Y-47050D01*
X103899Y-47149D01*
X103900Y-47487D01*
X103962Y-47550D01*
X104350Y-47550D01*
X104350Y-47650D01*
X103962Y-47650D01*
X103900Y-47712D01*
X103899Y-48050D01*
X103900Y-48149D01*
X103938Y-48241D01*
X104008Y-48312D01*
X104100Y-48350D01*
X104287Y-48350D01*
X104350Y-48287D01*
X104350Y-48812D01*
X101991Y-48812D01*
X101991Y-48812D01*
X102061Y-48741D01*
X102099Y-48649D01*
X102100Y-48550D01*
X102100Y-47550D01*
X102062Y-47458D01*
X101991Y-47388D01*
X101978Y-47382D01*
X103339Y-46021D01*
X103360Y-46072D01*
X103431Y-46142D01*
X103522Y-46180D01*
X103622Y-46180D01*
X103667Y-46180D01*
X103729Y-46118D01*
X103729Y-45924D01*
X103829Y-45924D01*
X103829Y-46118D01*
X103892Y-46180D01*
X103936Y-46180D01*
X104036Y-46180D01*
X104128Y-46142D01*
X104198Y-46072D01*
X104236Y-45980D01*
X104236Y-45961D01*
X104173Y-45899D01*
X104097Y-45899D01*
X104127Y-45886D01*
X104198Y-45816D01*
X104201Y-45808D01*
X104236Y-45773D01*
X104236Y-45755D01*
X104229Y-45739D01*
X104236Y-45724D01*
X104236Y-45625D01*
X104236Y-45499D01*
X104229Y-45483D01*
X104236Y-45468D01*
X104236Y-45369D01*
X104236Y-45243D01*
X104229Y-45228D01*
X104236Y-45212D01*
X104236Y-45113D01*
X104236Y-44987D01*
X104229Y-44972D01*
X104236Y-44957D01*
X104236Y-44857D01*
X104236Y-44731D01*
X104229Y-44716D01*
X104236Y-44701D01*
X104236Y-44601D01*
X104236Y-44475D01*
X104229Y-44460D01*
X104236Y-44444D01*
X104236Y-44426D01*
X104201Y-44391D01*
X104198Y-44383D01*
X104128Y-44313D01*
X104097Y-44300D01*
X104173Y-44300D01*
X104236Y-44238D01*
X104236Y-44219D01*
X104198Y-44127D01*
X104128Y-44057D01*
X104036Y-44019D01*
X103936Y-44019D01*
X103892Y-44019D01*
X103829Y-44081D01*
X103829Y-44275D01*
X103798Y-44275D01*
X103798Y-41665D01*
X103798Y-41066D01*
X103760Y-40974D01*
X103689Y-40904D01*
X103597Y-40866D01*
X103498Y-40865D01*
X103160Y-40866D01*
X103098Y-40928D01*
X103098Y-41316D01*
X103735Y-41316D01*
X103798Y-41253D01*
X103798Y-41066D01*
X103798Y-41665D01*
X103798Y-41478D01*
X103735Y-41416D01*
X103098Y-41416D01*
X103098Y-41803D01*
X103160Y-41866D01*
X103498Y-41866D01*
X103597Y-41865D01*
X103689Y-41827D01*
X103760Y-41757D01*
X103798Y-41665D01*
X103798Y-44275D01*
X103729Y-44275D01*
X103729Y-44081D01*
X103667Y-44019D01*
X103622Y-44019D01*
X103522Y-44019D01*
X103431Y-44057D01*
X103360Y-44127D01*
X103339Y-44178D01*
X102998Y-43837D01*
X102998Y-41803D01*
X102998Y-41416D01*
X102998Y-41316D01*
X102998Y-40928D01*
X102935Y-40866D01*
X102597Y-40865D01*
X102498Y-40866D01*
X102406Y-40904D01*
X102335Y-40974D01*
X102297Y-41066D01*
X102298Y-41253D01*
X102360Y-41316D01*
X102998Y-41316D01*
X102998Y-41416D01*
X102360Y-41416D01*
X102298Y-41478D01*
X102297Y-41665D01*
X102335Y-41757D01*
X102406Y-41827D01*
X102498Y-41865D01*
X102597Y-41866D01*
X102935Y-41866D01*
X102998Y-41803D01*
X102998Y-43837D01*
X102032Y-42871D01*
X102061Y-42841D01*
X102099Y-42749D01*
X102100Y-42650D01*
X102100Y-41650D01*
X102062Y-41558D01*
X101991Y-41488D01*
X101899Y-41450D01*
X101800Y-41449D01*
X101300Y-41449D01*
X101208Y-41487D01*
X101138Y-41558D01*
X101100Y-41650D01*
X101099Y-41749D01*
X101099Y-42749D01*
X101137Y-42841D01*
X101208Y-42911D01*
X101300Y-42949D01*
X101305Y-42949D01*
X101314Y-42994D01*
X101381Y-43094D01*
X101636Y-43349D01*
X101300Y-43349D01*
X101208Y-43387D01*
X101138Y-43458D01*
X101100Y-43550D01*
X101099Y-43649D01*
X101099Y-44649D01*
X101137Y-44741D01*
X101187Y-44790D01*
X100812Y-44790D01*
X100861Y-44741D01*
X100899Y-44649D01*
X100900Y-44550D01*
X100900Y-43649D01*
X100900Y-42650D01*
X100900Y-41650D01*
X100862Y-41558D01*
X100791Y-41488D01*
X100699Y-41450D01*
X100600Y-41449D01*
X100100Y-41449D01*
X100008Y-41487D01*
X99938Y-41558D01*
X99900Y-41650D01*
X99899Y-41749D01*
X99899Y-41979D01*
X99887Y-41987D01*
X99584Y-42290D01*
X99446Y-42290D01*
X99412Y-42208D01*
X99341Y-42138D01*
X99249Y-42100D01*
X99150Y-42099D01*
X98150Y-42099D01*
X98058Y-42137D01*
X97988Y-42208D01*
X97986Y-42212D01*
X97574Y-42212D01*
X97484Y-42175D01*
X97315Y-42174D01*
X97159Y-42239D01*
X97039Y-42358D01*
X96975Y-42515D01*
X96974Y-42684D01*
X97039Y-42840D01*
X97158Y-42960D01*
X97315Y-43024D01*
X97484Y-43025D01*
X97574Y-42987D01*
X97986Y-42987D01*
X97987Y-42991D01*
X98058Y-43061D01*
X98150Y-43099D01*
X98249Y-43100D01*
X99249Y-43100D01*
X99341Y-43062D01*
X99411Y-42991D01*
X99446Y-42909D01*
X99700Y-42909D01*
X99818Y-42885D01*
X99918Y-42818D01*
X99924Y-42809D01*
X99937Y-42841D01*
X100008Y-42911D01*
X100100Y-42949D01*
X100199Y-42950D01*
X100699Y-42950D01*
X100791Y-42912D01*
X100861Y-42841D01*
X100899Y-42749D01*
X100900Y-42650D01*
X100900Y-43649D01*
X100899Y-43550D01*
X100861Y-43458D01*
X100791Y-43387D01*
X100699Y-43349D01*
X100512Y-43350D01*
X100450Y-43412D01*
X100450Y-44050D01*
X100837Y-44050D01*
X100900Y-43987D01*
X100900Y-43649D01*
X100900Y-44550D01*
X100900Y-44212D01*
X100837Y-44150D01*
X100450Y-44150D01*
X100450Y-44157D01*
X100350Y-44157D01*
X100350Y-44150D01*
X100350Y-44050D01*
X100350Y-43412D01*
X100287Y-43350D01*
X100100Y-43349D01*
X100008Y-43387D01*
X99938Y-43458D01*
X99900Y-43550D01*
X99899Y-43649D01*
X99900Y-43987D01*
X99962Y-44050D01*
X100350Y-44050D01*
X100350Y-44150D01*
X99962Y-44150D01*
X99900Y-44212D01*
X99899Y-44550D01*
X99900Y-44649D01*
X99938Y-44741D01*
X99987Y-44790D01*
X99450Y-44790D01*
X99450Y-44099D01*
X99450Y-43500D01*
X99412Y-43408D01*
X99341Y-43338D01*
X99249Y-43300D01*
X99150Y-43299D01*
X98812Y-43300D01*
X98750Y-43362D01*
X98750Y-43750D01*
X99387Y-43750D01*
X99450Y-43687D01*
X99450Y-43500D01*
X99450Y-44099D01*
X99450Y-43912D01*
X99387Y-43850D01*
X98750Y-43850D01*
X98750Y-44237D01*
X98812Y-44300D01*
X99150Y-44300D01*
X99249Y-44299D01*
X99341Y-44261D01*
X99412Y-44191D01*
X99450Y-44099D01*
X99450Y-44790D01*
X98650Y-44790D01*
X98650Y-44237D01*
X98650Y-43850D01*
X98650Y-43750D01*
X98650Y-43362D01*
X98587Y-43300D01*
X98249Y-43299D01*
X98150Y-43300D01*
X98058Y-43338D01*
X97987Y-43408D01*
X97949Y-43500D01*
X97950Y-43687D01*
X98012Y-43750D01*
X98650Y-43750D01*
X98650Y-43850D01*
X98012Y-43850D01*
X97950Y-43912D01*
X97949Y-44099D01*
X97987Y-44191D01*
X98058Y-44261D01*
X98150Y-44299D01*
X98249Y-44300D01*
X98587Y-44300D01*
X98650Y-44237D01*
X98650Y-44790D01*
X97475Y-44790D01*
X97469Y-44790D01*
X96146Y-44790D01*
X95936Y-44581D01*
X95836Y-44514D01*
X95718Y-44490D01*
X95646Y-44490D01*
X95612Y-44408D01*
X95541Y-44338D01*
X95449Y-44300D01*
X95350Y-44299D01*
X95287Y-44299D01*
X95287Y-44075D01*
X95454Y-44075D01*
X95546Y-44037D01*
X95616Y-43966D01*
X95654Y-43874D01*
X95655Y-43775D01*
X95655Y-43275D01*
X95617Y-43183D01*
X95546Y-43113D01*
X95454Y-43075D01*
X95355Y-43074D01*
X94355Y-43074D01*
X94263Y-43112D01*
X94193Y-43183D01*
X94155Y-43275D01*
X94154Y-43374D01*
X94154Y-43874D01*
X94192Y-43966D01*
X94263Y-44036D01*
X94355Y-44074D01*
X94454Y-44075D01*
X94512Y-44075D01*
X94512Y-44299D01*
X94350Y-44299D01*
X94258Y-44337D01*
X94188Y-44408D01*
X94150Y-44500D01*
X94149Y-44599D01*
X94149Y-45099D01*
X94187Y-45191D01*
X94258Y-45261D01*
X94350Y-45299D01*
X94449Y-45300D01*
X95449Y-45300D01*
X95541Y-45262D01*
X95611Y-45191D01*
X95629Y-45148D01*
X95799Y-45318D01*
X95799Y-45318D01*
X95899Y-45385D01*
X95899Y-45385D01*
X95994Y-45404D01*
X96017Y-45409D01*
X96017Y-45409D01*
X96018Y-45409D01*
X97469Y-45409D01*
X97475Y-45409D01*
X99987Y-45409D01*
X99938Y-45458D01*
X99900Y-45550D01*
X99899Y-45649D01*
X99900Y-45987D01*
X99962Y-46050D01*
X100350Y-46050D01*
X100350Y-46042D01*
X100450Y-46042D01*
X100450Y-46050D01*
X100837Y-46050D01*
X100900Y-45987D01*
X100900Y-45649D01*
X100899Y-45550D01*
X100861Y-45458D01*
X100812Y-45409D01*
X101187Y-45409D01*
X101138Y-45458D01*
X101100Y-45550D01*
X101099Y-45649D01*
X101099Y-46649D01*
X101137Y-46741D01*
X101208Y-46811D01*
X101300Y-46849D01*
X101399Y-46850D01*
X101636Y-46850D01*
X101381Y-47105D01*
X101314Y-47205D01*
X101290Y-47323D01*
X101290Y-47353D01*
X101208Y-47387D01*
X101138Y-47458D01*
X101100Y-47550D01*
X101099Y-47649D01*
X101099Y-48649D01*
X101137Y-48741D01*
X101208Y-48811D01*
X101209Y-48812D01*
X100960Y-48812D01*
X100870Y-48721D01*
X100899Y-48649D01*
X100900Y-48550D01*
X100900Y-47550D01*
X100900Y-46550D01*
X100900Y-46212D01*
X100837Y-46150D01*
X100450Y-46150D01*
X100450Y-46787D01*
X100512Y-46850D01*
X100699Y-46850D01*
X100791Y-46812D01*
X100861Y-46741D01*
X100899Y-46649D01*
X100900Y-46550D01*
X100900Y-47550D01*
X100862Y-47458D01*
X100791Y-47388D01*
X100699Y-47350D01*
X100600Y-47349D01*
X100350Y-47349D01*
X100350Y-46787D01*
X100350Y-46150D01*
X99962Y-46150D01*
X99900Y-46212D01*
X99899Y-46550D01*
X99900Y-46649D01*
X99938Y-46741D01*
X100008Y-46812D01*
X100100Y-46850D01*
X100287Y-46850D01*
X100350Y-46787D01*
X100350Y-47349D01*
X100100Y-47349D01*
X100008Y-47387D01*
X99938Y-47458D01*
X99900Y-47550D01*
X99900Y-47562D01*
X99818Y-47481D01*
X99718Y-47414D01*
X99600Y-47390D01*
X99450Y-47390D01*
X99450Y-46799D01*
X99450Y-46200D01*
X99412Y-46108D01*
X99341Y-46038D01*
X99249Y-46000D01*
X99150Y-45999D01*
X98812Y-46000D01*
X98750Y-46062D01*
X98750Y-46450D01*
X99387Y-46450D01*
X99450Y-46387D01*
X99450Y-46200D01*
X99450Y-46799D01*
X99450Y-46612D01*
X99387Y-46550D01*
X98750Y-46550D01*
X98750Y-46937D01*
X98812Y-47000D01*
X99150Y-47000D01*
X99249Y-46999D01*
X99341Y-46961D01*
X99412Y-46891D01*
X99450Y-46799D01*
X99450Y-47390D01*
X99446Y-47390D01*
X99412Y-47308D01*
X99341Y-47238D01*
X99249Y-47200D01*
X99150Y-47199D01*
X98650Y-47199D01*
X98650Y-46937D01*
X98650Y-46550D01*
X98650Y-46450D01*
X98650Y-46062D01*
X98587Y-46000D01*
X98249Y-45999D01*
X98150Y-46000D01*
X98058Y-46038D01*
X97987Y-46108D01*
X97949Y-46200D01*
X97950Y-46387D01*
X98012Y-46450D01*
X98650Y-46450D01*
X98650Y-46550D01*
X98012Y-46550D01*
X97950Y-46612D01*
X97949Y-46799D01*
X97987Y-46891D01*
X98058Y-46961D01*
X98150Y-46999D01*
X98249Y-47000D01*
X98587Y-47000D01*
X98650Y-46937D01*
X98650Y-47199D01*
X98150Y-47199D01*
X98058Y-47237D01*
X97988Y-47308D01*
X97950Y-47400D01*
X97949Y-47499D01*
X97949Y-47999D01*
X97987Y-48091D01*
X98058Y-48161D01*
X98150Y-48199D01*
X98249Y-48200D01*
X99249Y-48200D01*
X99341Y-48162D01*
X99411Y-48091D01*
X99446Y-48009D01*
X99471Y-48009D01*
X99781Y-48318D01*
X99781Y-48318D01*
X99881Y-48385D01*
X99881Y-48385D01*
X99899Y-48389D01*
X99899Y-48649D01*
X99937Y-48741D01*
X100008Y-48811D01*
X100015Y-48814D01*
X100041Y-48948D01*
X100125Y-49074D01*
X100142Y-49090D01*
X99822Y-49090D01*
X99824Y-49084D01*
X99825Y-48915D01*
X99760Y-48759D01*
X99641Y-48639D01*
X99484Y-48575D01*
X99315Y-48574D01*
X99159Y-48639D01*
X99108Y-48690D01*
X95650Y-48690D01*
X95650Y-46299D01*
X95650Y-45700D01*
X95612Y-45608D01*
X95541Y-45538D01*
X95449Y-45500D01*
X95350Y-45499D01*
X95012Y-45500D01*
X94950Y-45562D01*
X94950Y-45950D01*
X95587Y-45950D01*
X95650Y-45887D01*
X95650Y-45700D01*
X95650Y-46299D01*
X95650Y-46112D01*
X95587Y-46050D01*
X94950Y-46050D01*
X94950Y-46437D01*
X95012Y-46500D01*
X95350Y-46500D01*
X95449Y-46499D01*
X95541Y-46461D01*
X95612Y-46391D01*
X95650Y-46299D01*
X95650Y-48690D01*
X94850Y-48690D01*
X94850Y-46437D01*
X94850Y-46050D01*
X94850Y-45950D01*
X94850Y-45562D01*
X94787Y-45500D01*
X94449Y-45499D01*
X94350Y-45500D01*
X94258Y-45538D01*
X94187Y-45608D01*
X94149Y-45700D01*
X94150Y-45887D01*
X94212Y-45950D01*
X94850Y-45950D01*
X94850Y-46050D01*
X94212Y-46050D01*
X94150Y-46112D01*
X94149Y-46299D01*
X94187Y-46391D01*
X94258Y-46461D01*
X94350Y-46499D01*
X94449Y-46500D01*
X94787Y-46500D01*
X94850Y-46437D01*
X94850Y-48690D01*
X88185Y-48690D01*
X88325Y-48551D01*
X88419Y-48323D01*
X88420Y-48077D01*
X88325Y-47849D01*
X88151Y-47674D01*
X87923Y-47580D01*
X87677Y-47579D01*
X87449Y-47674D01*
X87299Y-47823D01*
X87151Y-47674D01*
X86923Y-47580D01*
X86677Y-47579D01*
X86449Y-47674D01*
X86299Y-47823D01*
X86151Y-47674D01*
X85923Y-47580D01*
X85677Y-47579D01*
X85449Y-47674D01*
X85420Y-47703D01*
X85420Y-46077D01*
X85325Y-45849D01*
X85176Y-45699D01*
X85325Y-45551D01*
X85419Y-45323D01*
X85420Y-45077D01*
X85325Y-44849D01*
X85176Y-44699D01*
X85325Y-44551D01*
X85419Y-44323D01*
X85420Y-44077D01*
X85325Y-43849D01*
X85151Y-43674D01*
X84923Y-43580D01*
X84677Y-43579D01*
X84449Y-43674D01*
X84299Y-43823D01*
X84151Y-43674D01*
X83923Y-43580D01*
X83677Y-43579D01*
X83449Y-43674D01*
X83299Y-43823D01*
X83151Y-43674D01*
X82923Y-43580D01*
X82677Y-43579D01*
X82449Y-43674D01*
X82299Y-43823D01*
X82151Y-43674D01*
X81923Y-43580D01*
X81677Y-43579D01*
X81449Y-43674D01*
X81274Y-43848D01*
X81180Y-44076D01*
X81179Y-44322D01*
X81274Y-44550D01*
X81423Y-44700D01*
X81274Y-44848D01*
X81180Y-45076D01*
X81179Y-45322D01*
X81274Y-45550D01*
X81448Y-45725D01*
X81676Y-45819D01*
X81922Y-45820D01*
X82150Y-45725D01*
X82300Y-45576D01*
X82448Y-45725D01*
X82676Y-45819D01*
X82922Y-45820D01*
X83150Y-45725D01*
X83300Y-45576D01*
X83448Y-45725D01*
X83676Y-45819D01*
X83922Y-45820D01*
X84150Y-45725D01*
X84300Y-45576D01*
X84423Y-45700D01*
X84274Y-45848D01*
X84180Y-46076D01*
X84179Y-46322D01*
X84274Y-46550D01*
X84448Y-46725D01*
X84676Y-46819D01*
X84922Y-46820D01*
X85150Y-46725D01*
X85325Y-46551D01*
X85419Y-46323D01*
X85420Y-46077D01*
X85420Y-47703D01*
X85299Y-47823D01*
X85151Y-47674D01*
X84923Y-47580D01*
X84677Y-47579D01*
X84449Y-47674D01*
X84299Y-47823D01*
X84151Y-47674D01*
X83923Y-47580D01*
X83677Y-47579D01*
X83449Y-47674D01*
X83299Y-47823D01*
X83151Y-47674D01*
X82923Y-47580D01*
X82677Y-47579D01*
X82449Y-47674D01*
X82299Y-47823D01*
X82151Y-47674D01*
X81923Y-47580D01*
X81677Y-47579D01*
X81449Y-47674D01*
X81299Y-47823D01*
X81151Y-47674D01*
X80923Y-47580D01*
X80677Y-47579D01*
X80449Y-47674D01*
X80299Y-47823D01*
X80151Y-47674D01*
X79923Y-47580D01*
X79677Y-47579D01*
X79449Y-47674D01*
X79299Y-47823D01*
X79165Y-47688D01*
X79165Y-42636D01*
X78800Y-42270D01*
X78434Y-42636D01*
X78470Y-42739D01*
X78701Y-42824D01*
X78947Y-42814D01*
X79129Y-42739D01*
X79165Y-42636D01*
X79165Y-47688D01*
X79151Y-47674D01*
X78923Y-47580D01*
X78677Y-47579D01*
X78449Y-47674D01*
X78299Y-47823D01*
X78151Y-47674D01*
X77923Y-47580D01*
X77677Y-47579D01*
X77449Y-47674D01*
X77299Y-47823D01*
X77151Y-47674D01*
X76923Y-47580D01*
X76677Y-47579D01*
X76449Y-47674D01*
X76299Y-47823D01*
X76151Y-47674D01*
X75923Y-47580D01*
X75677Y-47579D01*
X75449Y-47674D01*
X75299Y-47823D01*
X75160Y-47683D01*
X75160Y-45468D01*
X75090Y-45299D01*
X75159Y-45131D01*
X75160Y-44948D01*
X75090Y-44779D01*
X74960Y-44650D01*
X74791Y-44580D01*
X74608Y-44579D01*
X74439Y-44649D01*
X74310Y-44779D01*
X74240Y-44948D01*
X74239Y-45131D01*
X74309Y-45300D01*
X74240Y-45468D01*
X74239Y-45651D01*
X74309Y-45820D01*
X74439Y-45949D01*
X74608Y-46019D01*
X74791Y-46020D01*
X74960Y-45950D01*
X75089Y-45820D01*
X75159Y-45651D01*
X75160Y-45468D01*
X75160Y-47683D01*
X75151Y-47674D01*
X74923Y-47580D01*
X74677Y-47579D01*
X74449Y-47674D01*
X74299Y-47823D01*
X74151Y-47674D01*
X73923Y-47580D01*
X73677Y-47579D01*
X73449Y-47674D01*
X73299Y-47823D01*
X73151Y-47674D01*
X72923Y-47580D01*
X72677Y-47579D01*
X72449Y-47674D01*
X72299Y-47823D01*
X72151Y-47674D01*
X71923Y-47580D01*
X71677Y-47579D01*
X71449Y-47674D01*
X71299Y-47823D01*
X71151Y-47674D01*
X70923Y-47580D01*
X70677Y-47579D01*
X70449Y-47674D01*
X70299Y-47823D01*
X70151Y-47674D01*
X69923Y-47580D01*
X69677Y-47579D01*
X69449Y-47674D01*
X69397Y-47725D01*
X69381Y-47688D01*
X69311Y-47617D01*
X69219Y-47579D01*
X68912Y-47580D01*
X68850Y-47642D01*
X68850Y-48150D01*
X68857Y-48150D01*
X68857Y-48250D01*
X68850Y-48250D01*
X68850Y-48757D01*
X68912Y-48820D01*
X69219Y-48820D01*
X69311Y-48782D01*
X69381Y-48711D01*
X69397Y-48674D01*
X69448Y-48725D01*
X69676Y-48819D01*
X69922Y-48820D01*
X70150Y-48725D01*
X70300Y-48576D01*
X70448Y-48725D01*
X70490Y-48742D01*
X70490Y-49000D01*
X70514Y-49118D01*
X70581Y-49218D01*
X72281Y-50918D01*
X72381Y-50985D01*
X72381Y-50985D01*
X72500Y-51009D01*
X94799Y-51009D01*
X94799Y-51249D01*
X94837Y-51341D01*
X94908Y-51411D01*
X94912Y-51413D01*
X94912Y-51600D01*
X94941Y-51748D01*
X95025Y-51874D01*
X95492Y-52341D01*
X95492Y-52341D01*
X95508Y-52351D01*
X95508Y-52351D01*
X95530Y-52405D01*
X95600Y-52475D01*
X95625Y-52485D01*
X95317Y-52485D01*
X95226Y-52523D01*
X95155Y-52594D01*
X95117Y-52686D01*
X95117Y-52785D01*
X95117Y-52792D01*
X95025Y-52883D01*
X94941Y-53009D01*
X94912Y-53158D01*
X94912Y-53586D01*
X94908Y-53587D01*
X94838Y-53658D01*
X94800Y-53750D01*
X94799Y-53849D01*
X94799Y-54849D01*
X94837Y-54941D01*
X94908Y-55011D01*
X94912Y-55013D01*
X94912Y-55639D01*
X94439Y-56112D01*
X90491Y-56112D01*
X90511Y-56091D01*
X90514Y-56084D01*
X90648Y-56058D01*
X90774Y-55974D01*
X91150Y-55597D01*
X91240Y-55560D01*
X91360Y-55441D01*
X91424Y-55284D01*
X91425Y-55115D01*
X91360Y-54959D01*
X91241Y-54839D01*
X91084Y-54775D01*
X90915Y-54774D01*
X90759Y-54839D01*
X90639Y-54958D01*
X90602Y-55049D01*
X90550Y-55101D01*
X90550Y-54799D01*
X90550Y-54200D01*
X90512Y-54108D01*
X90441Y-54038D01*
X90349Y-54000D01*
X90250Y-53999D01*
X89912Y-54000D01*
X89850Y-54062D01*
X89850Y-54450D01*
X90487Y-54450D01*
X90550Y-54387D01*
X90550Y-54200D01*
X90550Y-54799D01*
X90550Y-54612D01*
X90487Y-54550D01*
X89850Y-54550D01*
X89850Y-54937D01*
X89912Y-55000D01*
X90250Y-55000D01*
X90349Y-54999D01*
X90441Y-54961D01*
X90512Y-54891D01*
X90550Y-54799D01*
X90550Y-55101D01*
X90421Y-55229D01*
X90349Y-55200D01*
X90250Y-55199D01*
X89750Y-55199D01*
X89750Y-54937D01*
X89750Y-54550D01*
X89750Y-54450D01*
X89750Y-54062D01*
X89687Y-54000D01*
X89349Y-53999D01*
X89250Y-54000D01*
X89158Y-54038D01*
X89087Y-54108D01*
X89049Y-54200D01*
X89050Y-54387D01*
X89112Y-54450D01*
X89750Y-54450D01*
X89750Y-54550D01*
X89112Y-54550D01*
X89050Y-54612D01*
X89049Y-54799D01*
X89087Y-54891D01*
X89158Y-54961D01*
X89250Y-54999D01*
X89349Y-55000D01*
X89687Y-55000D01*
X89750Y-54937D01*
X89750Y-55199D01*
X89250Y-55199D01*
X89158Y-55237D01*
X89088Y-55308D01*
X89086Y-55312D01*
X88513Y-55312D01*
X88512Y-55308D01*
X88441Y-55238D01*
X88349Y-55200D01*
X88250Y-55199D01*
X87250Y-55199D01*
X87158Y-55237D01*
X87088Y-55308D01*
X87086Y-55312D01*
X85913Y-55312D01*
X85844Y-55243D01*
X85977Y-55243D01*
X86069Y-55205D01*
X86139Y-55135D01*
X86177Y-55043D01*
X86177Y-54987D01*
X86550Y-54987D01*
X86698Y-54958D01*
X86803Y-54887D01*
X87086Y-54887D01*
X87087Y-54891D01*
X87158Y-54961D01*
X87250Y-54999D01*
X87349Y-55000D01*
X88349Y-55000D01*
X88441Y-54962D01*
X88511Y-54891D01*
X88549Y-54799D01*
X88550Y-54700D01*
X88550Y-54200D01*
X88512Y-54108D01*
X88441Y-54038D01*
X88349Y-54000D01*
X88250Y-53999D01*
X88187Y-53999D01*
X88187Y-53700D01*
X88349Y-53700D01*
X88441Y-53662D01*
X88511Y-53591D01*
X88549Y-53499D01*
X88550Y-53400D01*
X88550Y-52900D01*
X88550Y-52299D01*
X88550Y-51700D01*
X88512Y-51608D01*
X88441Y-51538D01*
X88349Y-51500D01*
X88250Y-51499D01*
X87912Y-51500D01*
X87850Y-51562D01*
X87850Y-51950D01*
X88487Y-51950D01*
X88550Y-51887D01*
X88550Y-51700D01*
X88550Y-52299D01*
X88550Y-52112D01*
X88487Y-52050D01*
X87850Y-52050D01*
X87850Y-52437D01*
X87912Y-52500D01*
X88250Y-52500D01*
X88349Y-52499D01*
X88441Y-52461D01*
X88512Y-52391D01*
X88550Y-52299D01*
X88550Y-52900D01*
X88512Y-52808D01*
X88441Y-52738D01*
X88349Y-52700D01*
X88250Y-52699D01*
X87750Y-52699D01*
X87750Y-52437D01*
X87750Y-52050D01*
X87750Y-51950D01*
X87750Y-51562D01*
X87687Y-51500D01*
X87349Y-51499D01*
X87250Y-51500D01*
X87158Y-51538D01*
X87087Y-51608D01*
X87049Y-51700D01*
X87050Y-51887D01*
X87112Y-51950D01*
X87750Y-51950D01*
X87750Y-52050D01*
X87112Y-52050D01*
X87050Y-52112D01*
X87049Y-52299D01*
X87087Y-52391D01*
X87158Y-52461D01*
X87250Y-52499D01*
X87349Y-52500D01*
X87687Y-52500D01*
X87750Y-52437D01*
X87750Y-52699D01*
X87250Y-52699D01*
X87158Y-52737D01*
X87088Y-52808D01*
X87050Y-52900D01*
X87049Y-52999D01*
X87049Y-53499D01*
X87087Y-53591D01*
X87158Y-53661D01*
X87250Y-53699D01*
X87349Y-53700D01*
X87412Y-53700D01*
X87412Y-53999D01*
X87250Y-53999D01*
X87158Y-54037D01*
X87088Y-54108D01*
X87086Y-54112D01*
X86650Y-54112D01*
X86501Y-54141D01*
X86396Y-54212D01*
X86177Y-54212D01*
X86177Y-54156D01*
X86140Y-54064D01*
X86069Y-53994D01*
X85977Y-53956D01*
X85878Y-53956D01*
X85679Y-53956D01*
X85679Y-52581D01*
X85679Y-51893D01*
X85679Y-51794D01*
X85641Y-51702D01*
X85571Y-51632D01*
X85479Y-51594D01*
X84912Y-51594D01*
X84850Y-51656D01*
X84850Y-52187D01*
X85617Y-52187D01*
X85679Y-52125D01*
X85679Y-51893D01*
X85679Y-52581D01*
X85679Y-52350D01*
X85617Y-52287D01*
X84850Y-52287D01*
X84850Y-52818D01*
X84912Y-52881D01*
X85479Y-52881D01*
X85571Y-52843D01*
X85641Y-52773D01*
X85679Y-52681D01*
X85679Y-52581D01*
X85679Y-53956D01*
X85622Y-53956D01*
X85549Y-53986D01*
X85477Y-53956D01*
X85378Y-53956D01*
X85122Y-53956D01*
X85050Y-53986D01*
X84977Y-53956D01*
X84912Y-53956D01*
X84850Y-54018D01*
X84850Y-54550D01*
X84857Y-54550D01*
X84857Y-54650D01*
X84850Y-54650D01*
X84850Y-55181D01*
X84912Y-55243D01*
X84912Y-55275D01*
X84941Y-55423D01*
X85025Y-55549D01*
X85184Y-55708D01*
X85239Y-55840D01*
X85358Y-55960D01*
X85515Y-56024D01*
X85526Y-56024D01*
X85534Y-56030D01*
X85576Y-56058D01*
X85576Y-56058D01*
X85724Y-56087D01*
X85725Y-56087D01*
X87086Y-56087D01*
X87087Y-56091D01*
X87108Y-56112D01*
X81588Y-56112D01*
X81685Y-56016D01*
X81722Y-55925D01*
X82074Y-55574D01*
X82074Y-55574D01*
X82158Y-55448D01*
X82158Y-55448D01*
X82163Y-55423D01*
X82187Y-55300D01*
X82187Y-55300D01*
X82187Y-55200D01*
X82349Y-55200D01*
X82441Y-55162D01*
X82511Y-55091D01*
X82513Y-55087D01*
X83440Y-55087D01*
X83459Y-55135D01*
X83530Y-55205D01*
X83622Y-55243D01*
X83721Y-55243D01*
X83977Y-55243D01*
X84050Y-55213D01*
X84122Y-55243D01*
X84221Y-55243D01*
X84477Y-55243D01*
X84550Y-55213D01*
X84622Y-55243D01*
X84687Y-55243D01*
X84750Y-55181D01*
X84750Y-54650D01*
X84742Y-54650D01*
X84742Y-54550D01*
X84750Y-54550D01*
X84750Y-54018D01*
X84750Y-52818D01*
X84750Y-52287D01*
X84750Y-52187D01*
X84750Y-51656D01*
X84687Y-51594D01*
X84120Y-51594D01*
X84028Y-51632D01*
X83958Y-51702D01*
X83920Y-51794D01*
X83920Y-51893D01*
X83920Y-52125D01*
X83982Y-52187D01*
X84750Y-52187D01*
X84750Y-52287D01*
X83982Y-52287D01*
X83920Y-52350D01*
X83920Y-52581D01*
X83920Y-52681D01*
X83958Y-52773D01*
X84028Y-52843D01*
X84120Y-52881D01*
X84687Y-52881D01*
X84750Y-52818D01*
X84750Y-54018D01*
X84687Y-53956D01*
X84622Y-53956D01*
X84549Y-53986D01*
X84477Y-53956D01*
X84378Y-53956D01*
X84122Y-53956D01*
X84049Y-53986D01*
X83977Y-53956D01*
X83878Y-53956D01*
X83622Y-53956D01*
X83530Y-53994D01*
X83460Y-54064D01*
X83422Y-54156D01*
X83422Y-54255D01*
X83422Y-54312D01*
X82550Y-54312D01*
X82550Y-53799D01*
X82550Y-53200D01*
X82512Y-53108D01*
X82441Y-53038D01*
X82349Y-53000D01*
X82250Y-52999D01*
X81912Y-53000D01*
X81850Y-53062D01*
X81850Y-53450D01*
X82487Y-53450D01*
X82550Y-53387D01*
X82550Y-53200D01*
X82550Y-53799D01*
X82550Y-53612D01*
X82487Y-53550D01*
X81850Y-53550D01*
X81850Y-53937D01*
X81912Y-54000D01*
X82250Y-54000D01*
X82349Y-53999D01*
X82441Y-53961D01*
X82512Y-53891D01*
X82550Y-53799D01*
X82550Y-54312D01*
X82513Y-54312D01*
X82512Y-54308D01*
X82441Y-54238D01*
X82349Y-54200D01*
X82250Y-54199D01*
X81750Y-54199D01*
X81750Y-53937D01*
X81750Y-53550D01*
X81750Y-53450D01*
X81750Y-53062D01*
X81687Y-53000D01*
X81349Y-52999D01*
X81250Y-53000D01*
X81158Y-53038D01*
X81087Y-53108D01*
X81049Y-53200D01*
X81050Y-53387D01*
X81112Y-53450D01*
X81750Y-53450D01*
X81750Y-53550D01*
X81112Y-53550D01*
X81050Y-53612D01*
X81049Y-53799D01*
X81087Y-53891D01*
X81158Y-53961D01*
X81250Y-53999D01*
X81349Y-54000D01*
X81687Y-54000D01*
X81750Y-53937D01*
X81750Y-54199D01*
X81250Y-54199D01*
X81158Y-54237D01*
X81088Y-54308D01*
X81050Y-54400D01*
X81049Y-54499D01*
X81049Y-54999D01*
X81087Y-55091D01*
X81158Y-55161D01*
X81250Y-55199D01*
X81349Y-55200D01*
X81351Y-55200D01*
X81174Y-55377D01*
X81084Y-55414D01*
X80964Y-55533D01*
X80900Y-55690D01*
X80899Y-55859D01*
X80964Y-56015D01*
X81061Y-56112D01*
X79491Y-56112D01*
X79511Y-56091D01*
X79549Y-55999D01*
X79550Y-55900D01*
X79550Y-55400D01*
X79550Y-54799D01*
X79550Y-54200D01*
X79512Y-54108D01*
X79441Y-54038D01*
X79349Y-54000D01*
X79250Y-53999D01*
X78912Y-54000D01*
X78850Y-54062D01*
X78850Y-54450D01*
X79487Y-54450D01*
X79550Y-54387D01*
X79550Y-54200D01*
X79550Y-54799D01*
X79550Y-54612D01*
X79487Y-54550D01*
X78850Y-54550D01*
X78850Y-54937D01*
X78912Y-55000D01*
X79250Y-55000D01*
X79349Y-54999D01*
X79441Y-54961D01*
X79512Y-54891D01*
X79550Y-54799D01*
X79550Y-55400D01*
X79512Y-55308D01*
X79441Y-55238D01*
X79349Y-55200D01*
X79250Y-55199D01*
X78750Y-55199D01*
X78750Y-54937D01*
X78750Y-54550D01*
X78750Y-54450D01*
X78750Y-54062D01*
X78687Y-54000D01*
X78349Y-53999D01*
X78250Y-54000D01*
X78158Y-54038D01*
X78087Y-54108D01*
X78049Y-54200D01*
X78050Y-54387D01*
X78112Y-54450D01*
X78750Y-54450D01*
X78750Y-54550D01*
X78112Y-54550D01*
X78050Y-54612D01*
X78049Y-54799D01*
X78087Y-54891D01*
X78158Y-54961D01*
X78250Y-54999D01*
X78349Y-55000D01*
X78687Y-55000D01*
X78750Y-54937D01*
X78750Y-55199D01*
X78250Y-55199D01*
X78158Y-55237D01*
X78088Y-55308D01*
X78086Y-55312D01*
X77513Y-55312D01*
X77512Y-55308D01*
X77441Y-55238D01*
X77349Y-55200D01*
X77250Y-55199D01*
X76250Y-55199D01*
X76158Y-55237D01*
X76088Y-55308D01*
X76086Y-55312D01*
X74687Y-55312D01*
X74687Y-55243D01*
X74721Y-55243D01*
X74977Y-55243D01*
X75069Y-55205D01*
X75139Y-55135D01*
X75177Y-55043D01*
X75177Y-54987D01*
X75600Y-54987D01*
X75748Y-54958D01*
X75853Y-54887D01*
X76086Y-54887D01*
X76087Y-54891D01*
X76158Y-54961D01*
X76250Y-54999D01*
X76349Y-55000D01*
X77349Y-55000D01*
X77441Y-54962D01*
X77511Y-54891D01*
X77549Y-54799D01*
X77550Y-54700D01*
X77550Y-54200D01*
X77512Y-54108D01*
X77441Y-54038D01*
X77349Y-54000D01*
X77250Y-53999D01*
X77187Y-53999D01*
X77187Y-53700D01*
X77349Y-53700D01*
X77441Y-53662D01*
X77511Y-53591D01*
X77549Y-53499D01*
X77550Y-53400D01*
X77550Y-52900D01*
X77550Y-52299D01*
X77550Y-51700D01*
X77512Y-51608D01*
X77441Y-51538D01*
X77349Y-51500D01*
X77250Y-51499D01*
X76912Y-51500D01*
X76850Y-51562D01*
X76850Y-51950D01*
X77487Y-51950D01*
X77550Y-51887D01*
X77550Y-51700D01*
X77550Y-52299D01*
X77550Y-52112D01*
X77487Y-52050D01*
X76850Y-52050D01*
X76850Y-52437D01*
X76912Y-52500D01*
X77250Y-52500D01*
X77349Y-52499D01*
X77441Y-52461D01*
X77512Y-52391D01*
X77550Y-52299D01*
X77550Y-52900D01*
X77512Y-52808D01*
X77441Y-52738D01*
X77349Y-52700D01*
X77250Y-52699D01*
X76750Y-52699D01*
X76750Y-52437D01*
X76750Y-52050D01*
X76750Y-51950D01*
X76750Y-51562D01*
X76687Y-51500D01*
X76349Y-51499D01*
X76250Y-51500D01*
X76158Y-51538D01*
X76087Y-51608D01*
X76049Y-51700D01*
X76050Y-51887D01*
X76112Y-51950D01*
X76750Y-51950D01*
X76750Y-52050D01*
X76112Y-52050D01*
X76050Y-52112D01*
X76049Y-52299D01*
X76087Y-52391D01*
X76158Y-52461D01*
X76250Y-52499D01*
X76349Y-52500D01*
X76687Y-52500D01*
X76750Y-52437D01*
X76750Y-52699D01*
X76250Y-52699D01*
X76158Y-52737D01*
X76088Y-52808D01*
X76050Y-52900D01*
X76049Y-52999D01*
X76049Y-53499D01*
X76087Y-53591D01*
X76158Y-53661D01*
X76250Y-53699D01*
X76349Y-53700D01*
X76412Y-53700D01*
X76412Y-53999D01*
X76250Y-53999D01*
X76158Y-54037D01*
X76088Y-54108D01*
X76086Y-54112D01*
X75700Y-54112D01*
X75551Y-54141D01*
X75446Y-54212D01*
X75177Y-54212D01*
X75177Y-54156D01*
X75140Y-54064D01*
X75069Y-53994D01*
X74977Y-53956D01*
X74878Y-53956D01*
X74679Y-53956D01*
X74679Y-52581D01*
X74679Y-51893D01*
X74679Y-51794D01*
X74641Y-51702D01*
X74571Y-51632D01*
X74479Y-51594D01*
X73912Y-51594D01*
X73850Y-51656D01*
X73850Y-52187D01*
X74617Y-52187D01*
X74679Y-52125D01*
X74679Y-51893D01*
X74679Y-52581D01*
X74679Y-52350D01*
X74617Y-52287D01*
X73850Y-52287D01*
X73850Y-52818D01*
X73912Y-52881D01*
X74479Y-52881D01*
X74571Y-52843D01*
X74641Y-52773D01*
X74679Y-52681D01*
X74679Y-52581D01*
X74679Y-53956D01*
X74622Y-53956D01*
X74549Y-53986D01*
X74477Y-53956D01*
X74378Y-53956D01*
X74122Y-53956D01*
X74050Y-53986D01*
X73977Y-53956D01*
X73912Y-53956D01*
X73850Y-54018D01*
X73850Y-54550D01*
X73857Y-54550D01*
X73857Y-54650D01*
X73850Y-54650D01*
X73850Y-55181D01*
X73912Y-55243D01*
X73912Y-55557D01*
X72812Y-55557D01*
X72722Y-55519D01*
X72553Y-55519D01*
X72397Y-55584D01*
X72277Y-55703D01*
X72212Y-55859D01*
X72212Y-56029D01*
X72272Y-56174D01*
X71687Y-55589D01*
X71687Y-55200D01*
X71849Y-55200D01*
X71941Y-55162D01*
X72011Y-55091D01*
X72013Y-55087D01*
X72440Y-55087D01*
X72459Y-55135D01*
X72530Y-55205D01*
X72622Y-55243D01*
X72721Y-55243D01*
X72977Y-55243D01*
X73050Y-55213D01*
X73122Y-55243D01*
X73221Y-55243D01*
X73477Y-55243D01*
X73550Y-55213D01*
X73622Y-55243D01*
X73687Y-55243D01*
X73750Y-55181D01*
X73750Y-54650D01*
X73742Y-54650D01*
X73742Y-54550D01*
X73750Y-54550D01*
X73750Y-54018D01*
X73750Y-52818D01*
X73750Y-52287D01*
X73750Y-52187D01*
X73750Y-51656D01*
X73687Y-51594D01*
X73120Y-51594D01*
X73028Y-51632D01*
X72958Y-51702D01*
X72920Y-51794D01*
X72920Y-51893D01*
X72920Y-52125D01*
X72982Y-52187D01*
X73750Y-52187D01*
X73750Y-52287D01*
X72982Y-52287D01*
X72920Y-52350D01*
X72920Y-52581D01*
X72920Y-52681D01*
X72958Y-52773D01*
X73028Y-52843D01*
X73120Y-52881D01*
X73687Y-52881D01*
X73750Y-52818D01*
X73750Y-54018D01*
X73687Y-53956D01*
X73622Y-53956D01*
X73549Y-53986D01*
X73477Y-53956D01*
X73378Y-53956D01*
X73122Y-53956D01*
X73049Y-53986D01*
X72977Y-53956D01*
X72878Y-53956D01*
X72622Y-53956D01*
X72530Y-53994D01*
X72460Y-54064D01*
X72422Y-54156D01*
X72422Y-54255D01*
X72422Y-54312D01*
X72050Y-54312D01*
X72050Y-53799D01*
X72050Y-53200D01*
X72012Y-53108D01*
X71941Y-53038D01*
X71849Y-53000D01*
X71750Y-52999D01*
X71412Y-53000D01*
X71350Y-53062D01*
X71350Y-53450D01*
X71987Y-53450D01*
X72050Y-53387D01*
X72050Y-53200D01*
X72050Y-53799D01*
X72050Y-53612D01*
X71987Y-53550D01*
X71350Y-53550D01*
X71350Y-53937D01*
X71412Y-54000D01*
X71750Y-54000D01*
X71849Y-53999D01*
X71941Y-53961D01*
X72012Y-53891D01*
X72050Y-53799D01*
X72050Y-54312D01*
X72013Y-54312D01*
X72012Y-54308D01*
X71941Y-54238D01*
X71849Y-54200D01*
X71750Y-54199D01*
X71250Y-54199D01*
X71250Y-53937D01*
X71250Y-53550D01*
X71250Y-53450D01*
X71250Y-53062D01*
X71187Y-53000D01*
X70849Y-52999D01*
X70750Y-53000D01*
X70658Y-53038D01*
X70587Y-53108D01*
X70549Y-53200D01*
X70550Y-53387D01*
X70612Y-53450D01*
X71250Y-53450D01*
X71250Y-53550D01*
X70612Y-53550D01*
X70550Y-53612D01*
X70549Y-53799D01*
X70587Y-53891D01*
X70658Y-53961D01*
X70750Y-53999D01*
X70849Y-54000D01*
X71187Y-54000D01*
X71250Y-53937D01*
X71250Y-54199D01*
X70750Y-54199D01*
X70658Y-54237D01*
X70588Y-54308D01*
X70586Y-54312D01*
X70260Y-54312D01*
X68187Y-52239D01*
X68187Y-48638D01*
X68218Y-48711D01*
X68288Y-48782D01*
X68380Y-48820D01*
X68687Y-48820D01*
X68750Y-48757D01*
X68750Y-48250D01*
X68742Y-48250D01*
X68742Y-48150D01*
X68750Y-48150D01*
X68750Y-47642D01*
X68687Y-47580D01*
X68380Y-47579D01*
X68288Y-47617D01*
X68218Y-47688D01*
X68187Y-47761D01*
X68187Y-42960D01*
X68435Y-42712D01*
X68448Y-42725D01*
X68676Y-42819D01*
X68922Y-42820D01*
X69150Y-42725D01*
X69300Y-42576D01*
X69448Y-42725D01*
X69676Y-42819D01*
X69922Y-42820D01*
X70150Y-42725D01*
X70300Y-42576D01*
X70448Y-42725D01*
X70676Y-42819D01*
X70922Y-42820D01*
X71150Y-42725D01*
X71300Y-42576D01*
X71448Y-42725D01*
X71676Y-42819D01*
X71922Y-42820D01*
X72150Y-42725D01*
X72300Y-42576D01*
X72448Y-42725D01*
X72676Y-42819D01*
X72922Y-42820D01*
X73150Y-42725D01*
X73300Y-42576D01*
X73448Y-42725D01*
X73676Y-42819D01*
X73922Y-42820D01*
X74150Y-42725D01*
X74300Y-42576D01*
X74448Y-42725D01*
X74676Y-42819D01*
X74922Y-42820D01*
X75150Y-42725D01*
X75300Y-42576D01*
X75448Y-42725D01*
X75676Y-42819D01*
X75922Y-42820D01*
X76150Y-42725D01*
X76300Y-42576D01*
X76448Y-42725D01*
X76676Y-42819D01*
X76922Y-42820D01*
X77150Y-42725D01*
X77300Y-42576D01*
X77448Y-42725D01*
X77676Y-42819D01*
X77922Y-42820D01*
X78150Y-42725D01*
X78324Y-42552D01*
X78363Y-42565D01*
X78729Y-42200D01*
X78363Y-41834D01*
X78324Y-41847D01*
X78151Y-41674D01*
X77923Y-41580D01*
X77677Y-41579D01*
X77449Y-41674D01*
X77299Y-41823D01*
X77187Y-41710D01*
X77187Y-41300D01*
X77158Y-41151D01*
X77074Y-41025D01*
X76574Y-40525D01*
X76448Y-40441D01*
X76300Y-40412D01*
X75354Y-40412D01*
X75354Y-39881D01*
X75343Y-39663D01*
X75281Y-39512D01*
X75185Y-39484D01*
X75115Y-39555D01*
X75115Y-39414D01*
X75087Y-39318D01*
X74881Y-39245D01*
X74663Y-39256D01*
X74512Y-39318D01*
X74484Y-39414D01*
X74800Y-39729D01*
X75115Y-39414D01*
X75115Y-39555D01*
X74870Y-39800D01*
X75185Y-40115D01*
X75281Y-40087D01*
X75354Y-39881D01*
X75354Y-40412D01*
X75115Y-40412D01*
X75115Y-40185D01*
X74800Y-39870D01*
X74484Y-40185D01*
X74512Y-40281D01*
X74718Y-40354D01*
X74936Y-40343D01*
X75087Y-40281D01*
X75115Y-40185D01*
X75115Y-40412D01*
X74560Y-40412D01*
X74263Y-40114D01*
X74265Y-40111D01*
X74297Y-40036D01*
X74318Y-40087D01*
X74414Y-40115D01*
X74729Y-39800D01*
X74414Y-39484D01*
X74318Y-39512D01*
X74299Y-39567D01*
X74266Y-39488D01*
X74111Y-39334D01*
X73909Y-39250D01*
X73691Y-39249D01*
X73488Y-39333D01*
X73334Y-39488D01*
X73300Y-39569D01*
X73266Y-39488D01*
X73111Y-39334D01*
X72909Y-39250D01*
X72691Y-39249D01*
X72488Y-39333D01*
X72334Y-39488D01*
X72300Y-39569D01*
X72266Y-39488D01*
X72111Y-39334D01*
X71909Y-39250D01*
X71691Y-39249D01*
X71488Y-39333D01*
X71334Y-39488D01*
X71300Y-39569D01*
X71266Y-39488D01*
X71111Y-39334D01*
X70909Y-39250D01*
X70691Y-39249D01*
X70488Y-39333D01*
X70334Y-39488D01*
X70300Y-39569D01*
X70266Y-39488D01*
X70111Y-39334D01*
X69909Y-39250D01*
X69691Y-39249D01*
X69488Y-39333D01*
X69350Y-39472D01*
X69350Y-39450D01*
X69312Y-39358D01*
X69241Y-39288D01*
X69149Y-39250D01*
X69050Y-39249D01*
X68450Y-39249D01*
X68358Y-39287D01*
X68288Y-39358D01*
X68265Y-39412D01*
X68200Y-39412D01*
X68051Y-39441D01*
X68009Y-39469D01*
X67925Y-39525D01*
X66725Y-40725D01*
X66641Y-40851D01*
X66612Y-41000D01*
X66612Y-52800D01*
X66641Y-52948D01*
X66725Y-53074D01*
X71325Y-57674D01*
X71451Y-57758D01*
X71600Y-57787D01*
X83625Y-57787D01*
X83715Y-57824D01*
X83884Y-57825D01*
X84040Y-57760D01*
X84160Y-57641D01*
X84224Y-57484D01*
X84225Y-57315D01*
X84160Y-57159D01*
X84041Y-57039D01*
X83884Y-56975D01*
X83715Y-56974D01*
X83625Y-57012D01*
X77540Y-57012D01*
X77665Y-56960D01*
X77785Y-56841D01*
X77849Y-56684D01*
X77850Y-56515D01*
X77785Y-56359D01*
X77666Y-56239D01*
X77509Y-56175D01*
X77410Y-56174D01*
X77441Y-56162D01*
X77511Y-56091D01*
X77513Y-56087D01*
X78086Y-56087D01*
X78087Y-56091D01*
X78158Y-56161D01*
X78250Y-56199D01*
X78349Y-56200D01*
X78412Y-56200D01*
X78441Y-56348D01*
X78525Y-56474D01*
X78825Y-56774D01*
X78825Y-56774D01*
X78909Y-56830D01*
X78951Y-56858D01*
X78951Y-56858D01*
X79099Y-56887D01*
X79100Y-56887D01*
X94600Y-56887D01*
X97500Y-56887D01*
X97600Y-56887D01*
X98139Y-56887D01*
X98925Y-57674D01*
X99051Y-57758D01*
X99200Y-57787D01*
X105500Y-57787D01*
X105648Y-57758D01*
X105774Y-57674D01*
X106298Y-57149D01*
X106408Y-57150D01*
X106611Y-57066D01*
X106765Y-56911D01*
X106849Y-56709D01*
X106850Y-56491D01*
X106766Y-56288D01*
X106611Y-56134D01*
X106409Y-56050D01*
X106191Y-56049D01*
X105988Y-56133D01*
X105834Y-56288D01*
X105802Y-56363D01*
X105781Y-56312D01*
X105685Y-56284D01*
X105615Y-56355D01*
X105615Y-56214D01*
X105587Y-56118D01*
X105381Y-56045D01*
X105163Y-56056D01*
X105012Y-56118D01*
X104984Y-56214D01*
X105300Y-56529D01*
X105615Y-56214D01*
X105615Y-56355D01*
X105370Y-56600D01*
X105376Y-56605D01*
X105305Y-56676D01*
X105300Y-56670D01*
X104984Y-56985D01*
X104992Y-57012D01*
X104665Y-57012D01*
X104765Y-56911D01*
X104797Y-56836D01*
X104818Y-56887D01*
X104914Y-56915D01*
X105229Y-56600D01*
X104914Y-56284D01*
X104818Y-56312D01*
X104799Y-56367D01*
X104766Y-56288D01*
X104611Y-56134D01*
X104409Y-56050D01*
X104398Y-56050D01*
X103374Y-55025D01*
X103248Y-54941D01*
X103100Y-54912D01*
X99874Y-54912D01*
X99899Y-54849D01*
X99900Y-54750D01*
X99900Y-53750D01*
X99862Y-53658D01*
X99791Y-53588D01*
X99709Y-53553D01*
X99709Y-53158D01*
X99685Y-53039D01*
X99685Y-53039D01*
X99618Y-52939D01*
X99582Y-52903D01*
X99582Y-52686D01*
X99544Y-52594D01*
X99474Y-52524D01*
X99382Y-52486D01*
X99282Y-52485D01*
X99074Y-52485D01*
X99098Y-52476D01*
X99169Y-52405D01*
X99207Y-52313D01*
X99207Y-52229D01*
X99405Y-52031D01*
X99423Y-52048D01*
X99523Y-52115D01*
X99523Y-52115D01*
X99641Y-52139D01*
X101823Y-52139D01*
X101787Y-52174D01*
X101715Y-52174D01*
X101559Y-52239D01*
X101439Y-52358D01*
X101375Y-52515D01*
X101374Y-52684D01*
X101439Y-52840D01*
X101558Y-52960D01*
X101715Y-53024D01*
X101884Y-53025D01*
X102040Y-52960D01*
X102160Y-52841D01*
X102224Y-52684D01*
X102224Y-52612D01*
X102439Y-52397D01*
X102458Y-52405D01*
X102558Y-52405D01*
X103089Y-52405D01*
X103181Y-52367D01*
X103252Y-52297D01*
X103290Y-52205D01*
X103290Y-52106D01*
X103290Y-51966D01*
X103286Y-51957D01*
X103290Y-51949D01*
X103290Y-51850D01*
X103290Y-51710D01*
X103286Y-51702D01*
X103290Y-51693D01*
X103290Y-51594D01*
X103290Y-51454D01*
X103286Y-51446D01*
X103290Y-51438D01*
X103290Y-51338D01*
X103290Y-51198D01*
X103252Y-51106D01*
X103182Y-51036D01*
X103090Y-50998D01*
X102990Y-50998D01*
X102891Y-50998D01*
X102074Y-50181D01*
X101974Y-50114D01*
X101856Y-50090D01*
X101328Y-50090D01*
X100824Y-49587D01*
X104600Y-49587D01*
X104748Y-49558D01*
X104874Y-49474D01*
X105160Y-49187D01*
X106400Y-49187D01*
X106548Y-49158D01*
X106674Y-49074D01*
X107474Y-48274D01*
X107474Y-48274D01*
X107530Y-48190D01*
X107558Y-48148D01*
X107558Y-48148D01*
X107587Y-48000D01*
X107587Y-48000D01*
X107587Y-46960D01*
X107960Y-46587D01*
X108499Y-46587D01*
X108499Y-46749D01*
X108537Y-46841D01*
X108608Y-46911D01*
X108700Y-46949D01*
X108799Y-46950D01*
X109299Y-46950D01*
X109391Y-46912D01*
X109461Y-46841D01*
X109499Y-46749D01*
X109500Y-46650D01*
X109500Y-45650D01*
X109462Y-45558D01*
X109391Y-45488D01*
X109387Y-45486D01*
X109387Y-45360D01*
X109473Y-45275D01*
X109484Y-45279D01*
X109714Y-45280D01*
X109928Y-45191D01*
X110091Y-45028D01*
X110179Y-44815D01*
X110180Y-44585D01*
X110180Y-47689D01*
X110174Y-47558D01*
X110150Y-47500D01*
X110150Y-46887D01*
X110150Y-46250D01*
X110150Y-46150D01*
X110150Y-45512D01*
X110087Y-45450D01*
X109900Y-45449D01*
X109808Y-45487D01*
X109738Y-45558D01*
X109700Y-45650D01*
X109699Y-45749D01*
X109700Y-46087D01*
X109762Y-46150D01*
X110150Y-46150D01*
X110150Y-46250D01*
X109762Y-46250D01*
X109700Y-46312D01*
X109699Y-46650D01*
X109700Y-46749D01*
X109738Y-46841D01*
X109808Y-46912D01*
X109900Y-46950D01*
X110087Y-46950D01*
X110150Y-46887D01*
X110150Y-47500D01*
X110106Y-47394D01*
X110007Y-47363D01*
X109936Y-47433D01*
X109936Y-47292D01*
X109905Y-47193D01*
X109688Y-47115D01*
X109458Y-47125D01*
X109294Y-47193D01*
X109263Y-47292D01*
X109600Y-47629D01*
X109936Y-47292D01*
X109936Y-47433D01*
X109670Y-47700D01*
X110007Y-48036D01*
X110106Y-48005D01*
X110184Y-47788D01*
X110184Y-48836D01*
X110175Y-48826D01*
X110179Y-48815D01*
X110180Y-48585D01*
X110091Y-48371D01*
X109928Y-48208D01*
X109907Y-48199D01*
X109936Y-48107D01*
X109600Y-47770D01*
X109529Y-47841D01*
X109529Y-47700D01*
X109192Y-47363D01*
X109093Y-47394D01*
X109015Y-47611D01*
X109025Y-47841D01*
X109093Y-48005D01*
X109192Y-48036D01*
X109529Y-47700D01*
X109529Y-47841D01*
X109263Y-48107D01*
X109292Y-48199D01*
X109271Y-48208D01*
X109108Y-48371D01*
X109020Y-48584D01*
X109019Y-48814D01*
X109108Y-49028D01*
X109271Y-49191D01*
X109484Y-49279D01*
X109531Y-49279D01*
X109774Y-49522D01*
X109738Y-49558D01*
X109700Y-49650D01*
X109699Y-49749D01*
X109699Y-50749D01*
X109737Y-50841D01*
X109808Y-50911D01*
X109900Y-50949D01*
X109999Y-50950D01*
X110499Y-50950D01*
X110591Y-50912D01*
X110661Y-50841D01*
X110699Y-50749D01*
X110700Y-50650D01*
X110700Y-51954D01*
X110685Y-51881D01*
X110685Y-51881D01*
X110618Y-51781D01*
X110234Y-51397D01*
X110134Y-51330D01*
X110016Y-51306D01*
X109588Y-51306D01*
X109549Y-51291D01*
X109500Y-51291D01*
X109500Y-50650D01*
X109500Y-49650D01*
X109462Y-49558D01*
X109391Y-49488D01*
X109299Y-49450D01*
X109200Y-49449D01*
X108700Y-49449D01*
X108608Y-49487D01*
X108538Y-49558D01*
X108500Y-49650D01*
X108499Y-49749D01*
X108499Y-49890D01*
X107600Y-49890D01*
X107481Y-49914D01*
X107381Y-49981D01*
X107381Y-49981D01*
X107181Y-50181D01*
X107114Y-50281D01*
X107090Y-50400D01*
X107090Y-51396D01*
X107088Y-51399D01*
X107050Y-51491D01*
X107049Y-51590D01*
X107049Y-51740D01*
X107051Y-51743D01*
X107050Y-51747D01*
X107049Y-51818D01*
X106431Y-51818D01*
X106404Y-51800D01*
X106285Y-51776D01*
X105622Y-51776D01*
X105570Y-51742D01*
X105791Y-51521D01*
X106403Y-51521D01*
X106495Y-51483D01*
X106565Y-51412D01*
X106603Y-51320D01*
X106604Y-51221D01*
X106604Y-50721D01*
X106604Y-50120D01*
X106604Y-49521D01*
X106566Y-49429D01*
X106495Y-49359D01*
X106403Y-49321D01*
X106304Y-49320D01*
X105966Y-49321D01*
X105904Y-49383D01*
X105904Y-49771D01*
X106541Y-49771D01*
X106604Y-49708D01*
X106604Y-49521D01*
X106604Y-50120D01*
X106604Y-49933D01*
X106541Y-49871D01*
X105904Y-49871D01*
X105904Y-50258D01*
X105966Y-50321D01*
X106304Y-50321D01*
X106403Y-50320D01*
X106495Y-50282D01*
X106566Y-50212D01*
X106604Y-50120D01*
X106604Y-50721D01*
X106566Y-50629D01*
X106495Y-50559D01*
X106403Y-50521D01*
X106304Y-50520D01*
X105469Y-50520D01*
X105397Y-50449D01*
X105360Y-50359D01*
X105321Y-50320D01*
X105403Y-50321D01*
X105741Y-50321D01*
X105804Y-50258D01*
X105804Y-49871D01*
X105804Y-49771D01*
X105804Y-49383D01*
X105741Y-49321D01*
X105403Y-49320D01*
X105304Y-49321D01*
X105212Y-49359D01*
X105141Y-49429D01*
X105103Y-49521D01*
X105104Y-49708D01*
X105166Y-49771D01*
X105804Y-49771D01*
X105804Y-49871D01*
X105166Y-49871D01*
X105104Y-49933D01*
X105103Y-50120D01*
X105135Y-50195D01*
X105084Y-50175D01*
X104915Y-50174D01*
X104759Y-50239D01*
X104639Y-50358D01*
X104575Y-50515D01*
X104574Y-50684D01*
X104639Y-50840D01*
X104758Y-50960D01*
X104849Y-50997D01*
X105103Y-51252D01*
X105103Y-51264D01*
X104938Y-51264D01*
X104983Y-51220D01*
X104983Y-51198D01*
X104945Y-51106D01*
X104875Y-51036D01*
X104783Y-50998D01*
X104683Y-50998D01*
X104579Y-50998D01*
X104517Y-51060D01*
X104517Y-51254D01*
X104417Y-51254D01*
X104417Y-51060D01*
X104354Y-50998D01*
X104251Y-50998D01*
X104151Y-50998D01*
X104059Y-51036D01*
X103989Y-51106D01*
X103951Y-51198D01*
X103951Y-51220D01*
X104014Y-51283D01*
X104081Y-51283D01*
X104060Y-51291D01*
X103989Y-51362D01*
X103979Y-51388D01*
X103951Y-51415D01*
X103951Y-51437D01*
X103955Y-51446D01*
X103951Y-51454D01*
X103951Y-51553D01*
X103951Y-51693D01*
X103955Y-51701D01*
X103951Y-51710D01*
X103951Y-51809D01*
X103951Y-51949D01*
X103955Y-51957D01*
X103951Y-51965D01*
X103951Y-52065D01*
X103951Y-52205D01*
X103989Y-52297D01*
X104059Y-52367D01*
X104151Y-52405D01*
X104251Y-52405D01*
X104640Y-52405D01*
X104559Y-52439D01*
X104439Y-52558D01*
X104375Y-52715D01*
X104374Y-52884D01*
X104439Y-53040D01*
X104558Y-53160D01*
X104715Y-53224D01*
X104884Y-53225D01*
X105040Y-53160D01*
X105160Y-53041D01*
X105197Y-52950D01*
X105674Y-52474D01*
X105674Y-52474D01*
X105727Y-52394D01*
X106181Y-52394D01*
X106209Y-52413D01*
X106209Y-52413D01*
X106328Y-52437D01*
X107096Y-52437D01*
X107050Y-52484D01*
X107049Y-52508D01*
X107087Y-52600D01*
X107158Y-52670D01*
X107250Y-52708D01*
X107349Y-52709D01*
X107437Y-52709D01*
X107500Y-52646D01*
X107500Y-52453D01*
X107600Y-52453D01*
X107600Y-52646D01*
X107662Y-52709D01*
X107750Y-52709D01*
X107849Y-52708D01*
X107941Y-52670D01*
X108012Y-52600D01*
X108050Y-52508D01*
X108050Y-52484D01*
X107987Y-52421D01*
X107925Y-52421D01*
X107941Y-52415D01*
X108011Y-52344D01*
X108027Y-52306D01*
X108050Y-52284D01*
X108050Y-52259D01*
X108048Y-52256D01*
X108049Y-52252D01*
X108050Y-52153D01*
X108050Y-52003D01*
X108048Y-52000D01*
X108049Y-51996D01*
X108050Y-51897D01*
X108050Y-51747D01*
X108048Y-51744D01*
X108049Y-51740D01*
X108050Y-51641D01*
X108050Y-51491D01*
X108012Y-51399D01*
X107941Y-51329D01*
X107849Y-51291D01*
X107750Y-51290D01*
X107709Y-51290D01*
X107709Y-50528D01*
X107728Y-50509D01*
X108499Y-50509D01*
X108499Y-50749D01*
X108537Y-50841D01*
X108608Y-50911D01*
X108700Y-50949D01*
X108799Y-50950D01*
X109299Y-50950D01*
X109391Y-50912D01*
X109461Y-50841D01*
X109499Y-50749D01*
X109500Y-50650D01*
X109500Y-51291D01*
X109450Y-51290D01*
X108950Y-51290D01*
X108858Y-51328D01*
X108788Y-51399D01*
X108750Y-51491D01*
X108749Y-51590D01*
X108749Y-51740D01*
X108751Y-51743D01*
X108750Y-51747D01*
X108749Y-51846D01*
X108749Y-51996D01*
X108751Y-51999D01*
X108750Y-52003D01*
X108749Y-52102D01*
X108749Y-52252D01*
X108751Y-52255D01*
X108750Y-52259D01*
X108749Y-52358D01*
X108749Y-52508D01*
X108787Y-52600D01*
X108858Y-52670D01*
X108950Y-52708D01*
X109049Y-52709D01*
X109549Y-52709D01*
X109641Y-52671D01*
X109711Y-52600D01*
X109749Y-52508D01*
X109750Y-52409D01*
X109750Y-52259D01*
X109748Y-52256D01*
X109749Y-52252D01*
X109750Y-52153D01*
X109750Y-52003D01*
X109748Y-52000D01*
X109749Y-51996D01*
X109750Y-51925D01*
X109887Y-51925D01*
X110090Y-52128D01*
X110090Y-52560D01*
X109639Y-53012D01*
X108600Y-53012D01*
X108451Y-53041D01*
X108409Y-53069D01*
X108325Y-53125D01*
X107639Y-53812D01*
X106374Y-53812D01*
X106284Y-53775D01*
X106115Y-53774D01*
X105959Y-53839D01*
X105839Y-53958D01*
X105775Y-54115D01*
X105774Y-54284D01*
X105839Y-54440D01*
X105958Y-54560D01*
X106115Y-54624D01*
X106284Y-54625D01*
X106374Y-54587D01*
X107800Y-54587D01*
X107948Y-54558D01*
X108074Y-54474D01*
X108760Y-53787D01*
X109800Y-53787D01*
X109948Y-53758D01*
X110074Y-53674D01*
X110674Y-53074D01*
X110730Y-52990D01*
X110730Y-58730D01*
X110730Y-58730D01*
G37*
G54D28*
X110730Y-58730D02*
X65269Y-58730D01*
X65269Y-38269D01*
X110730Y-38269D01*
X110730Y-52609D01*
X110709Y-52577D01*
X110709Y-52000D01*
X110700Y-51954D01*
X110700Y-50650D01*
X110700Y-49650D01*
X110700Y-46650D01*
X110700Y-45749D01*
X110699Y-45650D01*
X110661Y-45558D01*
X110591Y-45487D01*
X110499Y-45449D01*
X110312Y-45450D01*
X110250Y-45512D01*
X110250Y-46150D01*
X110637Y-46150D01*
X110700Y-46087D01*
X110700Y-45749D01*
X110700Y-46650D01*
X110700Y-46312D01*
X110637Y-46250D01*
X110250Y-46250D01*
X110250Y-46887D01*
X110312Y-46950D01*
X110499Y-46950D01*
X110591Y-46912D01*
X110661Y-46841D01*
X110699Y-46749D01*
X110700Y-46650D01*
X110700Y-49650D01*
X110662Y-49558D01*
X110591Y-49488D01*
X110587Y-49486D01*
X110587Y-49400D01*
X110558Y-49251D01*
X110474Y-49125D01*
X110474Y-49125D01*
X110184Y-48836D01*
X110184Y-47788D01*
X110180Y-47689D01*
X110180Y-44585D01*
X110091Y-44371D01*
X109928Y-44208D01*
X109908Y-44200D01*
X109928Y-44191D01*
X110091Y-44028D01*
X110179Y-43815D01*
X110180Y-43585D01*
X110091Y-43371D01*
X109987Y-43267D01*
X109987Y-40800D01*
X109987Y-40799D01*
X109958Y-40651D01*
X109958Y-40651D01*
X109930Y-40609D01*
X109874Y-40525D01*
X109874Y-40525D01*
X109240Y-39891D01*
X109114Y-39807D01*
X108966Y-39778D01*
X103761Y-39778D01*
X103760Y-39774D01*
X103689Y-39704D01*
X103597Y-39666D01*
X103498Y-39665D01*
X102498Y-39665D01*
X102406Y-39703D01*
X102336Y-39774D01*
X102334Y-39778D01*
X97114Y-39778D01*
X96965Y-39807D01*
X96839Y-39891D01*
X94856Y-41874D01*
X94355Y-41874D01*
X94263Y-41912D01*
X94193Y-41983D01*
X94191Y-41987D01*
X92425Y-41987D01*
X92276Y-42016D01*
X92234Y-42044D01*
X92150Y-42100D01*
X88439Y-45812D01*
X88424Y-45812D01*
X88424Y-45298D01*
X88420Y-45190D01*
X88420Y-42077D01*
X88325Y-41849D01*
X88187Y-41710D01*
X88187Y-40190D01*
X88265Y-40111D01*
X88349Y-39909D01*
X88350Y-39691D01*
X88266Y-39488D01*
X88111Y-39334D01*
X87909Y-39250D01*
X87691Y-39249D01*
X87488Y-39333D01*
X87334Y-39488D01*
X87300Y-39569D01*
X87266Y-39488D01*
X87111Y-39334D01*
X86909Y-39250D01*
X86691Y-39249D01*
X86488Y-39333D01*
X86334Y-39488D01*
X86300Y-39569D01*
X86266Y-39488D01*
X86111Y-39334D01*
X85909Y-39250D01*
X85691Y-39249D01*
X85488Y-39333D01*
X85350Y-39472D01*
X85350Y-39450D01*
X85312Y-39358D01*
X85241Y-39288D01*
X85149Y-39250D01*
X85050Y-39249D01*
X84450Y-39249D01*
X84358Y-39287D01*
X84288Y-39358D01*
X84250Y-39450D01*
X84249Y-39549D01*
X84249Y-40149D01*
X84287Y-40241D01*
X84358Y-40311D01*
X84412Y-40334D01*
X84412Y-41711D01*
X84299Y-41823D01*
X84151Y-41674D01*
X83923Y-41580D01*
X83677Y-41579D01*
X83449Y-41674D01*
X83299Y-41823D01*
X83151Y-41674D01*
X82923Y-41580D01*
X82677Y-41579D01*
X82449Y-41674D01*
X82299Y-41823D01*
X82151Y-41674D01*
X81923Y-41580D01*
X81677Y-41579D01*
X81449Y-41674D01*
X81299Y-41823D01*
X81151Y-41674D01*
X80923Y-41580D01*
X80677Y-41579D01*
X80449Y-41674D01*
X80299Y-41823D01*
X80151Y-41674D01*
X79923Y-41580D01*
X79677Y-41579D01*
X79449Y-41674D01*
X79275Y-41847D01*
X79236Y-41834D01*
X79165Y-41904D01*
X79165Y-41763D01*
X79129Y-41660D01*
X78898Y-41575D01*
X78652Y-41585D01*
X78470Y-41660D01*
X78434Y-41763D01*
X78800Y-42129D01*
X79165Y-41763D01*
X79165Y-41904D01*
X78870Y-42200D01*
X79236Y-42565D01*
X79275Y-42552D01*
X79448Y-42725D01*
X79676Y-42819D01*
X79922Y-42820D01*
X80150Y-42725D01*
X80300Y-42576D01*
X80448Y-42725D01*
X80676Y-42819D01*
X80922Y-42820D01*
X81150Y-42725D01*
X81300Y-42576D01*
X81448Y-42725D01*
X81676Y-42819D01*
X81922Y-42820D01*
X82150Y-42725D01*
X82300Y-42576D01*
X82448Y-42725D01*
X82676Y-42819D01*
X82922Y-42820D01*
X83150Y-42725D01*
X83300Y-42576D01*
X83448Y-42725D01*
X83676Y-42819D01*
X83922Y-42820D01*
X84150Y-42725D01*
X84300Y-42576D01*
X84448Y-42725D01*
X84676Y-42819D01*
X84922Y-42820D01*
X85150Y-42725D01*
X85300Y-42576D01*
X85448Y-42725D01*
X85676Y-42819D01*
X85922Y-42820D01*
X86150Y-42725D01*
X86300Y-42576D01*
X86448Y-42725D01*
X86676Y-42819D01*
X86922Y-42820D01*
X87150Y-42725D01*
X87300Y-42576D01*
X87448Y-42725D01*
X87676Y-42819D01*
X87922Y-42820D01*
X88150Y-42725D01*
X88325Y-42551D01*
X88419Y-42323D01*
X88420Y-42077D01*
X88420Y-45190D01*
X88420Y-45188D01*
X88414Y-45052D01*
X88339Y-44870D01*
X88236Y-44834D01*
X88272Y-44798D01*
X88311Y-44782D01*
X88381Y-44711D01*
X88419Y-44619D01*
X88420Y-44520D01*
X88420Y-43780D01*
X88382Y-43688D01*
X88311Y-43618D01*
X88219Y-43580D01*
X88120Y-43579D01*
X87380Y-43579D01*
X87288Y-43617D01*
X87218Y-43688D01*
X87180Y-43780D01*
X87179Y-43879D01*
X87179Y-44619D01*
X87217Y-44711D01*
X87288Y-44781D01*
X87327Y-44798D01*
X87363Y-44834D01*
X87260Y-44870D01*
X87175Y-45101D01*
X87185Y-45347D01*
X87260Y-45529D01*
X87363Y-45565D01*
X87729Y-45200D01*
X87723Y-45194D01*
X87794Y-45123D01*
X87800Y-45129D01*
X87805Y-45123D01*
X87876Y-45194D01*
X87870Y-45200D01*
X88236Y-45565D01*
X88339Y-45529D01*
X88424Y-45298D01*
X88424Y-45812D01*
X88288Y-45812D01*
X88152Y-45675D01*
X88165Y-45636D01*
X87800Y-45270D01*
X87729Y-45341D01*
X87434Y-45636D01*
X87447Y-45675D01*
X87274Y-45848D01*
X87180Y-46076D01*
X87179Y-46322D01*
X87274Y-46550D01*
X87448Y-46725D01*
X87676Y-46819D01*
X87922Y-46820D01*
X88150Y-46725D01*
X88289Y-46587D01*
X88600Y-46587D01*
X88748Y-46558D01*
X88874Y-46474D01*
X92585Y-42762D01*
X94191Y-42762D01*
X94192Y-42766D01*
X94263Y-42836D01*
X94355Y-42874D01*
X94454Y-42875D01*
X95454Y-42875D01*
X95546Y-42837D01*
X95616Y-42766D01*
X95654Y-42674D01*
X95655Y-42575D01*
X95655Y-42173D01*
X97274Y-40553D01*
X102334Y-40553D01*
X102335Y-40557D01*
X102406Y-40627D01*
X102498Y-40665D01*
X102597Y-40666D01*
X103597Y-40666D01*
X103689Y-40628D01*
X103759Y-40557D01*
X103761Y-40553D01*
X108805Y-40553D01*
X109212Y-40960D01*
X109212Y-43267D01*
X109108Y-43371D01*
X109020Y-43584D01*
X109019Y-43814D01*
X109108Y-44028D01*
X109271Y-44191D01*
X109291Y-44199D01*
X109271Y-44208D01*
X109108Y-44371D01*
X109020Y-44584D01*
X109020Y-44631D01*
X108725Y-44925D01*
X108641Y-45051D01*
X108612Y-45200D01*
X108612Y-45486D01*
X108608Y-45487D01*
X108538Y-45558D01*
X108500Y-45650D01*
X108499Y-45749D01*
X108499Y-45812D01*
X108205Y-45812D01*
X108205Y-44905D01*
X108140Y-44749D01*
X108021Y-44629D01*
X107864Y-44565D01*
X107695Y-44564D01*
X107603Y-44603D01*
X107604Y-44598D01*
X107609Y-44575D01*
X107609Y-44575D01*
X107609Y-44575D01*
X107609Y-41292D01*
X107660Y-41241D01*
X107724Y-41084D01*
X107725Y-40915D01*
X107660Y-40759D01*
X107541Y-40639D01*
X107384Y-40575D01*
X107215Y-40574D01*
X107059Y-40639D01*
X106939Y-40758D01*
X106875Y-40915D01*
X106874Y-41037D01*
X106850Y-41012D01*
X106850Y-40940D01*
X106785Y-40784D01*
X106666Y-40664D01*
X106509Y-40600D01*
X106340Y-40599D01*
X106184Y-40664D01*
X106064Y-40783D01*
X106000Y-40940D01*
X105999Y-41109D01*
X106064Y-41265D01*
X106183Y-41385D01*
X106340Y-41449D01*
X106412Y-41449D01*
X106440Y-41478D01*
X106440Y-43204D01*
X106439Y-43201D01*
X106439Y-43201D01*
X106100Y-42862D01*
X106100Y-42050D01*
X106062Y-41958D01*
X105991Y-41888D01*
X105899Y-41850D01*
X105800Y-41849D01*
X105300Y-41849D01*
X105208Y-41887D01*
X105138Y-41958D01*
X105100Y-42050D01*
X105099Y-42149D01*
X105099Y-43149D01*
X105137Y-43241D01*
X105208Y-43311D01*
X105300Y-43349D01*
X105399Y-43350D01*
X105712Y-43350D01*
X105911Y-43548D01*
X105911Y-44041D01*
X105872Y-44057D01*
X105801Y-44127D01*
X105763Y-44219D01*
X105763Y-44318D01*
X105763Y-44444D01*
X105770Y-44460D01*
X105763Y-44475D01*
X105763Y-44574D01*
X105763Y-44700D01*
X105770Y-44716D01*
X105763Y-44731D01*
X105763Y-44830D01*
X105763Y-44956D01*
X105770Y-44971D01*
X105763Y-44987D01*
X105763Y-45086D01*
X105763Y-45212D01*
X105770Y-45227D01*
X105763Y-45242D01*
X105763Y-45342D01*
X105763Y-45468D01*
X105770Y-45483D01*
X105763Y-45498D01*
X105763Y-45598D01*
X105763Y-45724D01*
X105770Y-45739D01*
X105763Y-45754D01*
X105763Y-45854D01*
X105763Y-45980D01*
X105801Y-46072D01*
X105871Y-46142D01*
X105911Y-46158D01*
X105911Y-46851D01*
X105909Y-46853D01*
X105899Y-46850D01*
X105800Y-46849D01*
X105300Y-46849D01*
X105208Y-46887D01*
X105138Y-46958D01*
X105100Y-47050D01*
X105099Y-47149D01*
X105099Y-48149D01*
X105137Y-48241D01*
X105208Y-48311D01*
X105300Y-48349D01*
X105399Y-48350D01*
X105899Y-48350D01*
X105991Y-48312D01*
X106061Y-48241D01*
X106099Y-48149D01*
X106100Y-48050D01*
X106100Y-47537D01*
X106439Y-47198D01*
X106439Y-47198D01*
X106439Y-47198D01*
X106506Y-47097D01*
X106506Y-47097D01*
X106529Y-46979D01*
X106529Y-46158D01*
X106568Y-46142D01*
X106638Y-46072D01*
X106677Y-45980D01*
X106677Y-45920D01*
X107158Y-45920D01*
X107276Y-45897D01*
X107276Y-45897D01*
X107376Y-45830D01*
X107792Y-45415D01*
X107864Y-45415D01*
X108020Y-45350D01*
X108140Y-45231D01*
X108204Y-45074D01*
X108205Y-44905D01*
X108205Y-45812D01*
X107800Y-45812D01*
X107651Y-45841D01*
X107525Y-45925D01*
X106925Y-46525D01*
X106841Y-46651D01*
X106812Y-46800D01*
X106812Y-47839D01*
X106239Y-48412D01*
X105000Y-48412D01*
X104900Y-48432D01*
X104900Y-48050D01*
X104900Y-47149D01*
X104900Y-43050D01*
X104900Y-42149D01*
X104899Y-42050D01*
X104861Y-41958D01*
X104791Y-41887D01*
X104699Y-41849D01*
X104512Y-41850D01*
X104450Y-41912D01*
X104450Y-42550D01*
X104837Y-42550D01*
X104900Y-42487D01*
X104900Y-42149D01*
X104900Y-43050D01*
X104900Y-42712D01*
X104837Y-42650D01*
X104450Y-42650D01*
X104450Y-43287D01*
X104512Y-43350D01*
X104699Y-43350D01*
X104791Y-43312D01*
X104861Y-43241D01*
X104899Y-43149D01*
X104900Y-43050D01*
X104900Y-47149D01*
X104899Y-47050D01*
X104861Y-46958D01*
X104791Y-46887D01*
X104699Y-46849D01*
X104512Y-46850D01*
X104450Y-46912D01*
X104450Y-47550D01*
X104837Y-47550D01*
X104900Y-47487D01*
X104900Y-47149D01*
X104900Y-48050D01*
X104900Y-47712D01*
X104837Y-47650D01*
X104450Y-47650D01*
X104450Y-48287D01*
X104512Y-48350D01*
X104699Y-48350D01*
X104791Y-48312D01*
X104861Y-48241D01*
X104899Y-48149D01*
X104900Y-48050D01*
X104900Y-48432D01*
X104851Y-48441D01*
X104725Y-48525D01*
X104725Y-48525D01*
X104725Y-48525D01*
X104439Y-48812D01*
X104350Y-48812D01*
X104350Y-48287D01*
X104350Y-47650D01*
X104350Y-47550D01*
X104350Y-46912D01*
X104350Y-43287D01*
X104350Y-42650D01*
X104350Y-42550D01*
X104350Y-41912D01*
X104287Y-41850D01*
X104100Y-41849D01*
X104008Y-41887D01*
X103938Y-41958D01*
X103900Y-42050D01*
X103899Y-42149D01*
X103900Y-42487D01*
X103962Y-42550D01*
X104350Y-42550D01*
X104350Y-42650D01*
X103962Y-42650D01*
X103900Y-42712D01*
X103899Y-43050D01*
X103900Y-43149D01*
X103938Y-43241D01*
X104008Y-43312D01*
X104100Y-43350D01*
X104287Y-43350D01*
X104350Y-43287D01*
X104350Y-46912D01*
X104287Y-46850D01*
X104100Y-46849D01*
X104008Y-46887D01*
X103938Y-46958D01*
X103900Y-47050D01*
X103899Y-47149D01*
X103900Y-47487D01*
X103962Y-47550D01*
X104350Y-47550D01*
X104350Y-47650D01*
X103962Y-47650D01*
X103900Y-47712D01*
X103899Y-48050D01*
X103900Y-48149D01*
X103938Y-48241D01*
X104008Y-48312D01*
X104100Y-48350D01*
X104287Y-48350D01*
X104350Y-48287D01*
X104350Y-48812D01*
X101991Y-48812D01*
X101991Y-48812D01*
X102061Y-48741D01*
X102099Y-48649D01*
X102100Y-48550D01*
X102100Y-47550D01*
X102062Y-47458D01*
X101991Y-47388D01*
X101978Y-47382D01*
X103339Y-46021D01*
X103360Y-46072D01*
X103431Y-46142D01*
X103522Y-46180D01*
X103622Y-46180D01*
X103667Y-46180D01*
X103729Y-46118D01*
X103729Y-45924D01*
X103829Y-45924D01*
X103829Y-46118D01*
X103892Y-46180D01*
X103936Y-46180D01*
X104036Y-46180D01*
X104128Y-46142D01*
X104198Y-46072D01*
X104236Y-45980D01*
X104236Y-45961D01*
X104173Y-45899D01*
X104097Y-45899D01*
X104127Y-45886D01*
X104198Y-45816D01*
X104201Y-45808D01*
X104236Y-45773D01*
X104236Y-45755D01*
X104229Y-45739D01*
X104236Y-45724D01*
X104236Y-45625D01*
X104236Y-45499D01*
X104229Y-45483D01*
X104236Y-45468D01*
X104236Y-45369D01*
X104236Y-45243D01*
X104229Y-45228D01*
X104236Y-45212D01*
X104236Y-45113D01*
X104236Y-44987D01*
X104229Y-44972D01*
X104236Y-44957D01*
X104236Y-44857D01*
X104236Y-44731D01*
X104229Y-44716D01*
X104236Y-44701D01*
X104236Y-44601D01*
X104236Y-44475D01*
X104229Y-44460D01*
X104236Y-44444D01*
X104236Y-44426D01*
X104201Y-44391D01*
X104198Y-44383D01*
X104128Y-44313D01*
X104097Y-44300D01*
X104173Y-44300D01*
X104236Y-44238D01*
X104236Y-44219D01*
X104198Y-44127D01*
X104128Y-44057D01*
X104036Y-44019D01*
X103936Y-44019D01*
X103892Y-44019D01*
X103829Y-44081D01*
X103829Y-44275D01*
X103798Y-44275D01*
X103798Y-41665D01*
X103798Y-41066D01*
X103760Y-40974D01*
X103689Y-40904D01*
X103597Y-40866D01*
X103498Y-40865D01*
X103160Y-40866D01*
X103098Y-40928D01*
X103098Y-41316D01*
X103735Y-41316D01*
X103798Y-41253D01*
X103798Y-41066D01*
X103798Y-41665D01*
X103798Y-41478D01*
X103735Y-41416D01*
X103098Y-41416D01*
X103098Y-41803D01*
X103160Y-41866D01*
X103498Y-41866D01*
X103597Y-41865D01*
X103689Y-41827D01*
X103760Y-41757D01*
X103798Y-41665D01*
X103798Y-44275D01*
X103729Y-44275D01*
X103729Y-44081D01*
X103667Y-44019D01*
X103622Y-44019D01*
X103522Y-44019D01*
X103431Y-44057D01*
X103360Y-44127D01*
X103339Y-44178D01*
X102998Y-43837D01*
X102998Y-41803D01*
X102998Y-41416D01*
X102998Y-41316D01*
X102998Y-40928D01*
X102935Y-40866D01*
X102597Y-40865D01*
X102498Y-40866D01*
X102406Y-40904D01*
X102335Y-40974D01*
X102297Y-41066D01*
X102298Y-41253D01*
X102360Y-41316D01*
X102998Y-41316D01*
X102998Y-41416D01*
X102360Y-41416D01*
X102298Y-41478D01*
X102297Y-41665D01*
X102335Y-41757D01*
X102406Y-41827D01*
X102498Y-41865D01*
X102597Y-41866D01*
X102935Y-41866D01*
X102998Y-41803D01*
X102998Y-43837D01*
X102032Y-42871D01*
X102061Y-42841D01*
X102099Y-42749D01*
X102100Y-42650D01*
X102100Y-41650D01*
X102062Y-41558D01*
X101991Y-41488D01*
X101899Y-41450D01*
X101800Y-41449D01*
X101300Y-41449D01*
X101208Y-41487D01*
X101138Y-41558D01*
X101100Y-41650D01*
X101099Y-41749D01*
X101099Y-42749D01*
X101137Y-42841D01*
X101208Y-42911D01*
X101300Y-42949D01*
X101305Y-42949D01*
X101314Y-42994D01*
X101381Y-43094D01*
X101636Y-43349D01*
X101300Y-43349D01*
X101208Y-43387D01*
X101138Y-43458D01*
X101100Y-43550D01*
X101099Y-43649D01*
X101099Y-44649D01*
X101137Y-44741D01*
X101187Y-44790D01*
X100812Y-44790D01*
X100861Y-44741D01*
X100899Y-44649D01*
X100900Y-44550D01*
X100900Y-43649D01*
X100900Y-42650D01*
X100900Y-41650D01*
X100862Y-41558D01*
X100791Y-41488D01*
X100699Y-41450D01*
X100600Y-41449D01*
X100100Y-41449D01*
X100008Y-41487D01*
X99938Y-41558D01*
X99900Y-41650D01*
X99899Y-41749D01*
X99899Y-41979D01*
X99887Y-41987D01*
X99584Y-42290D01*
X99446Y-42290D01*
X99412Y-42208D01*
X99341Y-42138D01*
X99249Y-42100D01*
X99150Y-42099D01*
X98150Y-42099D01*
X98058Y-42137D01*
X97988Y-42208D01*
X97986Y-42212D01*
X97574Y-42212D01*
X97484Y-42175D01*
X97315Y-42174D01*
X97159Y-42239D01*
X97039Y-42358D01*
X96975Y-42515D01*
X96974Y-42684D01*
X97039Y-42840D01*
X97158Y-42960D01*
X97315Y-43024D01*
X97484Y-43025D01*
X97574Y-42987D01*
X97986Y-42987D01*
X97987Y-42991D01*
X98058Y-43061D01*
X98150Y-43099D01*
X98249Y-43100D01*
X99249Y-43100D01*
X99341Y-43062D01*
X99411Y-42991D01*
X99446Y-42909D01*
X99700Y-42909D01*
X99818Y-42885D01*
X99918Y-42818D01*
X99924Y-42809D01*
X99937Y-42841D01*
X100008Y-42911D01*
X100100Y-42949D01*
X100199Y-42950D01*
X100699Y-42950D01*
X100791Y-42912D01*
X100861Y-42841D01*
X100899Y-42749D01*
X100900Y-42650D01*
X100900Y-43649D01*
X100899Y-43550D01*
X100861Y-43458D01*
X100791Y-43387D01*
X100699Y-43349D01*
X100512Y-43350D01*
X100450Y-43412D01*
X100450Y-44050D01*
X100837Y-44050D01*
X100900Y-43987D01*
X100900Y-43649D01*
X100900Y-44550D01*
X100900Y-44212D01*
X100837Y-44150D01*
X100450Y-44150D01*
X100450Y-44157D01*
X100350Y-44157D01*
X100350Y-44150D01*
X100350Y-44050D01*
X100350Y-43412D01*
X100287Y-43350D01*
X100100Y-43349D01*
X100008Y-43387D01*
X99938Y-43458D01*
X99900Y-43550D01*
X99899Y-43649D01*
X99900Y-43987D01*
X99962Y-44050D01*
X100350Y-44050D01*
X100350Y-44150D01*
X99962Y-44150D01*
X99900Y-44212D01*
X99899Y-44550D01*
X99900Y-44649D01*
X99938Y-44741D01*
X99987Y-44790D01*
X99450Y-44790D01*
X99450Y-44099D01*
X99450Y-43500D01*
X99412Y-43408D01*
X99341Y-43338D01*
X99249Y-43300D01*
X99150Y-43299D01*
X98812Y-43300D01*
X98750Y-43362D01*
X98750Y-43750D01*
X99387Y-43750D01*
X99450Y-43687D01*
X99450Y-43500D01*
X99450Y-44099D01*
X99450Y-43912D01*
X99387Y-43850D01*
X98750Y-43850D01*
X98750Y-44237D01*
X98812Y-44300D01*
X99150Y-44300D01*
X99249Y-44299D01*
X99341Y-44261D01*
X99412Y-44191D01*
X99450Y-44099D01*
X99450Y-44790D01*
X98650Y-44790D01*
X98650Y-44237D01*
X98650Y-43850D01*
X98650Y-43750D01*
X98650Y-43362D01*
X98587Y-43300D01*
X98249Y-43299D01*
X98150Y-43300D01*
X98058Y-43338D01*
X97987Y-43408D01*
X97949Y-43500D01*
X97950Y-43687D01*
X98012Y-43750D01*
X98650Y-43750D01*
X98650Y-43850D01*
X98012Y-43850D01*
X97950Y-43912D01*
X97949Y-44099D01*
X97987Y-44191D01*
X98058Y-44261D01*
X98150Y-44299D01*
X98249Y-44300D01*
X98587Y-44300D01*
X98650Y-44237D01*
X98650Y-44790D01*
X97475Y-44790D01*
X97469Y-44790D01*
X96146Y-44790D01*
X95936Y-44581D01*
X95836Y-44514D01*
X95718Y-44490D01*
X95646Y-44490D01*
X95612Y-44408D01*
X95541Y-44338D01*
X95449Y-44300D01*
X95350Y-44299D01*
X95287Y-44299D01*
X95287Y-44075D01*
X95454Y-44075D01*
X95546Y-44037D01*
X95616Y-43966D01*
X95654Y-43874D01*
X95655Y-43775D01*
X95655Y-43275D01*
X95617Y-43183D01*
X95546Y-43113D01*
X95454Y-43075D01*
X95355Y-43074D01*
X94355Y-43074D01*
X94263Y-43112D01*
X94193Y-43183D01*
X94155Y-43275D01*
X94154Y-43374D01*
X94154Y-43874D01*
X94192Y-43966D01*
X94263Y-44036D01*
X94355Y-44074D01*
X94454Y-44075D01*
X94512Y-44075D01*
X94512Y-44299D01*
X94350Y-44299D01*
X94258Y-44337D01*
X94188Y-44408D01*
X94150Y-44500D01*
X94149Y-44599D01*
X94149Y-45099D01*
X94187Y-45191D01*
X94258Y-45261D01*
X94350Y-45299D01*
X94449Y-45300D01*
X95449Y-45300D01*
X95541Y-45262D01*
X95611Y-45191D01*
X95629Y-45148D01*
X95799Y-45318D01*
X95799Y-45318D01*
X95899Y-45385D01*
X95899Y-45385D01*
X95994Y-45404D01*
X96017Y-45409D01*
X96017Y-45409D01*
X96018Y-45409D01*
X97469Y-45409D01*
X97475Y-45409D01*
X99987Y-45409D01*
X99938Y-45458D01*
X99900Y-45550D01*
X99899Y-45649D01*
X99900Y-45987D01*
X99962Y-46050D01*
X100350Y-46050D01*
X100350Y-46042D01*
X100450Y-46042D01*
X100450Y-46050D01*
X100837Y-46050D01*
X100900Y-45987D01*
X100900Y-45649D01*
X100899Y-45550D01*
X100861Y-45458D01*
X100812Y-45409D01*
X101187Y-45409D01*
X101138Y-45458D01*
X101100Y-45550D01*
X101099Y-45649D01*
X101099Y-46649D01*
X101137Y-46741D01*
X101208Y-46811D01*
X101300Y-46849D01*
X101399Y-46850D01*
X101636Y-46850D01*
X101381Y-47105D01*
X101314Y-47205D01*
X101290Y-47323D01*
X101290Y-47353D01*
X101208Y-47387D01*
X101138Y-47458D01*
X101100Y-47550D01*
X101099Y-47649D01*
X101099Y-48649D01*
X101137Y-48741D01*
X101208Y-48811D01*
X101209Y-48812D01*
X100960Y-48812D01*
X100870Y-48721D01*
X100899Y-48649D01*
X100900Y-48550D01*
X100900Y-47550D01*
X100900Y-46550D01*
X100900Y-46212D01*
X100837Y-46150D01*
X100450Y-46150D01*
X100450Y-46787D01*
X100512Y-46850D01*
X100699Y-46850D01*
X100791Y-46812D01*
X100861Y-46741D01*
X100899Y-46649D01*
X100900Y-46550D01*
X100900Y-47550D01*
X100862Y-47458D01*
X100791Y-47388D01*
X100699Y-47350D01*
X100600Y-47349D01*
X100350Y-47349D01*
X100350Y-46787D01*
X100350Y-46150D01*
X99962Y-46150D01*
X99900Y-46212D01*
X99899Y-46550D01*
X99900Y-46649D01*
X99938Y-46741D01*
X100008Y-46812D01*
X100100Y-46850D01*
X100287Y-46850D01*
X100350Y-46787D01*
X100350Y-47349D01*
X100100Y-47349D01*
X100008Y-47387D01*
X99938Y-47458D01*
X99900Y-47550D01*
X99900Y-47562D01*
X99818Y-47481D01*
X99718Y-47414D01*
X99600Y-47390D01*
X99450Y-47390D01*
X99450Y-46799D01*
X99450Y-46200D01*
X99412Y-46108D01*
X99341Y-46038D01*
X99249Y-46000D01*
X99150Y-45999D01*
X98812Y-46000D01*
X98750Y-46062D01*
X98750Y-46450D01*
X99387Y-46450D01*
X99450Y-46387D01*
X99450Y-46200D01*
X99450Y-46799D01*
X99450Y-46612D01*
X99387Y-46550D01*
X98750Y-46550D01*
X98750Y-46937D01*
X98812Y-47000D01*
X99150Y-47000D01*
X99249Y-46999D01*
X99341Y-46961D01*
X99412Y-46891D01*
X99450Y-46799D01*
X99450Y-47390D01*
X99446Y-47390D01*
X99412Y-47308D01*
X99341Y-47238D01*
X99249Y-47200D01*
X99150Y-47199D01*
X98650Y-47199D01*
X98650Y-46937D01*
X98650Y-46550D01*
X98650Y-46450D01*
X98650Y-46062D01*
X98587Y-46000D01*
X98249Y-45999D01*
X98150Y-46000D01*
X98058Y-46038D01*
X97987Y-46108D01*
X97949Y-46200D01*
X97950Y-46387D01*
X98012Y-46450D01*
X98650Y-46450D01*
X98650Y-46550D01*
X98012Y-46550D01*
X97950Y-46612D01*
X97949Y-46799D01*
X97987Y-46891D01*
X98058Y-46961D01*
X98150Y-46999D01*
X98249Y-47000D01*
X98587Y-47000D01*
X98650Y-46937D01*
X98650Y-47199D01*
X98150Y-47199D01*
X98058Y-47237D01*
X97988Y-47308D01*
X97950Y-47400D01*
X97949Y-47499D01*
X97949Y-47999D01*
X97987Y-48091D01*
X98058Y-48161D01*
X98150Y-48199D01*
X98249Y-48200D01*
X99249Y-48200D01*
X99341Y-48162D01*
X99411Y-48091D01*
X99446Y-48009D01*
X99471Y-48009D01*
X99781Y-48318D01*
X99781Y-48318D01*
X99881Y-48385D01*
X99881Y-48385D01*
X99899Y-48389D01*
X99899Y-48649D01*
X99937Y-48741D01*
X100008Y-48811D01*
X100015Y-48814D01*
X100041Y-48948D01*
X100125Y-49074D01*
X100142Y-49090D01*
X99822Y-49090D01*
X99824Y-49084D01*
X99825Y-48915D01*
X99760Y-48759D01*
X99641Y-48639D01*
X99484Y-48575D01*
X99315Y-48574D01*
X99159Y-48639D01*
X99108Y-48690D01*
X95650Y-48690D01*
X95650Y-46299D01*
X95650Y-45700D01*
X95612Y-45608D01*
X95541Y-45538D01*
X95449Y-45500D01*
X95350Y-45499D01*
X95012Y-45500D01*
X94950Y-45562D01*
X94950Y-45950D01*
X95587Y-45950D01*
X95650Y-45887D01*
X95650Y-45700D01*
X95650Y-46299D01*
X95650Y-46112D01*
X95587Y-46050D01*
X94950Y-46050D01*
X94950Y-46437D01*
X95012Y-46500D01*
X95350Y-46500D01*
X95449Y-46499D01*
X95541Y-46461D01*
X95612Y-46391D01*
X95650Y-46299D01*
X95650Y-48690D01*
X94850Y-48690D01*
X94850Y-46437D01*
X94850Y-46050D01*
X94850Y-45950D01*
X94850Y-45562D01*
X94787Y-45500D01*
X94449Y-45499D01*
X94350Y-45500D01*
X94258Y-45538D01*
X94187Y-45608D01*
X94149Y-45700D01*
X94150Y-45887D01*
X94212Y-45950D01*
X94850Y-45950D01*
X94850Y-46050D01*
X94212Y-46050D01*
X94150Y-46112D01*
X94149Y-46299D01*
X94187Y-46391D01*
X94258Y-46461D01*
X94350Y-46499D01*
X94449Y-46500D01*
X94787Y-46500D01*
X94850Y-46437D01*
X94850Y-48690D01*
X88185Y-48690D01*
X88325Y-48551D01*
X88419Y-48323D01*
X88420Y-48077D01*
X88325Y-47849D01*
X88151Y-47674D01*
X87923Y-47580D01*
X87677Y-47579D01*
X87449Y-47674D01*
X87299Y-47823D01*
X87151Y-47674D01*
X86923Y-47580D01*
X86677Y-47579D01*
X86449Y-47674D01*
X86299Y-47823D01*
X86151Y-47674D01*
X85923Y-47580D01*
X85677Y-47579D01*
X85449Y-47674D01*
X85420Y-47703D01*
X85420Y-46077D01*
X85325Y-45849D01*
X85176Y-45699D01*
X85325Y-45551D01*
X85419Y-45323D01*
X85420Y-45077D01*
X85325Y-44849D01*
X85176Y-44699D01*
X85325Y-44551D01*
X85419Y-44323D01*
X85420Y-44077D01*
X85325Y-43849D01*
X85151Y-43674D01*
X84923Y-43580D01*
X84677Y-43579D01*
X84449Y-43674D01*
X84299Y-43823D01*
X84151Y-43674D01*
X83923Y-43580D01*
X83677Y-43579D01*
X83449Y-43674D01*
X83299Y-43823D01*
X83151Y-43674D01*
X82923Y-43580D01*
X82677Y-43579D01*
X82449Y-43674D01*
X82299Y-43823D01*
X82151Y-43674D01*
X81923Y-43580D01*
X81677Y-43579D01*
X81449Y-43674D01*
X81274Y-43848D01*
X81180Y-44076D01*
X81179Y-44322D01*
X81274Y-44550D01*
X81423Y-44700D01*
X81274Y-44848D01*
X81180Y-45076D01*
X81179Y-45322D01*
X81274Y-45550D01*
X81448Y-45725D01*
X81676Y-45819D01*
X81922Y-45820D01*
X82150Y-45725D01*
X82300Y-45576D01*
X82448Y-45725D01*
X82676Y-45819D01*
X82922Y-45820D01*
X83150Y-45725D01*
X83300Y-45576D01*
X83448Y-45725D01*
X83676Y-45819D01*
X83922Y-45820D01*
X84150Y-45725D01*
X84300Y-45576D01*
X84423Y-45700D01*
X84274Y-45848D01*
X84180Y-46076D01*
X84179Y-46322D01*
X84274Y-46550D01*
X84448Y-46725D01*
X84676Y-46819D01*
X84922Y-46820D01*
X85150Y-46725D01*
X85325Y-46551D01*
X85419Y-46323D01*
X85420Y-46077D01*
X85420Y-47703D01*
X85299Y-47823D01*
X85151Y-47674D01*
X84923Y-47580D01*
X84677Y-47579D01*
X84449Y-47674D01*
X84299Y-47823D01*
X84151Y-47674D01*
X83923Y-47580D01*
X83677Y-47579D01*
X83449Y-47674D01*
X83299Y-47823D01*
X83151Y-47674D01*
X82923Y-47580D01*
X82677Y-47579D01*
X82449Y-47674D01*
X82299Y-47823D01*
X82151Y-47674D01*
X81923Y-47580D01*
X81677Y-47579D01*
X81449Y-47674D01*
X81299Y-47823D01*
X81151Y-47674D01*
X80923Y-47580D01*
X80677Y-47579D01*
X80449Y-47674D01*
X80299Y-47823D01*
X80151Y-47674D01*
X79923Y-47580D01*
X79677Y-47579D01*
X79449Y-47674D01*
X79299Y-47823D01*
X79165Y-47688D01*
X79165Y-42636D01*
X78800Y-42270D01*
X78434Y-42636D01*
X78470Y-42739D01*
X78701Y-42824D01*
X78947Y-42814D01*
X79129Y-42739D01*
X79165Y-42636D01*
X79165Y-47688D01*
X79151Y-47674D01*
X78923Y-47580D01*
X78677Y-47579D01*
X78449Y-47674D01*
X78299Y-47823D01*
X78151Y-47674D01*
X77923Y-47580D01*
X77677Y-47579D01*
X77449Y-47674D01*
X77299Y-47823D01*
X77151Y-47674D01*
X76923Y-47580D01*
X76677Y-47579D01*
X76449Y-47674D01*
X76299Y-47823D01*
X76151Y-47674D01*
X75923Y-47580D01*
X75677Y-47579D01*
X75449Y-47674D01*
X75299Y-47823D01*
X75160Y-47683D01*
X75160Y-45468D01*
X75090Y-45299D01*
X75159Y-45131D01*
X75160Y-44948D01*
X75090Y-44779D01*
X74960Y-44650D01*
X74791Y-44580D01*
X74608Y-44579D01*
X74439Y-44649D01*
X74310Y-44779D01*
X74240Y-44948D01*
X74239Y-45131D01*
X74309Y-45300D01*
X74240Y-45468D01*
X74239Y-45651D01*
X74309Y-45820D01*
X74439Y-45949D01*
X74608Y-46019D01*
X74791Y-46020D01*
X74960Y-45950D01*
X75089Y-45820D01*
X75159Y-45651D01*
X75160Y-45468D01*
X75160Y-47683D01*
X75151Y-47674D01*
X74923Y-47580D01*
X74677Y-47579D01*
X74449Y-47674D01*
X74299Y-47823D01*
X74151Y-47674D01*
X73923Y-47580D01*
X73677Y-47579D01*
X73449Y-47674D01*
X73299Y-47823D01*
X73151Y-47674D01*
X72923Y-47580D01*
X72677Y-47579D01*
X72449Y-47674D01*
X72299Y-47823D01*
X72151Y-47674D01*
X71923Y-47580D01*
X71677Y-47579D01*
X71449Y-47674D01*
X71299Y-47823D01*
X71151Y-47674D01*
X70923Y-47580D01*
X70677Y-47579D01*
X70449Y-47674D01*
X70299Y-47823D01*
X70151Y-47674D01*
X69923Y-47580D01*
X69677Y-47579D01*
X69449Y-47674D01*
X69397Y-47725D01*
X69381Y-47688D01*
X69311Y-47617D01*
X69219Y-47579D01*
X68912Y-47580D01*
X68850Y-47642D01*
X68850Y-48150D01*
X68857Y-48150D01*
X68857Y-48250D01*
X68850Y-48250D01*
X68850Y-48757D01*
X68912Y-48820D01*
X69219Y-48820D01*
X69311Y-48782D01*
X69381Y-48711D01*
X69397Y-48674D01*
X69448Y-48725D01*
X69676Y-48819D01*
X69922Y-48820D01*
X70150Y-48725D01*
X70300Y-48576D01*
X70448Y-48725D01*
X70490Y-48742D01*
X70490Y-49000D01*
X70514Y-49118D01*
X70581Y-49218D01*
X72281Y-50918D01*
X72381Y-50985D01*
X72381Y-50985D01*
X72500Y-51009D01*
X94799Y-51009D01*
X94799Y-51249D01*
X94837Y-51341D01*
X94908Y-51411D01*
X94912Y-51413D01*
X94912Y-51600D01*
X94941Y-51748D01*
X95025Y-51874D01*
X95492Y-52341D01*
X95492Y-52341D01*
X95508Y-52351D01*
X95508Y-52351D01*
X95530Y-52405D01*
X95600Y-52475D01*
X95625Y-52485D01*
X95317Y-52485D01*
X95226Y-52523D01*
X95155Y-52594D01*
X95117Y-52686D01*
X95117Y-52785D01*
X95117Y-52792D01*
X95025Y-52883D01*
X94941Y-53009D01*
X94912Y-53158D01*
X94912Y-53586D01*
X94908Y-53587D01*
X94838Y-53658D01*
X94800Y-53750D01*
X94799Y-53849D01*
X94799Y-54849D01*
X94837Y-54941D01*
X94908Y-55011D01*
X94912Y-55013D01*
X94912Y-55639D01*
X94439Y-56112D01*
X90491Y-56112D01*
X90511Y-56091D01*
X90514Y-56084D01*
X90648Y-56058D01*
X90774Y-55974D01*
X91150Y-55597D01*
X91240Y-55560D01*
X91360Y-55441D01*
X91424Y-55284D01*
X91425Y-55115D01*
X91360Y-54959D01*
X91241Y-54839D01*
X91084Y-54775D01*
X90915Y-54774D01*
X90759Y-54839D01*
X90639Y-54958D01*
X90602Y-55049D01*
X90550Y-55101D01*
X90550Y-54799D01*
X90550Y-54200D01*
X90512Y-54108D01*
X90441Y-54038D01*
X90349Y-54000D01*
X90250Y-53999D01*
X89912Y-54000D01*
X89850Y-54062D01*
X89850Y-54450D01*
X90487Y-54450D01*
X90550Y-54387D01*
X90550Y-54200D01*
X90550Y-54799D01*
X90550Y-54612D01*
X90487Y-54550D01*
X89850Y-54550D01*
X89850Y-54937D01*
X89912Y-55000D01*
X90250Y-55000D01*
X90349Y-54999D01*
X90441Y-54961D01*
X90512Y-54891D01*
X90550Y-54799D01*
X90550Y-55101D01*
X90421Y-55229D01*
X90349Y-55200D01*
X90250Y-55199D01*
X89750Y-55199D01*
X89750Y-54937D01*
X89750Y-54550D01*
X89750Y-54450D01*
X89750Y-54062D01*
X89687Y-54000D01*
X89349Y-53999D01*
X89250Y-54000D01*
X89158Y-54038D01*
X89087Y-54108D01*
X89049Y-54200D01*
X89050Y-54387D01*
X89112Y-54450D01*
X89750Y-54450D01*
X89750Y-54550D01*
X89112Y-54550D01*
X89050Y-54612D01*
X89049Y-54799D01*
X89087Y-54891D01*
X89158Y-54961D01*
X89250Y-54999D01*
X89349Y-55000D01*
X89687Y-55000D01*
X89750Y-54937D01*
X89750Y-55199D01*
X89250Y-55199D01*
X89158Y-55237D01*
X89088Y-55308D01*
X89086Y-55312D01*
X88513Y-55312D01*
X88512Y-55308D01*
X88441Y-55238D01*
X88349Y-55200D01*
X88250Y-55199D01*
X87250Y-55199D01*
X87158Y-55237D01*
X87088Y-55308D01*
X87086Y-55312D01*
X85913Y-55312D01*
X85844Y-55243D01*
X85977Y-55243D01*
X86069Y-55205D01*
X86139Y-55135D01*
X86177Y-55043D01*
X86177Y-54987D01*
X86550Y-54987D01*
X86698Y-54958D01*
X86803Y-54887D01*
X87086Y-54887D01*
X87087Y-54891D01*
X87158Y-54961D01*
X87250Y-54999D01*
X87349Y-55000D01*
X88349Y-55000D01*
X88441Y-54962D01*
X88511Y-54891D01*
X88549Y-54799D01*
X88550Y-54700D01*
X88550Y-54200D01*
X88512Y-54108D01*
X88441Y-54038D01*
X88349Y-54000D01*
X88250Y-53999D01*
X88187Y-53999D01*
X88187Y-53700D01*
X88349Y-53700D01*
X88441Y-53662D01*
X88511Y-53591D01*
X88549Y-53499D01*
X88550Y-53400D01*
X88550Y-52900D01*
X88550Y-52299D01*
X88550Y-51700D01*
X88512Y-51608D01*
X88441Y-51538D01*
X88349Y-51500D01*
X88250Y-51499D01*
X87912Y-51500D01*
X87850Y-51562D01*
X87850Y-51950D01*
X88487Y-51950D01*
X88550Y-51887D01*
X88550Y-51700D01*
X88550Y-52299D01*
X88550Y-52112D01*
X88487Y-52050D01*
X87850Y-52050D01*
X87850Y-52437D01*
X87912Y-52500D01*
X88250Y-52500D01*
X88349Y-52499D01*
X88441Y-52461D01*
X88512Y-52391D01*
X88550Y-52299D01*
X88550Y-52900D01*
X88512Y-52808D01*
X88441Y-52738D01*
X88349Y-52700D01*
X88250Y-52699D01*
X87750Y-52699D01*
X87750Y-52437D01*
X87750Y-52050D01*
X87750Y-51950D01*
X87750Y-51562D01*
X87687Y-51500D01*
X87349Y-51499D01*
X87250Y-51500D01*
X87158Y-51538D01*
X87087Y-51608D01*
X87049Y-51700D01*
X87050Y-51887D01*
X87112Y-51950D01*
X87750Y-51950D01*
X87750Y-52050D01*
X87112Y-52050D01*
X87050Y-52112D01*
X87049Y-52299D01*
X87087Y-52391D01*
X87158Y-52461D01*
X87250Y-52499D01*
X87349Y-52500D01*
X87687Y-52500D01*
X87750Y-52437D01*
X87750Y-52699D01*
X87250Y-52699D01*
X87158Y-52737D01*
X87088Y-52808D01*
X87050Y-52900D01*
X87049Y-52999D01*
X87049Y-53499D01*
X87087Y-53591D01*
X87158Y-53661D01*
X87250Y-53699D01*
X87349Y-53700D01*
X87412Y-53700D01*
X87412Y-53999D01*
X87250Y-53999D01*
X87158Y-54037D01*
X87088Y-54108D01*
X87086Y-54112D01*
X86650Y-54112D01*
X86501Y-54141D01*
X86396Y-54212D01*
X86177Y-54212D01*
X86177Y-54156D01*
X86140Y-54064D01*
X86069Y-53994D01*
X85977Y-53956D01*
X85878Y-53956D01*
X85679Y-53956D01*
X85679Y-52581D01*
X85679Y-51893D01*
X85679Y-51794D01*
X85641Y-51702D01*
X85571Y-51632D01*
X85479Y-51594D01*
X84912Y-51594D01*
X84850Y-51656D01*
X84850Y-52187D01*
X85617Y-52187D01*
X85679Y-52125D01*
X85679Y-51893D01*
X85679Y-52581D01*
X85679Y-52350D01*
X85617Y-52287D01*
X84850Y-52287D01*
X84850Y-52818D01*
X84912Y-52881D01*
X85479Y-52881D01*
X85571Y-52843D01*
X85641Y-52773D01*
X85679Y-52681D01*
X85679Y-52581D01*
X85679Y-53956D01*
X85622Y-53956D01*
X85549Y-53986D01*
X85477Y-53956D01*
X85378Y-53956D01*
X85122Y-53956D01*
X85050Y-53986D01*
X84977Y-53956D01*
X84912Y-53956D01*
X84850Y-54018D01*
X84850Y-54550D01*
X84857Y-54550D01*
X84857Y-54650D01*
X84850Y-54650D01*
X84850Y-55181D01*
X84912Y-55243D01*
X84912Y-55275D01*
X84941Y-55423D01*
X85025Y-55549D01*
X85184Y-55708D01*
X85239Y-55840D01*
X85358Y-55960D01*
X85515Y-56024D01*
X85526Y-56024D01*
X85534Y-56030D01*
X85576Y-56058D01*
X85576Y-56058D01*
X85724Y-56087D01*
X85725Y-56087D01*
X87086Y-56087D01*
X87087Y-56091D01*
X87108Y-56112D01*
X81588Y-56112D01*
X81685Y-56016D01*
X81722Y-55925D01*
X82074Y-55574D01*
X82074Y-55574D01*
X82158Y-55448D01*
X82158Y-55448D01*
X82163Y-55423D01*
X82187Y-55300D01*
X82187Y-55300D01*
X82187Y-55200D01*
X82349Y-55200D01*
X82441Y-55162D01*
X82511Y-55091D01*
X82513Y-55087D01*
X83440Y-55087D01*
X83459Y-55135D01*
X83530Y-55205D01*
X83622Y-55243D01*
X83721Y-55243D01*
X83977Y-55243D01*
X84050Y-55213D01*
X84122Y-55243D01*
X84221Y-55243D01*
X84477Y-55243D01*
X84550Y-55213D01*
X84622Y-55243D01*
X84687Y-55243D01*
X84750Y-55181D01*
X84750Y-54650D01*
X84742Y-54650D01*
X84742Y-54550D01*
X84750Y-54550D01*
X84750Y-54018D01*
X84750Y-52818D01*
X84750Y-52287D01*
X84750Y-52187D01*
X84750Y-51656D01*
X84687Y-51594D01*
X84120Y-51594D01*
X84028Y-51632D01*
X83958Y-51702D01*
X83920Y-51794D01*
X83920Y-51893D01*
X83920Y-52125D01*
X83982Y-52187D01*
X84750Y-52187D01*
X84750Y-52287D01*
X83982Y-52287D01*
X83920Y-52350D01*
X83920Y-52581D01*
X83920Y-52681D01*
X83958Y-52773D01*
X84028Y-52843D01*
X84120Y-52881D01*
X84687Y-52881D01*
X84750Y-52818D01*
X84750Y-54018D01*
X84687Y-53956D01*
X84622Y-53956D01*
X84549Y-53986D01*
X84477Y-53956D01*
X84378Y-53956D01*
X84122Y-53956D01*
X84049Y-53986D01*
X83977Y-53956D01*
X83878Y-53956D01*
X83622Y-53956D01*
X83530Y-53994D01*
X83460Y-54064D01*
X83422Y-54156D01*
X83422Y-54255D01*
X83422Y-54312D01*
X82550Y-54312D01*
X82550Y-53799D01*
X82550Y-53200D01*
X82512Y-53108D01*
X82441Y-53038D01*
X82349Y-53000D01*
X82250Y-52999D01*
X81912Y-53000D01*
X81850Y-53062D01*
X81850Y-53450D01*
X82487Y-53450D01*
X82550Y-53387D01*
X82550Y-53200D01*
X82550Y-53799D01*
X82550Y-53612D01*
X82487Y-53550D01*
X81850Y-53550D01*
X81850Y-53937D01*
X81912Y-54000D01*
X82250Y-54000D01*
X82349Y-53999D01*
X82441Y-53961D01*
X82512Y-53891D01*
X82550Y-53799D01*
X82550Y-54312D01*
X82513Y-54312D01*
X82512Y-54308D01*
X82441Y-54238D01*
X82349Y-54200D01*
X82250Y-54199D01*
X81750Y-54199D01*
X81750Y-53937D01*
X81750Y-53550D01*
X81750Y-53450D01*
X81750Y-53062D01*
X81687Y-53000D01*
X81349Y-52999D01*
X81250Y-53000D01*
X81158Y-53038D01*
X81087Y-53108D01*
X81049Y-53200D01*
X81050Y-53387D01*
X81112Y-53450D01*
X81750Y-53450D01*
X81750Y-53550D01*
X81112Y-53550D01*
X81050Y-53612D01*
X81049Y-53799D01*
X81087Y-53891D01*
X81158Y-53961D01*
X81250Y-53999D01*
X81349Y-54000D01*
X81687Y-54000D01*
X81750Y-53937D01*
X81750Y-54199D01*
X81250Y-54199D01*
X81158Y-54237D01*
X81088Y-54308D01*
X81050Y-54400D01*
X81049Y-54499D01*
X81049Y-54999D01*
X81087Y-55091D01*
X81158Y-55161D01*
X81250Y-55199D01*
X81349Y-55200D01*
X81351Y-55200D01*
X81174Y-55377D01*
X81084Y-55414D01*
X80964Y-55533D01*
X80900Y-55690D01*
X80899Y-55859D01*
X80964Y-56015D01*
X81061Y-56112D01*
X79491Y-56112D01*
X79511Y-56091D01*
X79549Y-55999D01*
X79550Y-55900D01*
X79550Y-55400D01*
X79550Y-54799D01*
X79550Y-54200D01*
X79512Y-54108D01*
X79441Y-54038D01*
X79349Y-54000D01*
X79250Y-53999D01*
X78912Y-54000D01*
X78850Y-54062D01*
X78850Y-54450D01*
X79487Y-54450D01*
X79550Y-54387D01*
X79550Y-54200D01*
X79550Y-54799D01*
X79550Y-54612D01*
X79487Y-54550D01*
X78850Y-54550D01*
X78850Y-54937D01*
X78912Y-55000D01*
X79250Y-55000D01*
X79349Y-54999D01*
X79441Y-54961D01*
X79512Y-54891D01*
X79550Y-54799D01*
X79550Y-55400D01*
X79512Y-55308D01*
X79441Y-55238D01*
X79349Y-55200D01*
X79250Y-55199D01*
X78750Y-55199D01*
X78750Y-54937D01*
X78750Y-54550D01*
X78750Y-54450D01*
X78750Y-54062D01*
X78687Y-54000D01*
X78349Y-53999D01*
X78250Y-54000D01*
X78158Y-54038D01*
X78087Y-54108D01*
X78049Y-54200D01*
X78050Y-54387D01*
X78112Y-54450D01*
X78750Y-54450D01*
X78750Y-54550D01*
X78112Y-54550D01*
X78050Y-54612D01*
X78049Y-54799D01*
X78087Y-54891D01*
X78158Y-54961D01*
X78250Y-54999D01*
X78349Y-55000D01*
X78687Y-55000D01*
X78750Y-54937D01*
X78750Y-55199D01*
X78250Y-55199D01*
X78158Y-55237D01*
X78088Y-55308D01*
X78086Y-55312D01*
X77513Y-55312D01*
X77512Y-55308D01*
X77441Y-55238D01*
X77349Y-55200D01*
X77250Y-55199D01*
X76250Y-55199D01*
X76158Y-55237D01*
X76088Y-55308D01*
X76086Y-55312D01*
X74687Y-55312D01*
X74687Y-55243D01*
X74721Y-55243D01*
X74977Y-55243D01*
X75069Y-55205D01*
X75139Y-55135D01*
X75177Y-55043D01*
X75177Y-54987D01*
X75600Y-54987D01*
X75748Y-54958D01*
X75853Y-54887D01*
X76086Y-54887D01*
X76087Y-54891D01*
X76158Y-54961D01*
X76250Y-54999D01*
X76349Y-55000D01*
X77349Y-55000D01*
X77441Y-54962D01*
X77511Y-54891D01*
X77549Y-54799D01*
X77550Y-54700D01*
X77550Y-54200D01*
X77512Y-54108D01*
X77441Y-54038D01*
X77349Y-54000D01*
X77250Y-53999D01*
X77187Y-53999D01*
X77187Y-53700D01*
X77349Y-53700D01*
X77441Y-53662D01*
X77511Y-53591D01*
X77549Y-53499D01*
X77550Y-53400D01*
X77550Y-52900D01*
X77550Y-52299D01*
X77550Y-51700D01*
X77512Y-51608D01*
X77441Y-51538D01*
X77349Y-51500D01*
X77250Y-51499D01*
X76912Y-51500D01*
X76850Y-51562D01*
X76850Y-51950D01*
X77487Y-51950D01*
X77550Y-51887D01*
X77550Y-51700D01*
X77550Y-52299D01*
X77550Y-52112D01*
X77487Y-52050D01*
X76850Y-52050D01*
X76850Y-52437D01*
X76912Y-52500D01*
X77250Y-52500D01*
X77349Y-52499D01*
X77441Y-52461D01*
X77512Y-52391D01*
X77550Y-52299D01*
X77550Y-52900D01*
X77512Y-52808D01*
X77441Y-52738D01*
X77349Y-52700D01*
X77250Y-52699D01*
X76750Y-52699D01*
X76750Y-52437D01*
X76750Y-52050D01*
X76750Y-51950D01*
X76750Y-51562D01*
X76687Y-51500D01*
X76349Y-51499D01*
X76250Y-51500D01*
X76158Y-51538D01*
X76087Y-51608D01*
X76049Y-51700D01*
X76050Y-51887D01*
X76112Y-51950D01*
X76750Y-51950D01*
X76750Y-52050D01*
X76112Y-52050D01*
X76050Y-52112D01*
X76049Y-52299D01*
X76087Y-52391D01*
X76158Y-52461D01*
X76250Y-52499D01*
X76349Y-52500D01*
X76687Y-52500D01*
X76750Y-52437D01*
X76750Y-52699D01*
X76250Y-52699D01*
X76158Y-52737D01*
X76088Y-52808D01*
X76050Y-52900D01*
X76049Y-52999D01*
X76049Y-53499D01*
X76087Y-53591D01*
X76158Y-53661D01*
X76250Y-53699D01*
X76349Y-53700D01*
X76412Y-53700D01*
X76412Y-53999D01*
X76250Y-53999D01*
X76158Y-54037D01*
X76088Y-54108D01*
X76086Y-54112D01*
X75700Y-54112D01*
X75551Y-54141D01*
X75446Y-54212D01*
X75177Y-54212D01*
X75177Y-54156D01*
X75140Y-54064D01*
X75069Y-53994D01*
X74977Y-53956D01*
X74878Y-53956D01*
X74679Y-53956D01*
X74679Y-52581D01*
X74679Y-51893D01*
X74679Y-51794D01*
X74641Y-51702D01*
X74571Y-51632D01*
X74479Y-51594D01*
X73912Y-51594D01*
X73850Y-51656D01*
X73850Y-52187D01*
X74617Y-52187D01*
X74679Y-52125D01*
X74679Y-51893D01*
X74679Y-52581D01*
X74679Y-52350D01*
X74617Y-52287D01*
X73850Y-52287D01*
X73850Y-52818D01*
X73912Y-52881D01*
X74479Y-52881D01*
X74571Y-52843D01*
X74641Y-52773D01*
X74679Y-52681D01*
X74679Y-52581D01*
X74679Y-53956D01*
X74622Y-53956D01*
X74549Y-53986D01*
X74477Y-53956D01*
X74378Y-53956D01*
X74122Y-53956D01*
X74050Y-53986D01*
X73977Y-53956D01*
X73912Y-53956D01*
X73850Y-54018D01*
X73850Y-54550D01*
X73857Y-54550D01*
X73857Y-54650D01*
X73850Y-54650D01*
X73850Y-55181D01*
X73912Y-55243D01*
X73912Y-55557D01*
X72812Y-55557D01*
X72722Y-55519D01*
X72553Y-55519D01*
X72397Y-55584D01*
X72277Y-55703D01*
X72212Y-55859D01*
X72212Y-56029D01*
X72272Y-56174D01*
X71687Y-55589D01*
X71687Y-55200D01*
X71849Y-55200D01*
X71941Y-55162D01*
X72011Y-55091D01*
X72013Y-55087D01*
X72440Y-55087D01*
X72459Y-55135D01*
X72530Y-55205D01*
X72622Y-55243D01*
X72721Y-55243D01*
X72977Y-55243D01*
X73050Y-55213D01*
X73122Y-55243D01*
X73221Y-55243D01*
X73477Y-55243D01*
X73550Y-55213D01*
X73622Y-55243D01*
X73687Y-55243D01*
X73750Y-55181D01*
X73750Y-54650D01*
X73742Y-54650D01*
X73742Y-54550D01*
X73750Y-54550D01*
X73750Y-54018D01*
X73750Y-52818D01*
X73750Y-52287D01*
X73750Y-52187D01*
X73750Y-51656D01*
X73687Y-51594D01*
X73120Y-51594D01*
X73028Y-51632D01*
X72958Y-51702D01*
X72920Y-51794D01*
X72920Y-51893D01*
X72920Y-52125D01*
X72982Y-52187D01*
X73750Y-52187D01*
X73750Y-52287D01*
X72982Y-52287D01*
X72920Y-52350D01*
X72920Y-52581D01*
X72920Y-52681D01*
X72958Y-52773D01*
X73028Y-52843D01*
X73120Y-52881D01*
X73687Y-52881D01*
X73750Y-52818D01*
X73750Y-54018D01*
X73687Y-53956D01*
X73622Y-53956D01*
X73549Y-53986D01*
X73477Y-53956D01*
X73378Y-53956D01*
X73122Y-53956D01*
X73049Y-53986D01*
X72977Y-53956D01*
X72878Y-53956D01*
X72622Y-53956D01*
X72530Y-53994D01*
X72460Y-54064D01*
X72422Y-54156D01*
X72422Y-54255D01*
X72422Y-54312D01*
X72050Y-54312D01*
X72050Y-53799D01*
X72050Y-53200D01*
X72012Y-53108D01*
X71941Y-53038D01*
X71849Y-53000D01*
X71750Y-52999D01*
X71412Y-53000D01*
X71350Y-53062D01*
X71350Y-53450D01*
X71987Y-53450D01*
X72050Y-53387D01*
X72050Y-53200D01*
X72050Y-53799D01*
X72050Y-53612D01*
X71987Y-53550D01*
X71350Y-53550D01*
X71350Y-53937D01*
X71412Y-54000D01*
X71750Y-54000D01*
X71849Y-53999D01*
X71941Y-53961D01*
X72012Y-53891D01*
X72050Y-53799D01*
X72050Y-54312D01*
X72013Y-54312D01*
X72012Y-54308D01*
X71941Y-54238D01*
X71849Y-54200D01*
X71750Y-54199D01*
X71250Y-54199D01*
X71250Y-53937D01*
X71250Y-53550D01*
X71250Y-53450D01*
X71250Y-53062D01*
X71187Y-53000D01*
X70849Y-52999D01*
X70750Y-53000D01*
X70658Y-53038D01*
X70587Y-53108D01*
X70549Y-53200D01*
X70550Y-53387D01*
X70612Y-53450D01*
X71250Y-53450D01*
X71250Y-53550D01*
X70612Y-53550D01*
X70550Y-53612D01*
X70549Y-53799D01*
X70587Y-53891D01*
X70658Y-53961D01*
X70750Y-53999D01*
X70849Y-54000D01*
X71187Y-54000D01*
X71250Y-53937D01*
X71250Y-54199D01*
X70750Y-54199D01*
X70658Y-54237D01*
X70588Y-54308D01*
X70586Y-54312D01*
X70260Y-54312D01*
X68187Y-52239D01*
X68187Y-48638D01*
X68218Y-48711D01*
X68288Y-48782D01*
X68380Y-48820D01*
X68687Y-48820D01*
X68750Y-48757D01*
X68750Y-48250D01*
X68742Y-48250D01*
X68742Y-48150D01*
X68750Y-48150D01*
X68750Y-47642D01*
X68687Y-47580D01*
X68380Y-47579D01*
X68288Y-47617D01*
X68218Y-47688D01*
X68187Y-47761D01*
X68187Y-42960D01*
X68435Y-42712D01*
X68448Y-42725D01*
X68676Y-42819D01*
X68922Y-42820D01*
X69150Y-42725D01*
X69300Y-42576D01*
X69448Y-42725D01*
X69676Y-42819D01*
X69922Y-42820D01*
X70150Y-42725D01*
X70300Y-42576D01*
X70448Y-42725D01*
X70676Y-42819D01*
X70922Y-42820D01*
X71150Y-42725D01*
X71300Y-42576D01*
X71448Y-42725D01*
X71676Y-42819D01*
X71922Y-42820D01*
X72150Y-42725D01*
X72300Y-42576D01*
X72448Y-42725D01*
X72676Y-42819D01*
X72922Y-42820D01*
X73150Y-42725D01*
X73300Y-42576D01*
X73448Y-42725D01*
X73676Y-42819D01*
X73922Y-42820D01*
X74150Y-42725D01*
X74300Y-42576D01*
X74448Y-42725D01*
X74676Y-42819D01*
X74922Y-42820D01*
X75150Y-42725D01*
X75300Y-42576D01*
X75448Y-42725D01*
X75676Y-42819D01*
X75922Y-42820D01*
X76150Y-42725D01*
X76300Y-42576D01*
X76448Y-42725D01*
X76676Y-42819D01*
X76922Y-42820D01*
X77150Y-42725D01*
X77300Y-42576D01*
X77448Y-42725D01*
X77676Y-42819D01*
X77922Y-42820D01*
X78150Y-42725D01*
X78324Y-42552D01*
X78363Y-42565D01*
X78729Y-42200D01*
X78363Y-41834D01*
X78324Y-41847D01*
X78151Y-41674D01*
X77923Y-41580D01*
X77677Y-41579D01*
X77449Y-41674D01*
X77299Y-41823D01*
X77187Y-41710D01*
X77187Y-41300D01*
X77158Y-41151D01*
X77074Y-41025D01*
X76574Y-40525D01*
X76448Y-40441D01*
X76300Y-40412D01*
X75354Y-40412D01*
X75354Y-39881D01*
X75343Y-39663D01*
X75281Y-39512D01*
X75185Y-39484D01*
X75115Y-39555D01*
X75115Y-39414D01*
X75087Y-39318D01*
X74881Y-39245D01*
X74663Y-39256D01*
X74512Y-39318D01*
X74484Y-39414D01*
X74800Y-39729D01*
X75115Y-39414D01*
X75115Y-39555D01*
X74870Y-39800D01*
X75185Y-40115D01*
X75281Y-40087D01*
X75354Y-39881D01*
X75354Y-40412D01*
X75115Y-40412D01*
X75115Y-40185D01*
X74800Y-39870D01*
X74484Y-40185D01*
X74512Y-40281D01*
X74718Y-40354D01*
X74936Y-40343D01*
X75087Y-40281D01*
X75115Y-40185D01*
X75115Y-40412D01*
X74560Y-40412D01*
X74263Y-40114D01*
X74265Y-40111D01*
X74297Y-40036D01*
X74318Y-40087D01*
X74414Y-40115D01*
X74729Y-39800D01*
X74414Y-39484D01*
X74318Y-39512D01*
X74299Y-39567D01*
X74266Y-39488D01*
X74111Y-39334D01*
X73909Y-39250D01*
X73691Y-39249D01*
X73488Y-39333D01*
X73334Y-39488D01*
X73300Y-39569D01*
X73266Y-39488D01*
X73111Y-39334D01*
X72909Y-39250D01*
X72691Y-39249D01*
X72488Y-39333D01*
X72334Y-39488D01*
X72300Y-39569D01*
X72266Y-39488D01*
X72111Y-39334D01*
X71909Y-39250D01*
X71691Y-39249D01*
X71488Y-39333D01*
X71334Y-39488D01*
X71300Y-39569D01*
X71266Y-39488D01*
X71111Y-39334D01*
X70909Y-39250D01*
X70691Y-39249D01*
X70488Y-39333D01*
X70334Y-39488D01*
X70300Y-39569D01*
X70266Y-39488D01*
X70111Y-39334D01*
X69909Y-39250D01*
X69691Y-39249D01*
X69488Y-39333D01*
X69350Y-39472D01*
X69350Y-39450D01*
X69312Y-39358D01*
X69241Y-39288D01*
X69149Y-39250D01*
X69050Y-39249D01*
X68450Y-39249D01*
X68358Y-39287D01*
X68288Y-39358D01*
X68265Y-39412D01*
X68200Y-39412D01*
X68051Y-39441D01*
X68009Y-39469D01*
X67925Y-39525D01*
X66725Y-40725D01*
X66641Y-40851D01*
X66612Y-41000D01*
X66612Y-52800D01*
X66641Y-52948D01*
X66725Y-53074D01*
X71325Y-57674D01*
X71451Y-57758D01*
X71600Y-57787D01*
X83625Y-57787D01*
X83715Y-57824D01*
X83884Y-57825D01*
X84040Y-57760D01*
X84160Y-57641D01*
X84224Y-57484D01*
X84225Y-57315D01*
X84160Y-57159D01*
X84041Y-57039D01*
X83884Y-56975D01*
X83715Y-56974D01*
X83625Y-57012D01*
X77540Y-57012D01*
X77665Y-56960D01*
X77785Y-56841D01*
X77849Y-56684D01*
X77850Y-56515D01*
X77785Y-56359D01*
X77666Y-56239D01*
X77509Y-56175D01*
X77410Y-56174D01*
X77441Y-56162D01*
X77511Y-56091D01*
X77513Y-56087D01*
X78086Y-56087D01*
X78087Y-56091D01*
X78158Y-56161D01*
X78250Y-56199D01*
X78349Y-56200D01*
X78412Y-56200D01*
X78441Y-56348D01*
X78525Y-56474D01*
X78825Y-56774D01*
X78825Y-56774D01*
X78909Y-56830D01*
X78951Y-56858D01*
X78951Y-56858D01*
X79099Y-56887D01*
X79100Y-56887D01*
X94600Y-56887D01*
X97500Y-56887D01*
X97600Y-56887D01*
X98139Y-56887D01*
X98925Y-57674D01*
X99051Y-57758D01*
X99200Y-57787D01*
X105500Y-57787D01*
X105648Y-57758D01*
X105774Y-57674D01*
X106298Y-57149D01*
X106408Y-57150D01*
X106611Y-57066D01*
X106765Y-56911D01*
X106849Y-56709D01*
X106850Y-56491D01*
X106766Y-56288D01*
X106611Y-56134D01*
X106409Y-56050D01*
X106191Y-56049D01*
X105988Y-56133D01*
X105834Y-56288D01*
X105802Y-56363D01*
X105781Y-56312D01*
X105685Y-56284D01*
X105615Y-56355D01*
X105615Y-56214D01*
X105587Y-56118D01*
X105381Y-56045D01*
X105163Y-56056D01*
X105012Y-56118D01*
X104984Y-56214D01*
X105300Y-56529D01*
X105615Y-56214D01*
X105615Y-56355D01*
X105370Y-56600D01*
X105376Y-56605D01*
X105305Y-56676D01*
X105300Y-56670D01*
X104984Y-56985D01*
X104992Y-57012D01*
X104665Y-57012D01*
X104765Y-56911D01*
X104797Y-56836D01*
X104818Y-56887D01*
X104914Y-56915D01*
X105229Y-56600D01*
X104914Y-56284D01*
X104818Y-56312D01*
X104799Y-56367D01*
X104766Y-56288D01*
X104611Y-56134D01*
X104409Y-56050D01*
X104398Y-56050D01*
X103374Y-55025D01*
X103248Y-54941D01*
X103100Y-54912D01*
X99874Y-54912D01*
X99899Y-54849D01*
X99900Y-54750D01*
X99900Y-53750D01*
X99862Y-53658D01*
X99791Y-53588D01*
X99709Y-53553D01*
X99709Y-53158D01*
X99685Y-53039D01*
X99685Y-53039D01*
X99618Y-52939D01*
X99582Y-52903D01*
X99582Y-52686D01*
X99544Y-52594D01*
X99474Y-52524D01*
X99382Y-52486D01*
X99282Y-52485D01*
X99074Y-52485D01*
X99098Y-52476D01*
X99169Y-52405D01*
X99207Y-52313D01*
X99207Y-52229D01*
X99405Y-52031D01*
X99423Y-52048D01*
X99523Y-52115D01*
X99523Y-52115D01*
X99641Y-52139D01*
X101823Y-52139D01*
X101787Y-52174D01*
X101715Y-52174D01*
X101559Y-52239D01*
X101439Y-52358D01*
X101375Y-52515D01*
X101374Y-52684D01*
X101439Y-52840D01*
X101558Y-52960D01*
X101715Y-53024D01*
X101884Y-53025D01*
X102040Y-52960D01*
X102160Y-52841D01*
X102224Y-52684D01*
X102224Y-52612D01*
X102439Y-52397D01*
X102458Y-52405D01*
X102558Y-52405D01*
X103089Y-52405D01*
X103181Y-52367D01*
X103252Y-52297D01*
X103290Y-52205D01*
X103290Y-52106D01*
X103290Y-51966D01*
X103286Y-51957D01*
X103290Y-51949D01*
X103290Y-51850D01*
X103290Y-51710D01*
X103286Y-51702D01*
X103290Y-51693D01*
X103290Y-51594D01*
X103290Y-51454D01*
X103286Y-51446D01*
X103290Y-51438D01*
X103290Y-51338D01*
X103290Y-51198D01*
X103252Y-51106D01*
X103182Y-51036D01*
X103090Y-50998D01*
X102990Y-50998D01*
X102891Y-50998D01*
X102074Y-50181D01*
X101974Y-50114D01*
X101856Y-50090D01*
X101328Y-50090D01*
X100824Y-49587D01*
X104600Y-49587D01*
X104748Y-49558D01*
X104874Y-49474D01*
X105160Y-49187D01*
X106400Y-49187D01*
X106548Y-49158D01*
X106674Y-49074D01*
X107474Y-48274D01*
X107474Y-48274D01*
X107530Y-48190D01*
X107558Y-48148D01*
X107558Y-48148D01*
X107587Y-48000D01*
X107587Y-48000D01*
X107587Y-46960D01*
X107960Y-46587D01*
X108499Y-46587D01*
X108499Y-46749D01*
X108537Y-46841D01*
X108608Y-46911D01*
X108700Y-46949D01*
X108799Y-46950D01*
X109299Y-46950D01*
X109391Y-46912D01*
X109461Y-46841D01*
X109499Y-46749D01*
X109500Y-46650D01*
X109500Y-45650D01*
X109462Y-45558D01*
X109391Y-45488D01*
X109387Y-45486D01*
X109387Y-45360D01*
X109473Y-45275D01*
X109484Y-45279D01*
X109714Y-45280D01*
X109928Y-45191D01*
X110091Y-45028D01*
X110179Y-44815D01*
X110180Y-44585D01*
X110180Y-47689D01*
X110174Y-47558D01*
X110150Y-47500D01*
X110150Y-46887D01*
X110150Y-46250D01*
X110150Y-46150D01*
X110150Y-45512D01*
X110087Y-45450D01*
X109900Y-45449D01*
X109808Y-45487D01*
X109738Y-45558D01*
X109700Y-45650D01*
X109699Y-45749D01*
X109700Y-46087D01*
X109762Y-46150D01*
X110150Y-46150D01*
X110150Y-46250D01*
X109762Y-46250D01*
X109700Y-46312D01*
X109699Y-46650D01*
X109700Y-46749D01*
X109738Y-46841D01*
X109808Y-46912D01*
X109900Y-46950D01*
X110087Y-46950D01*
X110150Y-46887D01*
X110150Y-47500D01*
X110106Y-47394D01*
X110007Y-47363D01*
X109936Y-47433D01*
X109936Y-47292D01*
X109905Y-47193D01*
X109688Y-47115D01*
X109458Y-47125D01*
X109294Y-47193D01*
X109263Y-47292D01*
X109600Y-47629D01*
X109936Y-47292D01*
X109936Y-47433D01*
X109670Y-47700D01*
X110007Y-48036D01*
X110106Y-48005D01*
X110184Y-47788D01*
X110184Y-48836D01*
X110175Y-48826D01*
X110179Y-48815D01*
X110180Y-48585D01*
X110091Y-48371D01*
X109928Y-48208D01*
X109907Y-48199D01*
X109936Y-48107D01*
X109600Y-47770D01*
X109529Y-47841D01*
X109529Y-47700D01*
X109192Y-47363D01*
X109093Y-47394D01*
X109015Y-47611D01*
X109025Y-47841D01*
X109093Y-48005D01*
X109192Y-48036D01*
X109529Y-47700D01*
X109529Y-47841D01*
X109263Y-48107D01*
X109292Y-48199D01*
X109271Y-48208D01*
X109108Y-48371D01*
X109020Y-48584D01*
X109019Y-48814D01*
X109108Y-49028D01*
X109271Y-49191D01*
X109484Y-49279D01*
X109531Y-49279D01*
X109774Y-49522D01*
X109738Y-49558D01*
X109700Y-49650D01*
X109699Y-49749D01*
X109699Y-50749D01*
X109737Y-50841D01*
X109808Y-50911D01*
X109900Y-50949D01*
X109999Y-50950D01*
X110499Y-50950D01*
X110591Y-50912D01*
X110661Y-50841D01*
X110699Y-50749D01*
X110700Y-50650D01*
X110700Y-51954D01*
X110685Y-51881D01*
X110685Y-51881D01*
X110618Y-51781D01*
X110234Y-51397D01*
X110134Y-51330D01*
X110016Y-51306D01*
X109588Y-51306D01*
X109549Y-51291D01*
X109500Y-51291D01*
X109500Y-50650D01*
X109500Y-49650D01*
X109462Y-49558D01*
X109391Y-49488D01*
X109299Y-49450D01*
X109200Y-49449D01*
X108700Y-49449D01*
X108608Y-49487D01*
X108538Y-49558D01*
X108500Y-49650D01*
X108499Y-49749D01*
X108499Y-49890D01*
X107600Y-49890D01*
X107481Y-49914D01*
X107381Y-49981D01*
X107381Y-49981D01*
X107181Y-50181D01*
X107114Y-50281D01*
X107090Y-50400D01*
X107090Y-51396D01*
X107088Y-51399D01*
X107050Y-51491D01*
X107049Y-51590D01*
X107049Y-51740D01*
X107051Y-51743D01*
X107050Y-51747D01*
X107049Y-51818D01*
X106431Y-51818D01*
X106404Y-51800D01*
X106285Y-51776D01*
X105622Y-51776D01*
X105570Y-51742D01*
X105791Y-51521D01*
X106403Y-51521D01*
X106495Y-51483D01*
X106565Y-51412D01*
X106603Y-51320D01*
X106604Y-51221D01*
X106604Y-50721D01*
X106604Y-50120D01*
X106604Y-49521D01*
X106566Y-49429D01*
X106495Y-49359D01*
X106403Y-49321D01*
X106304Y-49320D01*
X105966Y-49321D01*
X105904Y-49383D01*
X105904Y-49771D01*
X106541Y-49771D01*
X106604Y-49708D01*
X106604Y-49521D01*
X106604Y-50120D01*
X106604Y-49933D01*
X106541Y-49871D01*
X105904Y-49871D01*
X105904Y-50258D01*
X105966Y-50321D01*
X106304Y-50321D01*
X106403Y-50320D01*
X106495Y-50282D01*
X106566Y-50212D01*
X106604Y-50120D01*
X106604Y-50721D01*
X106566Y-50629D01*
X106495Y-50559D01*
X106403Y-50521D01*
X106304Y-50520D01*
X105469Y-50520D01*
X105397Y-50449D01*
X105360Y-50359D01*
X105321Y-50320D01*
X105403Y-50321D01*
X105741Y-50321D01*
X105804Y-50258D01*
X105804Y-49871D01*
X105804Y-49771D01*
X105804Y-49383D01*
X105741Y-49321D01*
X105403Y-49320D01*
X105304Y-49321D01*
X105212Y-49359D01*
X105141Y-49429D01*
X105103Y-49521D01*
X105104Y-49708D01*
X105166Y-49771D01*
X105804Y-49771D01*
X105804Y-49871D01*
X105166Y-49871D01*
X105104Y-49933D01*
X105103Y-50120D01*
X105135Y-50195D01*
X105084Y-50175D01*
X104915Y-50174D01*
X104759Y-50239D01*
X104639Y-50358D01*
X104575Y-50515D01*
X104574Y-50684D01*
X104639Y-50840D01*
X104758Y-50960D01*
X104849Y-50997D01*
X105103Y-51252D01*
X105103Y-51264D01*
X104938Y-51264D01*
X104983Y-51220D01*
X104983Y-51198D01*
X104945Y-51106D01*
X104875Y-51036D01*
X104783Y-50998D01*
X104683Y-50998D01*
X104579Y-50998D01*
X104517Y-51060D01*
X104517Y-51254D01*
X104417Y-51254D01*
X104417Y-51060D01*
X104354Y-50998D01*
X104251Y-50998D01*
X104151Y-50998D01*
X104059Y-51036D01*
X103989Y-51106D01*
X103951Y-51198D01*
X103951Y-51220D01*
X104014Y-51283D01*
X104081Y-51283D01*
X104060Y-51291D01*
X103989Y-51362D01*
X103979Y-51388D01*
X103951Y-51415D01*
X103951Y-51437D01*
X103955Y-51446D01*
X103951Y-51454D01*
X103951Y-51553D01*
X103951Y-51693D01*
X103955Y-51701D01*
X103951Y-51710D01*
X103951Y-51809D01*
X103951Y-51949D01*
X103955Y-51957D01*
X103951Y-51965D01*
X103951Y-52065D01*
X103951Y-52205D01*
X103989Y-52297D01*
X104059Y-52367D01*
X104151Y-52405D01*
X104251Y-52405D01*
X104640Y-52405D01*
X104559Y-52439D01*
X104439Y-52558D01*
X104375Y-52715D01*
X104374Y-52884D01*
X104439Y-53040D01*
X104558Y-53160D01*
X104715Y-53224D01*
X104884Y-53225D01*
X105040Y-53160D01*
X105160Y-53041D01*
X105197Y-52950D01*
X105674Y-52474D01*
X105674Y-52474D01*
X105727Y-52394D01*
X106181Y-52394D01*
X106209Y-52413D01*
X106209Y-52413D01*
X106328Y-52437D01*
X107096Y-52437D01*
X107050Y-52484D01*
X107049Y-52508D01*
X107087Y-52600D01*
X107158Y-52670D01*
X107250Y-52708D01*
X107349Y-52709D01*
X107437Y-52709D01*
X107500Y-52646D01*
X107500Y-52453D01*
X107600Y-52453D01*
X107600Y-52646D01*
X107662Y-52709D01*
X107750Y-52709D01*
X107849Y-52708D01*
X107941Y-52670D01*
X108012Y-52600D01*
X108050Y-52508D01*
X108050Y-52484D01*
X107987Y-52421D01*
X107925Y-52421D01*
X107941Y-52415D01*
X108011Y-52344D01*
X108027Y-52306D01*
X108050Y-52284D01*
X108050Y-52259D01*
X108048Y-52256D01*
X108049Y-52252D01*
X108050Y-52153D01*
X108050Y-52003D01*
X108048Y-52000D01*
X108049Y-51996D01*
X108050Y-51897D01*
X108050Y-51747D01*
X108048Y-51744D01*
X108049Y-51740D01*
X108050Y-51641D01*
X108050Y-51491D01*
X108012Y-51399D01*
X107941Y-51329D01*
X107849Y-51291D01*
X107750Y-51290D01*
X107709Y-51290D01*
X107709Y-50528D01*
X107728Y-50509D01*
X108499Y-50509D01*
X108499Y-50749D01*
X108537Y-50841D01*
X108608Y-50911D01*
X108700Y-50949D01*
X108799Y-50950D01*
X109299Y-50950D01*
X109391Y-50912D01*
X109461Y-50841D01*
X109499Y-50749D01*
X109500Y-50650D01*
X109500Y-51291D01*
X109450Y-51290D01*
X108950Y-51290D01*
X108858Y-51328D01*
X108788Y-51399D01*
X108750Y-51491D01*
X108749Y-51590D01*
X108749Y-51740D01*
X108751Y-51743D01*
X108750Y-51747D01*
X108749Y-51846D01*
X108749Y-51996D01*
X108751Y-51999D01*
X108750Y-52003D01*
X108749Y-52102D01*
X108749Y-52252D01*
X108751Y-52255D01*
X108750Y-52259D01*
X108749Y-52358D01*
X108749Y-52508D01*
X108787Y-52600D01*
X108858Y-52670D01*
X108950Y-52708D01*
X109049Y-52709D01*
X109549Y-52709D01*
X109641Y-52671D01*
X109711Y-52600D01*
X109749Y-52508D01*
X109750Y-52409D01*
X109750Y-52259D01*
X109748Y-52256D01*
X109749Y-52252D01*
X109750Y-52153D01*
X109750Y-52003D01*
X109748Y-52000D01*
X109749Y-51996D01*
X109750Y-51925D01*
X109887Y-51925D01*
X110090Y-52128D01*
X110090Y-52560D01*
X109639Y-53012D01*
X108600Y-53012D01*
X108451Y-53041D01*
X108409Y-53069D01*
X108325Y-53125D01*
X107639Y-53812D01*
X106374Y-53812D01*
X106284Y-53775D01*
X106115Y-53774D01*
X105959Y-53839D01*
X105839Y-53958D01*
X105775Y-54115D01*
X105774Y-54284D01*
X105839Y-54440D01*
X105958Y-54560D01*
X106115Y-54624D01*
X106284Y-54625D01*
X106374Y-54587D01*
X107800Y-54587D01*
X107948Y-54558D01*
X108074Y-54474D01*
X108760Y-53787D01*
X109800Y-53787D01*
X109948Y-53758D01*
X110074Y-53674D01*
X110674Y-53074D01*
X110730Y-52990D01*
X110730Y-58730D01*
M02*
