G04 (created by PCBNEW (2013-may-18)-stable) date Thu 14 Nov 2013 05:27:43 PM CST*
%MOIN*%
G04 Gerber Fmt 3.4, Leading zero omitted, Abs format*
%FSLAX34Y34*%
G01*
G70*
G90*
G04 APERTURE LIST*
%ADD10C,0.00590551*%
%ADD11C,0.074*%
%ADD12R,0.074X0.074*%
%ADD13C,0.042*%
%ADD14R,0.06X0.06*%
%ADD15C,0.06*%
%ADD16C,0.066*%
%ADD17C,0.035*%
%ADD18C,0.011811*%
%ADD19C,0.0275591*%
%ADD20C,0.01*%
G04 APERTURE END LIST*
G54D10*
G54D11*
X68800Y-42200D03*
X69800Y-42200D03*
X70800Y-42200D03*
X71800Y-42200D03*
X72800Y-42200D03*
X73800Y-42200D03*
X74800Y-42200D03*
X75800Y-42200D03*
X76800Y-42200D03*
X77800Y-42200D03*
X78800Y-42200D03*
X79800Y-42200D03*
X80800Y-42200D03*
X81800Y-42200D03*
X82800Y-42200D03*
X83800Y-42200D03*
X84800Y-42200D03*
X85800Y-42200D03*
X86800Y-42200D03*
X87800Y-42200D03*
X87800Y-48200D03*
X86800Y-48200D03*
X85800Y-48200D03*
X84800Y-48200D03*
X83800Y-48200D03*
X82800Y-48200D03*
X81800Y-48200D03*
X80800Y-48200D03*
X79800Y-48200D03*
X78800Y-48200D03*
X77800Y-48200D03*
X76800Y-48200D03*
X75800Y-48200D03*
X74800Y-48200D03*
X73800Y-48200D03*
X72800Y-48200D03*
X71800Y-48200D03*
X70800Y-48200D03*
X69800Y-48200D03*
G54D12*
X68800Y-48200D03*
X87800Y-44200D03*
G54D11*
X87800Y-45200D03*
X87800Y-46200D03*
X84800Y-44200D03*
X83800Y-44200D03*
X82800Y-44200D03*
X81800Y-44200D03*
X81800Y-45200D03*
X82800Y-45200D03*
X83800Y-45200D03*
X84800Y-45200D03*
G54D13*
X74700Y-45560D03*
X74700Y-45040D03*
G54D11*
X84800Y-46200D03*
G54D14*
X101300Y-56600D03*
G54D15*
X102300Y-56600D03*
X103300Y-56600D03*
X104300Y-56600D03*
X105300Y-56600D03*
X106300Y-56600D03*
G54D16*
X109600Y-43700D03*
X109600Y-44700D03*
X109600Y-48700D03*
X109600Y-47700D03*
G54D14*
X84800Y-39800D03*
G54D15*
X85800Y-39800D03*
X86800Y-39800D03*
X87800Y-39800D03*
G54D14*
X68800Y-39800D03*
G54D15*
X69800Y-39800D03*
X70800Y-39800D03*
X71800Y-39800D03*
X72800Y-39800D03*
X73800Y-39800D03*
X74800Y-39800D03*
G54D17*
X106425Y-41025D03*
X107780Y-44990D03*
X107300Y-41000D03*
X97400Y-42600D03*
X104800Y-52800D03*
X101400Y-51400D03*
X99400Y-49000D03*
X72637Y-55944D03*
X105000Y-50600D03*
X106200Y-54200D03*
X97400Y-51600D03*
X91000Y-55200D03*
X85600Y-55600D03*
X83800Y-57400D03*
X81325Y-55775D03*
X77425Y-56600D03*
X96498Y-55382D03*
X101800Y-52600D03*
X97400Y-52600D03*
X103800Y-47600D03*
X107000Y-53000D03*
X103200Y-42400D03*
X91600Y-53200D03*
X107000Y-49800D03*
X99600Y-44600D03*
X99600Y-45600D03*
G54D18*
X80800Y-42200D02*
X82025Y-40975D01*
X106375Y-40975D02*
X106425Y-41025D01*
X82025Y-40975D02*
X106375Y-40975D01*
X107770Y-41400D02*
X107780Y-41400D01*
X108090Y-44680D02*
X107780Y-44990D01*
X108090Y-41710D02*
X108090Y-44680D01*
X107780Y-41400D02*
X108090Y-41710D01*
X81800Y-42200D02*
X81800Y-42050D01*
X82450Y-41400D02*
X107770Y-41400D01*
X107770Y-41400D02*
X107775Y-41400D01*
X81800Y-42050D02*
X82450Y-41400D01*
X79800Y-42200D02*
X79800Y-41875D01*
X106925Y-40625D02*
X107300Y-41000D01*
X81050Y-40625D02*
X106925Y-40625D01*
X79800Y-41875D02*
X81050Y-40625D01*
G54D19*
X70800Y-39800D02*
X70800Y-39948D01*
X68662Y-45040D02*
X74700Y-45040D01*
X67283Y-43661D02*
X68662Y-45040D01*
X67283Y-41102D02*
X67283Y-43661D01*
X67913Y-40472D02*
X67283Y-41102D01*
X70275Y-40472D02*
X67913Y-40472D01*
X70800Y-39948D02*
X70275Y-40472D01*
X74700Y-45560D02*
X75440Y-45560D01*
X71800Y-40404D02*
X71102Y-41102D01*
X71102Y-41102D02*
X68425Y-41102D01*
X68425Y-41102D02*
X67952Y-41574D01*
X67952Y-41574D02*
X67952Y-43110D01*
X67952Y-43110D02*
X68976Y-44133D01*
X68976Y-44133D02*
X71732Y-44133D01*
X71800Y-40404D02*
X71800Y-39800D01*
X75333Y-44133D02*
X71732Y-44133D01*
X75800Y-44600D02*
X75333Y-44133D01*
X75800Y-45200D02*
X75800Y-44600D01*
X75440Y-45560D02*
X75800Y-45200D01*
X72800Y-39800D02*
X72800Y-40400D01*
X77800Y-41600D02*
X77800Y-42200D01*
X77500Y-41300D02*
X77800Y-41600D01*
X73700Y-41300D02*
X77500Y-41300D01*
X72800Y-40400D02*
X73700Y-41300D01*
X97400Y-44800D02*
X97400Y-42600D01*
X99600Y-47000D02*
X97400Y-44800D01*
X101200Y-47000D02*
X99600Y-47000D01*
X102200Y-48000D02*
X101200Y-47000D01*
X102200Y-50200D02*
X102200Y-48000D01*
X104800Y-52800D02*
X102200Y-50200D01*
G54D18*
X101400Y-51000D02*
X101400Y-51400D01*
X99400Y-49000D02*
X101400Y-51000D01*
G54D19*
X69800Y-39366D02*
X69409Y-38976D01*
X69409Y-38976D02*
X67322Y-38976D01*
X67322Y-38976D02*
X66578Y-39720D01*
X66578Y-39720D02*
X66578Y-54334D01*
X66578Y-54334D02*
X68188Y-55944D01*
X68188Y-55944D02*
X72637Y-55944D01*
X69800Y-39366D02*
X69800Y-39800D01*
X106200Y-54200D02*
X106200Y-51800D01*
X106200Y-51800D02*
X105000Y-50600D01*
X97400Y-51600D02*
X100400Y-51600D01*
X104600Y-54200D02*
X106200Y-54200D01*
X102400Y-52000D02*
X104600Y-54200D01*
X100800Y-52000D02*
X102400Y-52000D01*
X100400Y-51600D02*
X100800Y-52000D01*
X91000Y-51600D02*
X97400Y-51600D01*
X89200Y-46200D02*
X87800Y-46200D01*
X91000Y-48000D02*
X89200Y-46200D01*
X91000Y-55200D02*
X91000Y-51600D01*
X91000Y-51600D02*
X91000Y-48000D01*
X83800Y-57400D02*
X85600Y-55600D01*
X81325Y-55850D02*
X81325Y-55775D01*
X80575Y-56600D02*
X81325Y-55850D01*
X77425Y-56600D02*
X80575Y-56600D01*
X96498Y-55382D02*
X102082Y-55382D01*
X102082Y-55382D02*
X103300Y-56600D01*
G54D18*
X97400Y-52600D02*
X101800Y-52600D01*
G54D19*
X107000Y-49800D02*
X107000Y-48600D01*
X106000Y-47600D02*
X103800Y-47600D01*
X107000Y-48600D02*
X106000Y-47600D01*
X107000Y-53000D02*
X108800Y-53000D01*
X109000Y-49800D02*
X107000Y-49800D01*
X109600Y-50400D02*
X109000Y-49800D01*
X109600Y-52200D02*
X109600Y-50400D01*
X108800Y-53000D02*
X109600Y-52200D01*
X107000Y-53000D02*
X107000Y-54900D01*
X107000Y-54900D02*
X105300Y-56600D01*
X99600Y-45000D02*
X100600Y-45000D01*
X100600Y-45000D02*
X103200Y-42400D01*
X91600Y-53200D02*
X91600Y-57600D01*
X91600Y-57600D02*
X92000Y-58000D01*
X92000Y-58000D02*
X104800Y-58000D01*
X104800Y-58000D02*
X105300Y-57500D01*
X105300Y-57500D02*
X105300Y-56600D01*
X107000Y-49800D02*
X107000Y-49200D01*
X107000Y-49200D02*
X108500Y-47700D01*
X108500Y-47700D02*
X109600Y-47700D01*
X99600Y-45600D02*
X99600Y-45000D01*
X99600Y-45000D02*
X99600Y-44600D01*
G54D10*
G36*
X110730Y-58730D02*
X110184Y-58730D01*
X110184Y-47788D01*
X110180Y-47689D01*
X110180Y-44585D01*
X110091Y-44371D01*
X109928Y-44208D01*
X109908Y-44200D01*
X109928Y-44191D01*
X110091Y-44028D01*
X110179Y-43815D01*
X110180Y-43585D01*
X110091Y-43371D01*
X109928Y-43208D01*
X109715Y-43120D01*
X109485Y-43119D01*
X109271Y-43208D01*
X109108Y-43371D01*
X109020Y-43584D01*
X109019Y-43814D01*
X109108Y-44028D01*
X109271Y-44191D01*
X109291Y-44199D01*
X109271Y-44208D01*
X109108Y-44371D01*
X109020Y-44584D01*
X109019Y-44814D01*
X109108Y-45028D01*
X109271Y-45191D01*
X109484Y-45279D01*
X109714Y-45280D01*
X109928Y-45191D01*
X110091Y-45028D01*
X110179Y-44815D01*
X110180Y-44585D01*
X110180Y-47689D01*
X110174Y-47558D01*
X110106Y-47394D01*
X110007Y-47363D01*
X109936Y-47433D01*
X109936Y-47292D01*
X109905Y-47193D01*
X109688Y-47115D01*
X109458Y-47125D01*
X109294Y-47193D01*
X109263Y-47292D01*
X109600Y-47629D01*
X109936Y-47292D01*
X109936Y-47433D01*
X109670Y-47700D01*
X110007Y-48036D01*
X110106Y-48005D01*
X110184Y-47788D01*
X110184Y-58730D01*
X110180Y-58730D01*
X110180Y-48585D01*
X110091Y-48371D01*
X109928Y-48208D01*
X109907Y-48199D01*
X109936Y-48107D01*
X109600Y-47770D01*
X109529Y-47841D01*
X109529Y-47700D01*
X109192Y-47363D01*
X109093Y-47394D01*
X109015Y-47611D01*
X109025Y-47841D01*
X109093Y-48005D01*
X109192Y-48036D01*
X109529Y-47700D01*
X109529Y-47841D01*
X109263Y-48107D01*
X109292Y-48199D01*
X109271Y-48208D01*
X109108Y-48371D01*
X109020Y-48584D01*
X109019Y-48814D01*
X109108Y-49028D01*
X109271Y-49191D01*
X109484Y-49279D01*
X109714Y-49280D01*
X109928Y-49191D01*
X110091Y-49028D01*
X110179Y-48815D01*
X110180Y-48585D01*
X110180Y-58730D01*
X108399Y-58730D01*
X108399Y-44680D01*
X108399Y-44680D01*
X108399Y-44680D01*
X108399Y-41710D01*
X108399Y-41709D01*
X108399Y-41709D01*
X108394Y-41686D01*
X108375Y-41591D01*
X108375Y-41591D01*
X108308Y-41491D01*
X108308Y-41491D01*
X107998Y-41181D01*
X107898Y-41114D01*
X107780Y-41090D01*
X107775Y-41090D01*
X107770Y-41090D01*
X107722Y-41090D01*
X107724Y-41084D01*
X107725Y-40915D01*
X107660Y-40759D01*
X107541Y-40639D01*
X107384Y-40575D01*
X107312Y-40575D01*
X107143Y-40406D01*
X107043Y-40339D01*
X106925Y-40315D01*
X87991Y-40315D01*
X88111Y-40266D01*
X88265Y-40111D01*
X88349Y-39909D01*
X88350Y-39691D01*
X88266Y-39488D01*
X88111Y-39334D01*
X87909Y-39250D01*
X87691Y-39249D01*
X87488Y-39333D01*
X87334Y-39488D01*
X87300Y-39569D01*
X87266Y-39488D01*
X87111Y-39334D01*
X86909Y-39250D01*
X86691Y-39249D01*
X86488Y-39333D01*
X86334Y-39488D01*
X86300Y-39569D01*
X86266Y-39488D01*
X86111Y-39334D01*
X85909Y-39250D01*
X85691Y-39249D01*
X85488Y-39333D01*
X85350Y-39472D01*
X85350Y-39450D01*
X85312Y-39358D01*
X85241Y-39288D01*
X85149Y-39250D01*
X85050Y-39249D01*
X84450Y-39249D01*
X84358Y-39287D01*
X84288Y-39358D01*
X84250Y-39450D01*
X84249Y-39549D01*
X84249Y-40149D01*
X84287Y-40241D01*
X84358Y-40311D01*
X84368Y-40315D01*
X81050Y-40315D01*
X80931Y-40339D01*
X80831Y-40406D01*
X79644Y-41593D01*
X79449Y-41674D01*
X79275Y-41847D01*
X79236Y-41834D01*
X79165Y-41904D01*
X79165Y-41763D01*
X79129Y-41660D01*
X78898Y-41575D01*
X78652Y-41585D01*
X78470Y-41660D01*
X78434Y-41763D01*
X78800Y-42129D01*
X79165Y-41763D01*
X79165Y-41904D01*
X78870Y-42200D01*
X79236Y-42565D01*
X79275Y-42552D01*
X79448Y-42725D01*
X79676Y-42819D01*
X79922Y-42820D01*
X80150Y-42725D01*
X80300Y-42576D01*
X80448Y-42725D01*
X80676Y-42819D01*
X80922Y-42820D01*
X81150Y-42725D01*
X81300Y-42576D01*
X81448Y-42725D01*
X81676Y-42819D01*
X81922Y-42820D01*
X82150Y-42725D01*
X82300Y-42576D01*
X82448Y-42725D01*
X82676Y-42819D01*
X82922Y-42820D01*
X83150Y-42725D01*
X83300Y-42576D01*
X83448Y-42725D01*
X83676Y-42819D01*
X83922Y-42820D01*
X84150Y-42725D01*
X84300Y-42576D01*
X84448Y-42725D01*
X84676Y-42819D01*
X84922Y-42820D01*
X85150Y-42725D01*
X85300Y-42576D01*
X85448Y-42725D01*
X85676Y-42819D01*
X85922Y-42820D01*
X86150Y-42725D01*
X86300Y-42576D01*
X86448Y-42725D01*
X86676Y-42819D01*
X86922Y-42820D01*
X87150Y-42725D01*
X87300Y-42576D01*
X87448Y-42725D01*
X87676Y-42819D01*
X87922Y-42820D01*
X88150Y-42725D01*
X88325Y-42551D01*
X88419Y-42323D01*
X88420Y-42077D01*
X88325Y-41849D01*
X88185Y-41709D01*
X107651Y-41709D01*
X107780Y-41838D01*
X107780Y-44551D01*
X107767Y-44564D01*
X107695Y-44564D01*
X107539Y-44629D01*
X107419Y-44748D01*
X107355Y-44905D01*
X107354Y-45074D01*
X107419Y-45230D01*
X107538Y-45350D01*
X107695Y-45414D01*
X107864Y-45415D01*
X108020Y-45350D01*
X108140Y-45231D01*
X108204Y-45074D01*
X108204Y-45002D01*
X108308Y-44898D01*
X108308Y-44898D01*
X108308Y-44898D01*
X108375Y-44798D01*
X108375Y-44798D01*
X108394Y-44703D01*
X108399Y-44680D01*
X108399Y-58730D01*
X106850Y-58730D01*
X106850Y-56491D01*
X106766Y-56288D01*
X106625Y-56147D01*
X106625Y-54115D01*
X106587Y-54025D01*
X106587Y-51800D01*
X106587Y-51799D01*
X106558Y-51651D01*
X106558Y-51651D01*
X106530Y-51609D01*
X106474Y-51525D01*
X106474Y-51525D01*
X105397Y-50449D01*
X105360Y-50359D01*
X105241Y-50239D01*
X105084Y-50175D01*
X104915Y-50174D01*
X104759Y-50239D01*
X104639Y-50358D01*
X104575Y-50515D01*
X104574Y-50684D01*
X104639Y-50840D01*
X104758Y-50960D01*
X104849Y-50997D01*
X105812Y-51960D01*
X105812Y-53812D01*
X105225Y-53812D01*
X105225Y-52715D01*
X105160Y-52559D01*
X105041Y-52439D01*
X104950Y-52402D01*
X102587Y-50039D01*
X102587Y-48000D01*
X102558Y-47851D01*
X102474Y-47725D01*
X101474Y-46725D01*
X101348Y-46641D01*
X101200Y-46612D01*
X99760Y-46612D01*
X97787Y-44639D01*
X97787Y-42774D01*
X97824Y-42684D01*
X97825Y-42515D01*
X97760Y-42359D01*
X97641Y-42239D01*
X97484Y-42175D01*
X97315Y-42174D01*
X97159Y-42239D01*
X97039Y-42358D01*
X96975Y-42515D01*
X96974Y-42684D01*
X97012Y-42774D01*
X97012Y-44800D01*
X97041Y-44948D01*
X97125Y-45074D01*
X99325Y-47274D01*
X99451Y-47358D01*
X99600Y-47387D01*
X101039Y-47387D01*
X101812Y-48160D01*
X101812Y-50200D01*
X101841Y-50348D01*
X101925Y-50474D01*
X104402Y-52950D01*
X104439Y-53040D01*
X104558Y-53160D01*
X104715Y-53224D01*
X104884Y-53225D01*
X105040Y-53160D01*
X105160Y-53041D01*
X105224Y-52884D01*
X105225Y-52715D01*
X105225Y-53812D01*
X104760Y-53812D01*
X102674Y-51725D01*
X102548Y-51641D01*
X102400Y-51612D01*
X101772Y-51612D01*
X101824Y-51484D01*
X101825Y-51315D01*
X101760Y-51159D01*
X101709Y-51108D01*
X101709Y-51000D01*
X101709Y-50999D01*
X101709Y-50999D01*
X101704Y-50976D01*
X101685Y-50881D01*
X101685Y-50881D01*
X101618Y-50781D01*
X101618Y-50781D01*
X99825Y-48987D01*
X99825Y-48915D01*
X99760Y-48759D01*
X99641Y-48639D01*
X99484Y-48575D01*
X99315Y-48574D01*
X99159Y-48639D01*
X99039Y-48758D01*
X98975Y-48915D01*
X98974Y-49084D01*
X99039Y-49240D01*
X99158Y-49360D01*
X99315Y-49424D01*
X99387Y-49424D01*
X101080Y-51117D01*
X101039Y-51158D01*
X100975Y-51315D01*
X100974Y-51484D01*
X101027Y-51612D01*
X100960Y-51612D01*
X100674Y-51325D01*
X100548Y-51241D01*
X100400Y-51212D01*
X97574Y-51212D01*
X97484Y-51175D01*
X97315Y-51174D01*
X97225Y-51212D01*
X91387Y-51212D01*
X91387Y-48000D01*
X91358Y-47851D01*
X91274Y-47725D01*
X89474Y-45925D01*
X89348Y-45841D01*
X89200Y-45812D01*
X88424Y-45812D01*
X88424Y-45298D01*
X88420Y-45188D01*
X88414Y-45052D01*
X88339Y-44870D01*
X88236Y-44834D01*
X88272Y-44798D01*
X88311Y-44782D01*
X88381Y-44711D01*
X88419Y-44619D01*
X88420Y-44520D01*
X88420Y-43780D01*
X88382Y-43688D01*
X88311Y-43618D01*
X88219Y-43580D01*
X88120Y-43579D01*
X87380Y-43579D01*
X87288Y-43617D01*
X87218Y-43688D01*
X87180Y-43780D01*
X87179Y-43879D01*
X87179Y-44619D01*
X87217Y-44711D01*
X87288Y-44781D01*
X87327Y-44798D01*
X87363Y-44834D01*
X87260Y-44870D01*
X87175Y-45101D01*
X87185Y-45347D01*
X87260Y-45529D01*
X87363Y-45565D01*
X87729Y-45200D01*
X87723Y-45194D01*
X87794Y-45123D01*
X87800Y-45129D01*
X87805Y-45123D01*
X87876Y-45194D01*
X87870Y-45200D01*
X88236Y-45565D01*
X88339Y-45529D01*
X88424Y-45298D01*
X88424Y-45812D01*
X88288Y-45812D01*
X88152Y-45675D01*
X88165Y-45636D01*
X87800Y-45270D01*
X87729Y-45341D01*
X87434Y-45636D01*
X87447Y-45675D01*
X87274Y-45848D01*
X87180Y-46076D01*
X87179Y-46322D01*
X87274Y-46550D01*
X87448Y-46725D01*
X87676Y-46819D01*
X87922Y-46820D01*
X88150Y-46725D01*
X88289Y-46587D01*
X89039Y-46587D01*
X90612Y-48160D01*
X90612Y-51600D01*
X90612Y-55025D01*
X90575Y-55115D01*
X90574Y-55284D01*
X90639Y-55440D01*
X90758Y-55560D01*
X90915Y-55624D01*
X91084Y-55625D01*
X91240Y-55560D01*
X91360Y-55441D01*
X91424Y-55284D01*
X91425Y-55115D01*
X91387Y-55025D01*
X91387Y-51987D01*
X97225Y-51987D01*
X97315Y-52024D01*
X97484Y-52025D01*
X97574Y-51987D01*
X100239Y-51987D01*
X100525Y-52274D01*
X100525Y-52274D01*
X100550Y-52290D01*
X97692Y-52290D01*
X97641Y-52239D01*
X97484Y-52175D01*
X97315Y-52174D01*
X97159Y-52239D01*
X97039Y-52358D01*
X96975Y-52515D01*
X96974Y-52684D01*
X97039Y-52840D01*
X97158Y-52960D01*
X97315Y-53024D01*
X97484Y-53025D01*
X97640Y-52960D01*
X97691Y-52909D01*
X101507Y-52909D01*
X101558Y-52960D01*
X101715Y-53024D01*
X101884Y-53025D01*
X102040Y-52960D01*
X102160Y-52841D01*
X102224Y-52684D01*
X102225Y-52515D01*
X102172Y-52387D01*
X102239Y-52387D01*
X104325Y-54474D01*
X104451Y-54558D01*
X104600Y-54587D01*
X106025Y-54587D01*
X106115Y-54624D01*
X106284Y-54625D01*
X106440Y-54560D01*
X106560Y-54441D01*
X106624Y-54284D01*
X106625Y-54115D01*
X106625Y-56147D01*
X106611Y-56134D01*
X106409Y-56050D01*
X106191Y-56049D01*
X105988Y-56133D01*
X105834Y-56288D01*
X105802Y-56363D01*
X105781Y-56312D01*
X105685Y-56284D01*
X105615Y-56355D01*
X105615Y-56214D01*
X105587Y-56118D01*
X105381Y-56045D01*
X105163Y-56056D01*
X105012Y-56118D01*
X104984Y-56214D01*
X105300Y-56529D01*
X105615Y-56214D01*
X105615Y-56355D01*
X105370Y-56600D01*
X105685Y-56915D01*
X105781Y-56887D01*
X105800Y-56832D01*
X105833Y-56911D01*
X105988Y-57065D01*
X106190Y-57149D01*
X106408Y-57150D01*
X106611Y-57066D01*
X106765Y-56911D01*
X106849Y-56709D01*
X106850Y-56491D01*
X106850Y-58730D01*
X105615Y-58730D01*
X105615Y-56985D01*
X105300Y-56670D01*
X105229Y-56741D01*
X105229Y-56600D01*
X104914Y-56284D01*
X104818Y-56312D01*
X104799Y-56367D01*
X104766Y-56288D01*
X104611Y-56134D01*
X104409Y-56050D01*
X104191Y-56049D01*
X103988Y-56133D01*
X103834Y-56288D01*
X103800Y-56369D01*
X103766Y-56288D01*
X103611Y-56134D01*
X103409Y-56050D01*
X103298Y-56049D01*
X102356Y-55107D01*
X102230Y-55023D01*
X102082Y-54994D01*
X96672Y-54994D01*
X96582Y-54957D01*
X96413Y-54956D01*
X96257Y-55021D01*
X96137Y-55140D01*
X96073Y-55297D01*
X96072Y-55466D01*
X96137Y-55622D01*
X96256Y-55742D01*
X96413Y-55806D01*
X96582Y-55807D01*
X96672Y-55769D01*
X101921Y-55769D01*
X102201Y-56049D01*
X102191Y-56049D01*
X101988Y-56133D01*
X101850Y-56272D01*
X101850Y-56250D01*
X101812Y-56158D01*
X101741Y-56088D01*
X101649Y-56050D01*
X101550Y-56049D01*
X100950Y-56049D01*
X100858Y-56087D01*
X100788Y-56158D01*
X100750Y-56250D01*
X100749Y-56349D01*
X100749Y-56949D01*
X100787Y-57041D01*
X100858Y-57111D01*
X100950Y-57149D01*
X101049Y-57150D01*
X101649Y-57150D01*
X101741Y-57112D01*
X101811Y-57041D01*
X101849Y-56949D01*
X101849Y-56927D01*
X101988Y-57065D01*
X102190Y-57149D01*
X102408Y-57150D01*
X102611Y-57066D01*
X102765Y-56911D01*
X102799Y-56830D01*
X102833Y-56911D01*
X102988Y-57065D01*
X103190Y-57149D01*
X103408Y-57150D01*
X103611Y-57066D01*
X103765Y-56911D01*
X103799Y-56830D01*
X103833Y-56911D01*
X103988Y-57065D01*
X104190Y-57149D01*
X104408Y-57150D01*
X104611Y-57066D01*
X104765Y-56911D01*
X104797Y-56836D01*
X104818Y-56887D01*
X104914Y-56915D01*
X105229Y-56600D01*
X105229Y-56741D01*
X104984Y-56985D01*
X105012Y-57081D01*
X105218Y-57154D01*
X105436Y-57143D01*
X105587Y-57081D01*
X105615Y-56985D01*
X105615Y-58730D01*
X88420Y-58730D01*
X88420Y-48077D01*
X88325Y-47849D01*
X88151Y-47674D01*
X87923Y-47580D01*
X87677Y-47579D01*
X87449Y-47674D01*
X87299Y-47823D01*
X87151Y-47674D01*
X86923Y-47580D01*
X86677Y-47579D01*
X86449Y-47674D01*
X86299Y-47823D01*
X86151Y-47674D01*
X85923Y-47580D01*
X85677Y-47579D01*
X85449Y-47674D01*
X85420Y-47703D01*
X85420Y-46077D01*
X85325Y-45849D01*
X85176Y-45699D01*
X85325Y-45551D01*
X85419Y-45323D01*
X85420Y-45077D01*
X85325Y-44849D01*
X85176Y-44699D01*
X85325Y-44551D01*
X85419Y-44323D01*
X85420Y-44077D01*
X85325Y-43849D01*
X85151Y-43674D01*
X84923Y-43580D01*
X84677Y-43579D01*
X84449Y-43674D01*
X84299Y-43823D01*
X84151Y-43674D01*
X83923Y-43580D01*
X83677Y-43579D01*
X83449Y-43674D01*
X83299Y-43823D01*
X83151Y-43674D01*
X82923Y-43580D01*
X82677Y-43579D01*
X82449Y-43674D01*
X82299Y-43823D01*
X82151Y-43674D01*
X81923Y-43580D01*
X81677Y-43579D01*
X81449Y-43674D01*
X81274Y-43848D01*
X81180Y-44076D01*
X81179Y-44322D01*
X81274Y-44550D01*
X81423Y-44700D01*
X81274Y-44848D01*
X81180Y-45076D01*
X81179Y-45322D01*
X81274Y-45550D01*
X81448Y-45725D01*
X81676Y-45819D01*
X81922Y-45820D01*
X82150Y-45725D01*
X82300Y-45576D01*
X82448Y-45725D01*
X82676Y-45819D01*
X82922Y-45820D01*
X83150Y-45725D01*
X83300Y-45576D01*
X83448Y-45725D01*
X83676Y-45819D01*
X83922Y-45820D01*
X84150Y-45725D01*
X84300Y-45576D01*
X84423Y-45700D01*
X84274Y-45848D01*
X84180Y-46076D01*
X84179Y-46322D01*
X84274Y-46550D01*
X84448Y-46725D01*
X84676Y-46819D01*
X84922Y-46820D01*
X85150Y-46725D01*
X85325Y-46551D01*
X85419Y-46323D01*
X85420Y-46077D01*
X85420Y-47703D01*
X85299Y-47823D01*
X85151Y-47674D01*
X84923Y-47580D01*
X84677Y-47579D01*
X84449Y-47674D01*
X84299Y-47823D01*
X84151Y-47674D01*
X83923Y-47580D01*
X83677Y-47579D01*
X83449Y-47674D01*
X83299Y-47823D01*
X83151Y-47674D01*
X82923Y-47580D01*
X82677Y-47579D01*
X82449Y-47674D01*
X82299Y-47823D01*
X82151Y-47674D01*
X81923Y-47580D01*
X81677Y-47579D01*
X81449Y-47674D01*
X81299Y-47823D01*
X81151Y-47674D01*
X80923Y-47580D01*
X80677Y-47579D01*
X80449Y-47674D01*
X80299Y-47823D01*
X80151Y-47674D01*
X79923Y-47580D01*
X79677Y-47579D01*
X79449Y-47674D01*
X79299Y-47823D01*
X79165Y-47688D01*
X79165Y-42636D01*
X78800Y-42270D01*
X78729Y-42341D01*
X78729Y-42200D01*
X78363Y-41834D01*
X78324Y-41847D01*
X78187Y-41710D01*
X78187Y-41600D01*
X78187Y-41599D01*
X78158Y-41451D01*
X78158Y-41451D01*
X78130Y-41409D01*
X78074Y-41325D01*
X78074Y-41325D01*
X77774Y-41025D01*
X77648Y-40941D01*
X77500Y-40912D01*
X75354Y-40912D01*
X75354Y-39881D01*
X75343Y-39663D01*
X75281Y-39512D01*
X75185Y-39484D01*
X75115Y-39555D01*
X75115Y-39414D01*
X75087Y-39318D01*
X74881Y-39245D01*
X74663Y-39256D01*
X74512Y-39318D01*
X74484Y-39414D01*
X74800Y-39729D01*
X75115Y-39414D01*
X75115Y-39555D01*
X74870Y-39800D01*
X75185Y-40115D01*
X75281Y-40087D01*
X75354Y-39881D01*
X75354Y-40912D01*
X75115Y-40912D01*
X75115Y-40185D01*
X74800Y-39870D01*
X74484Y-40185D01*
X74512Y-40281D01*
X74718Y-40354D01*
X74936Y-40343D01*
X75087Y-40281D01*
X75115Y-40185D01*
X75115Y-40912D01*
X73860Y-40912D01*
X73187Y-40239D01*
X73187Y-40190D01*
X73265Y-40111D01*
X73299Y-40030D01*
X73333Y-40111D01*
X73488Y-40265D01*
X73690Y-40349D01*
X73908Y-40350D01*
X74111Y-40266D01*
X74265Y-40111D01*
X74297Y-40036D01*
X74318Y-40087D01*
X74414Y-40115D01*
X74729Y-39800D01*
X74414Y-39484D01*
X74318Y-39512D01*
X74299Y-39567D01*
X74266Y-39488D01*
X74111Y-39334D01*
X73909Y-39250D01*
X73691Y-39249D01*
X73488Y-39333D01*
X73334Y-39488D01*
X73300Y-39569D01*
X73266Y-39488D01*
X73111Y-39334D01*
X72909Y-39250D01*
X72691Y-39249D01*
X72488Y-39333D01*
X72334Y-39488D01*
X72300Y-39569D01*
X72266Y-39488D01*
X72111Y-39334D01*
X71909Y-39250D01*
X71691Y-39249D01*
X71488Y-39333D01*
X71334Y-39488D01*
X71300Y-39569D01*
X71266Y-39488D01*
X71111Y-39334D01*
X70909Y-39250D01*
X70691Y-39249D01*
X70488Y-39333D01*
X70334Y-39488D01*
X70300Y-39569D01*
X70266Y-39488D01*
X70187Y-39409D01*
X70187Y-39366D01*
X70187Y-39366D01*
X70158Y-39218D01*
X70158Y-39218D01*
X70130Y-39176D01*
X70074Y-39092D01*
X70074Y-39092D01*
X69683Y-38702D01*
X69557Y-38618D01*
X69409Y-38588D01*
X67322Y-38588D01*
X67174Y-38618D01*
X67048Y-38702D01*
X66304Y-39446D01*
X66220Y-39572D01*
X66190Y-39720D01*
X66190Y-54334D01*
X66220Y-54482D01*
X66304Y-54608D01*
X67914Y-56219D01*
X67914Y-56219D01*
X67998Y-56275D01*
X68040Y-56303D01*
X68040Y-56303D01*
X68188Y-56332D01*
X68188Y-56332D01*
X72463Y-56332D01*
X72552Y-56369D01*
X72721Y-56369D01*
X72878Y-56305D01*
X72997Y-56185D01*
X73062Y-56029D01*
X73062Y-55860D01*
X72998Y-55704D01*
X72878Y-55584D01*
X72722Y-55519D01*
X72553Y-55519D01*
X72463Y-55557D01*
X68750Y-55557D01*
X68750Y-48757D01*
X68750Y-48250D01*
X68750Y-48150D01*
X68750Y-47642D01*
X68687Y-47580D01*
X68380Y-47579D01*
X68288Y-47617D01*
X68218Y-47688D01*
X68180Y-47780D01*
X68179Y-47879D01*
X68180Y-48087D01*
X68242Y-48150D01*
X68750Y-48150D01*
X68750Y-48250D01*
X68242Y-48250D01*
X68180Y-48312D01*
X68179Y-48520D01*
X68180Y-48619D01*
X68218Y-48711D01*
X68288Y-48782D01*
X68380Y-48820D01*
X68687Y-48820D01*
X68750Y-48757D01*
X68750Y-55557D01*
X68349Y-55557D01*
X66966Y-54173D01*
X66966Y-43871D01*
X67009Y-43935D01*
X68387Y-45314D01*
X68513Y-45398D01*
X68662Y-45427D01*
X74256Y-45427D01*
X74240Y-45468D01*
X74239Y-45651D01*
X74309Y-45820D01*
X74439Y-45949D01*
X74608Y-46019D01*
X74791Y-46020D01*
X74960Y-45950D01*
X74962Y-45947D01*
X75440Y-45947D01*
X75588Y-45918D01*
X75714Y-45834D01*
X76074Y-45474D01*
X76074Y-45474D01*
X76130Y-45390D01*
X76158Y-45348D01*
X76158Y-45348D01*
X76187Y-45200D01*
X76187Y-45200D01*
X76187Y-44600D01*
X76187Y-44599D01*
X76158Y-44451D01*
X76158Y-44451D01*
X76130Y-44409D01*
X76074Y-44325D01*
X76074Y-44325D01*
X75608Y-43859D01*
X75482Y-43775D01*
X75333Y-43746D01*
X71732Y-43746D01*
X69137Y-43746D01*
X68340Y-42949D01*
X68340Y-42617D01*
X68448Y-42725D01*
X68676Y-42819D01*
X68922Y-42820D01*
X69150Y-42725D01*
X69300Y-42576D01*
X69448Y-42725D01*
X69676Y-42819D01*
X69922Y-42820D01*
X70150Y-42725D01*
X70300Y-42576D01*
X70448Y-42725D01*
X70676Y-42819D01*
X70922Y-42820D01*
X71150Y-42725D01*
X71300Y-42576D01*
X71448Y-42725D01*
X71676Y-42819D01*
X71922Y-42820D01*
X72150Y-42725D01*
X72300Y-42576D01*
X72448Y-42725D01*
X72676Y-42819D01*
X72922Y-42820D01*
X73150Y-42725D01*
X73300Y-42576D01*
X73448Y-42725D01*
X73676Y-42819D01*
X73922Y-42820D01*
X74150Y-42725D01*
X74300Y-42576D01*
X74448Y-42725D01*
X74676Y-42819D01*
X74922Y-42820D01*
X75150Y-42725D01*
X75300Y-42576D01*
X75448Y-42725D01*
X75676Y-42819D01*
X75922Y-42820D01*
X76150Y-42725D01*
X76300Y-42576D01*
X76448Y-42725D01*
X76676Y-42819D01*
X76922Y-42820D01*
X77150Y-42725D01*
X77300Y-42576D01*
X77448Y-42725D01*
X77676Y-42819D01*
X77922Y-42820D01*
X78150Y-42725D01*
X78324Y-42552D01*
X78363Y-42565D01*
X78729Y-42200D01*
X78729Y-42341D01*
X78434Y-42636D01*
X78470Y-42739D01*
X78701Y-42824D01*
X78947Y-42814D01*
X79129Y-42739D01*
X79165Y-42636D01*
X79165Y-47688D01*
X79151Y-47674D01*
X78923Y-47580D01*
X78677Y-47579D01*
X78449Y-47674D01*
X78299Y-47823D01*
X78151Y-47674D01*
X77923Y-47580D01*
X77677Y-47579D01*
X77449Y-47674D01*
X77299Y-47823D01*
X77151Y-47674D01*
X76923Y-47580D01*
X76677Y-47579D01*
X76449Y-47674D01*
X76299Y-47823D01*
X76151Y-47674D01*
X75923Y-47580D01*
X75677Y-47579D01*
X75449Y-47674D01*
X75299Y-47823D01*
X75151Y-47674D01*
X74923Y-47580D01*
X74677Y-47579D01*
X74449Y-47674D01*
X74299Y-47823D01*
X74151Y-47674D01*
X73923Y-47580D01*
X73677Y-47579D01*
X73449Y-47674D01*
X73299Y-47823D01*
X73151Y-47674D01*
X72923Y-47580D01*
X72677Y-47579D01*
X72449Y-47674D01*
X72299Y-47823D01*
X72151Y-47674D01*
X71923Y-47580D01*
X71677Y-47579D01*
X71449Y-47674D01*
X71299Y-47823D01*
X71151Y-47674D01*
X70923Y-47580D01*
X70677Y-47579D01*
X70449Y-47674D01*
X70299Y-47823D01*
X70151Y-47674D01*
X69923Y-47580D01*
X69677Y-47579D01*
X69449Y-47674D01*
X69397Y-47725D01*
X69381Y-47688D01*
X69311Y-47617D01*
X69219Y-47579D01*
X68912Y-47580D01*
X68850Y-47642D01*
X68850Y-48150D01*
X68857Y-48150D01*
X68857Y-48250D01*
X68850Y-48250D01*
X68850Y-48757D01*
X68912Y-48820D01*
X69219Y-48820D01*
X69311Y-48782D01*
X69381Y-48711D01*
X69397Y-48674D01*
X69448Y-48725D01*
X69676Y-48819D01*
X69922Y-48820D01*
X70150Y-48725D01*
X70300Y-48576D01*
X70448Y-48725D01*
X70676Y-48819D01*
X70922Y-48820D01*
X71150Y-48725D01*
X71300Y-48576D01*
X71448Y-48725D01*
X71676Y-48819D01*
X71922Y-48820D01*
X72150Y-48725D01*
X72300Y-48576D01*
X72448Y-48725D01*
X72676Y-48819D01*
X72922Y-48820D01*
X73150Y-48725D01*
X73300Y-48576D01*
X73448Y-48725D01*
X73676Y-48819D01*
X73922Y-48820D01*
X74150Y-48725D01*
X74300Y-48576D01*
X74448Y-48725D01*
X74676Y-48819D01*
X74922Y-48820D01*
X75150Y-48725D01*
X75300Y-48576D01*
X75448Y-48725D01*
X75676Y-48819D01*
X75922Y-48820D01*
X76150Y-48725D01*
X76300Y-48576D01*
X76448Y-48725D01*
X76676Y-48819D01*
X76922Y-48820D01*
X77150Y-48725D01*
X77300Y-48576D01*
X77448Y-48725D01*
X77676Y-48819D01*
X77922Y-48820D01*
X78150Y-48725D01*
X78300Y-48576D01*
X78448Y-48725D01*
X78676Y-48819D01*
X78922Y-48820D01*
X79150Y-48725D01*
X79300Y-48576D01*
X79448Y-48725D01*
X79676Y-48819D01*
X79922Y-48820D01*
X80150Y-48725D01*
X80300Y-48576D01*
X80448Y-48725D01*
X80676Y-48819D01*
X80922Y-48820D01*
X81150Y-48725D01*
X81300Y-48576D01*
X81448Y-48725D01*
X81676Y-48819D01*
X81922Y-48820D01*
X82150Y-48725D01*
X82300Y-48576D01*
X82448Y-48725D01*
X82676Y-48819D01*
X82922Y-48820D01*
X83150Y-48725D01*
X83300Y-48576D01*
X83448Y-48725D01*
X83676Y-48819D01*
X83922Y-48820D01*
X84150Y-48725D01*
X84300Y-48576D01*
X84448Y-48725D01*
X84676Y-48819D01*
X84922Y-48820D01*
X85150Y-48725D01*
X85300Y-48576D01*
X85448Y-48725D01*
X85676Y-48819D01*
X85922Y-48820D01*
X86150Y-48725D01*
X86300Y-48576D01*
X86448Y-48725D01*
X86676Y-48819D01*
X86922Y-48820D01*
X87150Y-48725D01*
X87300Y-48576D01*
X87448Y-48725D01*
X87676Y-48819D01*
X87922Y-48820D01*
X88150Y-48725D01*
X88325Y-48551D01*
X88419Y-48323D01*
X88420Y-48077D01*
X88420Y-58730D01*
X86025Y-58730D01*
X86025Y-55515D01*
X85960Y-55359D01*
X85841Y-55239D01*
X85684Y-55175D01*
X85515Y-55174D01*
X85359Y-55239D01*
X85239Y-55358D01*
X85202Y-55449D01*
X83649Y-57002D01*
X83559Y-57039D01*
X83439Y-57158D01*
X83375Y-57315D01*
X83374Y-57484D01*
X83439Y-57640D01*
X83558Y-57760D01*
X83715Y-57824D01*
X83884Y-57825D01*
X84040Y-57760D01*
X84160Y-57641D01*
X84197Y-57550D01*
X85750Y-55997D01*
X85840Y-55960D01*
X85960Y-55841D01*
X86024Y-55684D01*
X86025Y-55515D01*
X86025Y-58730D01*
X81750Y-58730D01*
X81750Y-55690D01*
X81685Y-55534D01*
X81566Y-55414D01*
X81409Y-55350D01*
X81240Y-55349D01*
X81084Y-55414D01*
X80964Y-55533D01*
X80900Y-55690D01*
X80900Y-55726D01*
X80414Y-56212D01*
X77599Y-56212D01*
X77509Y-56175D01*
X77340Y-56174D01*
X77184Y-56239D01*
X77064Y-56358D01*
X77000Y-56515D01*
X76999Y-56684D01*
X77064Y-56840D01*
X77183Y-56960D01*
X77340Y-57024D01*
X77509Y-57025D01*
X77599Y-56987D01*
X80575Y-56987D01*
X80723Y-56958D01*
X80849Y-56874D01*
X81599Y-56124D01*
X81599Y-56124D01*
X81644Y-56056D01*
X81644Y-56056D01*
X81685Y-56016D01*
X81749Y-55859D01*
X81750Y-55690D01*
X81750Y-58730D01*
X65269Y-58730D01*
X65269Y-38269D01*
X110730Y-38269D01*
X110730Y-58730D01*
X110730Y-58730D01*
G37*
G54D20*
X110730Y-58730D02*
X110184Y-58730D01*
X110184Y-47788D01*
X110180Y-47689D01*
X110180Y-44585D01*
X110091Y-44371D01*
X109928Y-44208D01*
X109908Y-44200D01*
X109928Y-44191D01*
X110091Y-44028D01*
X110179Y-43815D01*
X110180Y-43585D01*
X110091Y-43371D01*
X109928Y-43208D01*
X109715Y-43120D01*
X109485Y-43119D01*
X109271Y-43208D01*
X109108Y-43371D01*
X109020Y-43584D01*
X109019Y-43814D01*
X109108Y-44028D01*
X109271Y-44191D01*
X109291Y-44199D01*
X109271Y-44208D01*
X109108Y-44371D01*
X109020Y-44584D01*
X109019Y-44814D01*
X109108Y-45028D01*
X109271Y-45191D01*
X109484Y-45279D01*
X109714Y-45280D01*
X109928Y-45191D01*
X110091Y-45028D01*
X110179Y-44815D01*
X110180Y-44585D01*
X110180Y-47689D01*
X110174Y-47558D01*
X110106Y-47394D01*
X110007Y-47363D01*
X109936Y-47433D01*
X109936Y-47292D01*
X109905Y-47193D01*
X109688Y-47115D01*
X109458Y-47125D01*
X109294Y-47193D01*
X109263Y-47292D01*
X109600Y-47629D01*
X109936Y-47292D01*
X109936Y-47433D01*
X109670Y-47700D01*
X110007Y-48036D01*
X110106Y-48005D01*
X110184Y-47788D01*
X110184Y-58730D01*
X110180Y-58730D01*
X110180Y-48585D01*
X110091Y-48371D01*
X109928Y-48208D01*
X109907Y-48199D01*
X109936Y-48107D01*
X109600Y-47770D01*
X109529Y-47841D01*
X109529Y-47700D01*
X109192Y-47363D01*
X109093Y-47394D01*
X109015Y-47611D01*
X109025Y-47841D01*
X109093Y-48005D01*
X109192Y-48036D01*
X109529Y-47700D01*
X109529Y-47841D01*
X109263Y-48107D01*
X109292Y-48199D01*
X109271Y-48208D01*
X109108Y-48371D01*
X109020Y-48584D01*
X109019Y-48814D01*
X109108Y-49028D01*
X109271Y-49191D01*
X109484Y-49279D01*
X109714Y-49280D01*
X109928Y-49191D01*
X110091Y-49028D01*
X110179Y-48815D01*
X110180Y-48585D01*
X110180Y-58730D01*
X108399Y-58730D01*
X108399Y-44680D01*
X108399Y-44680D01*
X108399Y-44680D01*
X108399Y-41710D01*
X108399Y-41709D01*
X108399Y-41709D01*
X108394Y-41686D01*
X108375Y-41591D01*
X108375Y-41591D01*
X108308Y-41491D01*
X108308Y-41491D01*
X107998Y-41181D01*
X107898Y-41114D01*
X107780Y-41090D01*
X107775Y-41090D01*
X107770Y-41090D01*
X107722Y-41090D01*
X107724Y-41084D01*
X107725Y-40915D01*
X107660Y-40759D01*
X107541Y-40639D01*
X107384Y-40575D01*
X107312Y-40575D01*
X107143Y-40406D01*
X107043Y-40339D01*
X106925Y-40315D01*
X87991Y-40315D01*
X88111Y-40266D01*
X88265Y-40111D01*
X88349Y-39909D01*
X88350Y-39691D01*
X88266Y-39488D01*
X88111Y-39334D01*
X87909Y-39250D01*
X87691Y-39249D01*
X87488Y-39333D01*
X87334Y-39488D01*
X87300Y-39569D01*
X87266Y-39488D01*
X87111Y-39334D01*
X86909Y-39250D01*
X86691Y-39249D01*
X86488Y-39333D01*
X86334Y-39488D01*
X86300Y-39569D01*
X86266Y-39488D01*
X86111Y-39334D01*
X85909Y-39250D01*
X85691Y-39249D01*
X85488Y-39333D01*
X85350Y-39472D01*
X85350Y-39450D01*
X85312Y-39358D01*
X85241Y-39288D01*
X85149Y-39250D01*
X85050Y-39249D01*
X84450Y-39249D01*
X84358Y-39287D01*
X84288Y-39358D01*
X84250Y-39450D01*
X84249Y-39549D01*
X84249Y-40149D01*
X84287Y-40241D01*
X84358Y-40311D01*
X84368Y-40315D01*
X81050Y-40315D01*
X80931Y-40339D01*
X80831Y-40406D01*
X79644Y-41593D01*
X79449Y-41674D01*
X79275Y-41847D01*
X79236Y-41834D01*
X79165Y-41904D01*
X79165Y-41763D01*
X79129Y-41660D01*
X78898Y-41575D01*
X78652Y-41585D01*
X78470Y-41660D01*
X78434Y-41763D01*
X78800Y-42129D01*
X79165Y-41763D01*
X79165Y-41904D01*
X78870Y-42200D01*
X79236Y-42565D01*
X79275Y-42552D01*
X79448Y-42725D01*
X79676Y-42819D01*
X79922Y-42820D01*
X80150Y-42725D01*
X80300Y-42576D01*
X80448Y-42725D01*
X80676Y-42819D01*
X80922Y-42820D01*
X81150Y-42725D01*
X81300Y-42576D01*
X81448Y-42725D01*
X81676Y-42819D01*
X81922Y-42820D01*
X82150Y-42725D01*
X82300Y-42576D01*
X82448Y-42725D01*
X82676Y-42819D01*
X82922Y-42820D01*
X83150Y-42725D01*
X83300Y-42576D01*
X83448Y-42725D01*
X83676Y-42819D01*
X83922Y-42820D01*
X84150Y-42725D01*
X84300Y-42576D01*
X84448Y-42725D01*
X84676Y-42819D01*
X84922Y-42820D01*
X85150Y-42725D01*
X85300Y-42576D01*
X85448Y-42725D01*
X85676Y-42819D01*
X85922Y-42820D01*
X86150Y-42725D01*
X86300Y-42576D01*
X86448Y-42725D01*
X86676Y-42819D01*
X86922Y-42820D01*
X87150Y-42725D01*
X87300Y-42576D01*
X87448Y-42725D01*
X87676Y-42819D01*
X87922Y-42820D01*
X88150Y-42725D01*
X88325Y-42551D01*
X88419Y-42323D01*
X88420Y-42077D01*
X88325Y-41849D01*
X88185Y-41709D01*
X107651Y-41709D01*
X107780Y-41838D01*
X107780Y-44551D01*
X107767Y-44564D01*
X107695Y-44564D01*
X107539Y-44629D01*
X107419Y-44748D01*
X107355Y-44905D01*
X107354Y-45074D01*
X107419Y-45230D01*
X107538Y-45350D01*
X107695Y-45414D01*
X107864Y-45415D01*
X108020Y-45350D01*
X108140Y-45231D01*
X108204Y-45074D01*
X108204Y-45002D01*
X108308Y-44898D01*
X108308Y-44898D01*
X108308Y-44898D01*
X108375Y-44798D01*
X108375Y-44798D01*
X108394Y-44703D01*
X108399Y-44680D01*
X108399Y-58730D01*
X106850Y-58730D01*
X106850Y-56491D01*
X106766Y-56288D01*
X106625Y-56147D01*
X106625Y-54115D01*
X106587Y-54025D01*
X106587Y-51800D01*
X106587Y-51799D01*
X106558Y-51651D01*
X106558Y-51651D01*
X106530Y-51609D01*
X106474Y-51525D01*
X106474Y-51525D01*
X105397Y-50449D01*
X105360Y-50359D01*
X105241Y-50239D01*
X105084Y-50175D01*
X104915Y-50174D01*
X104759Y-50239D01*
X104639Y-50358D01*
X104575Y-50515D01*
X104574Y-50684D01*
X104639Y-50840D01*
X104758Y-50960D01*
X104849Y-50997D01*
X105812Y-51960D01*
X105812Y-53812D01*
X105225Y-53812D01*
X105225Y-52715D01*
X105160Y-52559D01*
X105041Y-52439D01*
X104950Y-52402D01*
X102587Y-50039D01*
X102587Y-48000D01*
X102558Y-47851D01*
X102474Y-47725D01*
X101474Y-46725D01*
X101348Y-46641D01*
X101200Y-46612D01*
X99760Y-46612D01*
X97787Y-44639D01*
X97787Y-42774D01*
X97824Y-42684D01*
X97825Y-42515D01*
X97760Y-42359D01*
X97641Y-42239D01*
X97484Y-42175D01*
X97315Y-42174D01*
X97159Y-42239D01*
X97039Y-42358D01*
X96975Y-42515D01*
X96974Y-42684D01*
X97012Y-42774D01*
X97012Y-44800D01*
X97041Y-44948D01*
X97125Y-45074D01*
X99325Y-47274D01*
X99451Y-47358D01*
X99600Y-47387D01*
X101039Y-47387D01*
X101812Y-48160D01*
X101812Y-50200D01*
X101841Y-50348D01*
X101925Y-50474D01*
X104402Y-52950D01*
X104439Y-53040D01*
X104558Y-53160D01*
X104715Y-53224D01*
X104884Y-53225D01*
X105040Y-53160D01*
X105160Y-53041D01*
X105224Y-52884D01*
X105225Y-52715D01*
X105225Y-53812D01*
X104760Y-53812D01*
X102674Y-51725D01*
X102548Y-51641D01*
X102400Y-51612D01*
X101772Y-51612D01*
X101824Y-51484D01*
X101825Y-51315D01*
X101760Y-51159D01*
X101709Y-51108D01*
X101709Y-51000D01*
X101709Y-50999D01*
X101709Y-50999D01*
X101704Y-50976D01*
X101685Y-50881D01*
X101685Y-50881D01*
X101618Y-50781D01*
X101618Y-50781D01*
X99825Y-48987D01*
X99825Y-48915D01*
X99760Y-48759D01*
X99641Y-48639D01*
X99484Y-48575D01*
X99315Y-48574D01*
X99159Y-48639D01*
X99039Y-48758D01*
X98975Y-48915D01*
X98974Y-49084D01*
X99039Y-49240D01*
X99158Y-49360D01*
X99315Y-49424D01*
X99387Y-49424D01*
X101080Y-51117D01*
X101039Y-51158D01*
X100975Y-51315D01*
X100974Y-51484D01*
X101027Y-51612D01*
X100960Y-51612D01*
X100674Y-51325D01*
X100548Y-51241D01*
X100400Y-51212D01*
X97574Y-51212D01*
X97484Y-51175D01*
X97315Y-51174D01*
X97225Y-51212D01*
X91387Y-51212D01*
X91387Y-48000D01*
X91358Y-47851D01*
X91274Y-47725D01*
X89474Y-45925D01*
X89348Y-45841D01*
X89200Y-45812D01*
X88424Y-45812D01*
X88424Y-45298D01*
X88420Y-45188D01*
X88414Y-45052D01*
X88339Y-44870D01*
X88236Y-44834D01*
X88272Y-44798D01*
X88311Y-44782D01*
X88381Y-44711D01*
X88419Y-44619D01*
X88420Y-44520D01*
X88420Y-43780D01*
X88382Y-43688D01*
X88311Y-43618D01*
X88219Y-43580D01*
X88120Y-43579D01*
X87380Y-43579D01*
X87288Y-43617D01*
X87218Y-43688D01*
X87180Y-43780D01*
X87179Y-43879D01*
X87179Y-44619D01*
X87217Y-44711D01*
X87288Y-44781D01*
X87327Y-44798D01*
X87363Y-44834D01*
X87260Y-44870D01*
X87175Y-45101D01*
X87185Y-45347D01*
X87260Y-45529D01*
X87363Y-45565D01*
X87729Y-45200D01*
X87723Y-45194D01*
X87794Y-45123D01*
X87800Y-45129D01*
X87805Y-45123D01*
X87876Y-45194D01*
X87870Y-45200D01*
X88236Y-45565D01*
X88339Y-45529D01*
X88424Y-45298D01*
X88424Y-45812D01*
X88288Y-45812D01*
X88152Y-45675D01*
X88165Y-45636D01*
X87800Y-45270D01*
X87729Y-45341D01*
X87434Y-45636D01*
X87447Y-45675D01*
X87274Y-45848D01*
X87180Y-46076D01*
X87179Y-46322D01*
X87274Y-46550D01*
X87448Y-46725D01*
X87676Y-46819D01*
X87922Y-46820D01*
X88150Y-46725D01*
X88289Y-46587D01*
X89039Y-46587D01*
X90612Y-48160D01*
X90612Y-51600D01*
X90612Y-55025D01*
X90575Y-55115D01*
X90574Y-55284D01*
X90639Y-55440D01*
X90758Y-55560D01*
X90915Y-55624D01*
X91084Y-55625D01*
X91240Y-55560D01*
X91360Y-55441D01*
X91424Y-55284D01*
X91425Y-55115D01*
X91387Y-55025D01*
X91387Y-51987D01*
X97225Y-51987D01*
X97315Y-52024D01*
X97484Y-52025D01*
X97574Y-51987D01*
X100239Y-51987D01*
X100525Y-52274D01*
X100525Y-52274D01*
X100550Y-52290D01*
X97692Y-52290D01*
X97641Y-52239D01*
X97484Y-52175D01*
X97315Y-52174D01*
X97159Y-52239D01*
X97039Y-52358D01*
X96975Y-52515D01*
X96974Y-52684D01*
X97039Y-52840D01*
X97158Y-52960D01*
X97315Y-53024D01*
X97484Y-53025D01*
X97640Y-52960D01*
X97691Y-52909D01*
X101507Y-52909D01*
X101558Y-52960D01*
X101715Y-53024D01*
X101884Y-53025D01*
X102040Y-52960D01*
X102160Y-52841D01*
X102224Y-52684D01*
X102225Y-52515D01*
X102172Y-52387D01*
X102239Y-52387D01*
X104325Y-54474D01*
X104451Y-54558D01*
X104600Y-54587D01*
X106025Y-54587D01*
X106115Y-54624D01*
X106284Y-54625D01*
X106440Y-54560D01*
X106560Y-54441D01*
X106624Y-54284D01*
X106625Y-54115D01*
X106625Y-56147D01*
X106611Y-56134D01*
X106409Y-56050D01*
X106191Y-56049D01*
X105988Y-56133D01*
X105834Y-56288D01*
X105802Y-56363D01*
X105781Y-56312D01*
X105685Y-56284D01*
X105615Y-56355D01*
X105615Y-56214D01*
X105587Y-56118D01*
X105381Y-56045D01*
X105163Y-56056D01*
X105012Y-56118D01*
X104984Y-56214D01*
X105300Y-56529D01*
X105615Y-56214D01*
X105615Y-56355D01*
X105370Y-56600D01*
X105685Y-56915D01*
X105781Y-56887D01*
X105800Y-56832D01*
X105833Y-56911D01*
X105988Y-57065D01*
X106190Y-57149D01*
X106408Y-57150D01*
X106611Y-57066D01*
X106765Y-56911D01*
X106849Y-56709D01*
X106850Y-56491D01*
X106850Y-58730D01*
X105615Y-58730D01*
X105615Y-56985D01*
X105300Y-56670D01*
X105229Y-56741D01*
X105229Y-56600D01*
X104914Y-56284D01*
X104818Y-56312D01*
X104799Y-56367D01*
X104766Y-56288D01*
X104611Y-56134D01*
X104409Y-56050D01*
X104191Y-56049D01*
X103988Y-56133D01*
X103834Y-56288D01*
X103800Y-56369D01*
X103766Y-56288D01*
X103611Y-56134D01*
X103409Y-56050D01*
X103298Y-56049D01*
X102356Y-55107D01*
X102230Y-55023D01*
X102082Y-54994D01*
X96672Y-54994D01*
X96582Y-54957D01*
X96413Y-54956D01*
X96257Y-55021D01*
X96137Y-55140D01*
X96073Y-55297D01*
X96072Y-55466D01*
X96137Y-55622D01*
X96256Y-55742D01*
X96413Y-55806D01*
X96582Y-55807D01*
X96672Y-55769D01*
X101921Y-55769D01*
X102201Y-56049D01*
X102191Y-56049D01*
X101988Y-56133D01*
X101850Y-56272D01*
X101850Y-56250D01*
X101812Y-56158D01*
X101741Y-56088D01*
X101649Y-56050D01*
X101550Y-56049D01*
X100950Y-56049D01*
X100858Y-56087D01*
X100788Y-56158D01*
X100750Y-56250D01*
X100749Y-56349D01*
X100749Y-56949D01*
X100787Y-57041D01*
X100858Y-57111D01*
X100950Y-57149D01*
X101049Y-57150D01*
X101649Y-57150D01*
X101741Y-57112D01*
X101811Y-57041D01*
X101849Y-56949D01*
X101849Y-56927D01*
X101988Y-57065D01*
X102190Y-57149D01*
X102408Y-57150D01*
X102611Y-57066D01*
X102765Y-56911D01*
X102799Y-56830D01*
X102833Y-56911D01*
X102988Y-57065D01*
X103190Y-57149D01*
X103408Y-57150D01*
X103611Y-57066D01*
X103765Y-56911D01*
X103799Y-56830D01*
X103833Y-56911D01*
X103988Y-57065D01*
X104190Y-57149D01*
X104408Y-57150D01*
X104611Y-57066D01*
X104765Y-56911D01*
X104797Y-56836D01*
X104818Y-56887D01*
X104914Y-56915D01*
X105229Y-56600D01*
X105229Y-56741D01*
X104984Y-56985D01*
X105012Y-57081D01*
X105218Y-57154D01*
X105436Y-57143D01*
X105587Y-57081D01*
X105615Y-56985D01*
X105615Y-58730D01*
X88420Y-58730D01*
X88420Y-48077D01*
X88325Y-47849D01*
X88151Y-47674D01*
X87923Y-47580D01*
X87677Y-47579D01*
X87449Y-47674D01*
X87299Y-47823D01*
X87151Y-47674D01*
X86923Y-47580D01*
X86677Y-47579D01*
X86449Y-47674D01*
X86299Y-47823D01*
X86151Y-47674D01*
X85923Y-47580D01*
X85677Y-47579D01*
X85449Y-47674D01*
X85420Y-47703D01*
X85420Y-46077D01*
X85325Y-45849D01*
X85176Y-45699D01*
X85325Y-45551D01*
X85419Y-45323D01*
X85420Y-45077D01*
X85325Y-44849D01*
X85176Y-44699D01*
X85325Y-44551D01*
X85419Y-44323D01*
X85420Y-44077D01*
X85325Y-43849D01*
X85151Y-43674D01*
X84923Y-43580D01*
X84677Y-43579D01*
X84449Y-43674D01*
X84299Y-43823D01*
X84151Y-43674D01*
X83923Y-43580D01*
X83677Y-43579D01*
X83449Y-43674D01*
X83299Y-43823D01*
X83151Y-43674D01*
X82923Y-43580D01*
X82677Y-43579D01*
X82449Y-43674D01*
X82299Y-43823D01*
X82151Y-43674D01*
X81923Y-43580D01*
X81677Y-43579D01*
X81449Y-43674D01*
X81274Y-43848D01*
X81180Y-44076D01*
X81179Y-44322D01*
X81274Y-44550D01*
X81423Y-44700D01*
X81274Y-44848D01*
X81180Y-45076D01*
X81179Y-45322D01*
X81274Y-45550D01*
X81448Y-45725D01*
X81676Y-45819D01*
X81922Y-45820D01*
X82150Y-45725D01*
X82300Y-45576D01*
X82448Y-45725D01*
X82676Y-45819D01*
X82922Y-45820D01*
X83150Y-45725D01*
X83300Y-45576D01*
X83448Y-45725D01*
X83676Y-45819D01*
X83922Y-45820D01*
X84150Y-45725D01*
X84300Y-45576D01*
X84423Y-45700D01*
X84274Y-45848D01*
X84180Y-46076D01*
X84179Y-46322D01*
X84274Y-46550D01*
X84448Y-46725D01*
X84676Y-46819D01*
X84922Y-46820D01*
X85150Y-46725D01*
X85325Y-46551D01*
X85419Y-46323D01*
X85420Y-46077D01*
X85420Y-47703D01*
X85299Y-47823D01*
X85151Y-47674D01*
X84923Y-47580D01*
X84677Y-47579D01*
X84449Y-47674D01*
X84299Y-47823D01*
X84151Y-47674D01*
X83923Y-47580D01*
X83677Y-47579D01*
X83449Y-47674D01*
X83299Y-47823D01*
X83151Y-47674D01*
X82923Y-47580D01*
X82677Y-47579D01*
X82449Y-47674D01*
X82299Y-47823D01*
X82151Y-47674D01*
X81923Y-47580D01*
X81677Y-47579D01*
X81449Y-47674D01*
X81299Y-47823D01*
X81151Y-47674D01*
X80923Y-47580D01*
X80677Y-47579D01*
X80449Y-47674D01*
X80299Y-47823D01*
X80151Y-47674D01*
X79923Y-47580D01*
X79677Y-47579D01*
X79449Y-47674D01*
X79299Y-47823D01*
X79165Y-47688D01*
X79165Y-42636D01*
X78800Y-42270D01*
X78729Y-42341D01*
X78729Y-42200D01*
X78363Y-41834D01*
X78324Y-41847D01*
X78187Y-41710D01*
X78187Y-41600D01*
X78187Y-41599D01*
X78158Y-41451D01*
X78158Y-41451D01*
X78130Y-41409D01*
X78074Y-41325D01*
X78074Y-41325D01*
X77774Y-41025D01*
X77648Y-40941D01*
X77500Y-40912D01*
X75354Y-40912D01*
X75354Y-39881D01*
X75343Y-39663D01*
X75281Y-39512D01*
X75185Y-39484D01*
X75115Y-39555D01*
X75115Y-39414D01*
X75087Y-39318D01*
X74881Y-39245D01*
X74663Y-39256D01*
X74512Y-39318D01*
X74484Y-39414D01*
X74800Y-39729D01*
X75115Y-39414D01*
X75115Y-39555D01*
X74870Y-39800D01*
X75185Y-40115D01*
X75281Y-40087D01*
X75354Y-39881D01*
X75354Y-40912D01*
X75115Y-40912D01*
X75115Y-40185D01*
X74800Y-39870D01*
X74484Y-40185D01*
X74512Y-40281D01*
X74718Y-40354D01*
X74936Y-40343D01*
X75087Y-40281D01*
X75115Y-40185D01*
X75115Y-40912D01*
X73860Y-40912D01*
X73187Y-40239D01*
X73187Y-40190D01*
X73265Y-40111D01*
X73299Y-40030D01*
X73333Y-40111D01*
X73488Y-40265D01*
X73690Y-40349D01*
X73908Y-40350D01*
X74111Y-40266D01*
X74265Y-40111D01*
X74297Y-40036D01*
X74318Y-40087D01*
X74414Y-40115D01*
X74729Y-39800D01*
X74414Y-39484D01*
X74318Y-39512D01*
X74299Y-39567D01*
X74266Y-39488D01*
X74111Y-39334D01*
X73909Y-39250D01*
X73691Y-39249D01*
X73488Y-39333D01*
X73334Y-39488D01*
X73300Y-39569D01*
X73266Y-39488D01*
X73111Y-39334D01*
X72909Y-39250D01*
X72691Y-39249D01*
X72488Y-39333D01*
X72334Y-39488D01*
X72300Y-39569D01*
X72266Y-39488D01*
X72111Y-39334D01*
X71909Y-39250D01*
X71691Y-39249D01*
X71488Y-39333D01*
X71334Y-39488D01*
X71300Y-39569D01*
X71266Y-39488D01*
X71111Y-39334D01*
X70909Y-39250D01*
X70691Y-39249D01*
X70488Y-39333D01*
X70334Y-39488D01*
X70300Y-39569D01*
X70266Y-39488D01*
X70187Y-39409D01*
X70187Y-39366D01*
X70187Y-39366D01*
X70158Y-39218D01*
X70158Y-39218D01*
X70130Y-39176D01*
X70074Y-39092D01*
X70074Y-39092D01*
X69683Y-38702D01*
X69557Y-38618D01*
X69409Y-38588D01*
X67322Y-38588D01*
X67174Y-38618D01*
X67048Y-38702D01*
X66304Y-39446D01*
X66220Y-39572D01*
X66190Y-39720D01*
X66190Y-54334D01*
X66220Y-54482D01*
X66304Y-54608D01*
X67914Y-56219D01*
X67914Y-56219D01*
X67998Y-56275D01*
X68040Y-56303D01*
X68040Y-56303D01*
X68188Y-56332D01*
X68188Y-56332D01*
X72463Y-56332D01*
X72552Y-56369D01*
X72721Y-56369D01*
X72878Y-56305D01*
X72997Y-56185D01*
X73062Y-56029D01*
X73062Y-55860D01*
X72998Y-55704D01*
X72878Y-55584D01*
X72722Y-55519D01*
X72553Y-55519D01*
X72463Y-55557D01*
X68750Y-55557D01*
X68750Y-48757D01*
X68750Y-48250D01*
X68750Y-48150D01*
X68750Y-47642D01*
X68687Y-47580D01*
X68380Y-47579D01*
X68288Y-47617D01*
X68218Y-47688D01*
X68180Y-47780D01*
X68179Y-47879D01*
X68180Y-48087D01*
X68242Y-48150D01*
X68750Y-48150D01*
X68750Y-48250D01*
X68242Y-48250D01*
X68180Y-48312D01*
X68179Y-48520D01*
X68180Y-48619D01*
X68218Y-48711D01*
X68288Y-48782D01*
X68380Y-48820D01*
X68687Y-48820D01*
X68750Y-48757D01*
X68750Y-55557D01*
X68349Y-55557D01*
X66966Y-54173D01*
X66966Y-43871D01*
X67009Y-43935D01*
X68387Y-45314D01*
X68513Y-45398D01*
X68662Y-45427D01*
X74256Y-45427D01*
X74240Y-45468D01*
X74239Y-45651D01*
X74309Y-45820D01*
X74439Y-45949D01*
X74608Y-46019D01*
X74791Y-46020D01*
X74960Y-45950D01*
X74962Y-45947D01*
X75440Y-45947D01*
X75588Y-45918D01*
X75714Y-45834D01*
X76074Y-45474D01*
X76074Y-45474D01*
X76130Y-45390D01*
X76158Y-45348D01*
X76158Y-45348D01*
X76187Y-45200D01*
X76187Y-45200D01*
X76187Y-44600D01*
X76187Y-44599D01*
X76158Y-44451D01*
X76158Y-44451D01*
X76130Y-44409D01*
X76074Y-44325D01*
X76074Y-44325D01*
X75608Y-43859D01*
X75482Y-43775D01*
X75333Y-43746D01*
X71732Y-43746D01*
X69137Y-43746D01*
X68340Y-42949D01*
X68340Y-42617D01*
X68448Y-42725D01*
X68676Y-42819D01*
X68922Y-42820D01*
X69150Y-42725D01*
X69300Y-42576D01*
X69448Y-42725D01*
X69676Y-42819D01*
X69922Y-42820D01*
X70150Y-42725D01*
X70300Y-42576D01*
X70448Y-42725D01*
X70676Y-42819D01*
X70922Y-42820D01*
X71150Y-42725D01*
X71300Y-42576D01*
X71448Y-42725D01*
X71676Y-42819D01*
X71922Y-42820D01*
X72150Y-42725D01*
X72300Y-42576D01*
X72448Y-42725D01*
X72676Y-42819D01*
X72922Y-42820D01*
X73150Y-42725D01*
X73300Y-42576D01*
X73448Y-42725D01*
X73676Y-42819D01*
X73922Y-42820D01*
X74150Y-42725D01*
X74300Y-42576D01*
X74448Y-42725D01*
X74676Y-42819D01*
X74922Y-42820D01*
X75150Y-42725D01*
X75300Y-42576D01*
X75448Y-42725D01*
X75676Y-42819D01*
X75922Y-42820D01*
X76150Y-42725D01*
X76300Y-42576D01*
X76448Y-42725D01*
X76676Y-42819D01*
X76922Y-42820D01*
X77150Y-42725D01*
X77300Y-42576D01*
X77448Y-42725D01*
X77676Y-42819D01*
X77922Y-42820D01*
X78150Y-42725D01*
X78324Y-42552D01*
X78363Y-42565D01*
X78729Y-42200D01*
X78729Y-42341D01*
X78434Y-42636D01*
X78470Y-42739D01*
X78701Y-42824D01*
X78947Y-42814D01*
X79129Y-42739D01*
X79165Y-42636D01*
X79165Y-47688D01*
X79151Y-47674D01*
X78923Y-47580D01*
X78677Y-47579D01*
X78449Y-47674D01*
X78299Y-47823D01*
X78151Y-47674D01*
X77923Y-47580D01*
X77677Y-47579D01*
X77449Y-47674D01*
X77299Y-47823D01*
X77151Y-47674D01*
X76923Y-47580D01*
X76677Y-47579D01*
X76449Y-47674D01*
X76299Y-47823D01*
X76151Y-47674D01*
X75923Y-47580D01*
X75677Y-47579D01*
X75449Y-47674D01*
X75299Y-47823D01*
X75151Y-47674D01*
X74923Y-47580D01*
X74677Y-47579D01*
X74449Y-47674D01*
X74299Y-47823D01*
X74151Y-47674D01*
X73923Y-47580D01*
X73677Y-47579D01*
X73449Y-47674D01*
X73299Y-47823D01*
X73151Y-47674D01*
X72923Y-47580D01*
X72677Y-47579D01*
X72449Y-47674D01*
X72299Y-47823D01*
X72151Y-47674D01*
X71923Y-47580D01*
X71677Y-47579D01*
X71449Y-47674D01*
X71299Y-47823D01*
X71151Y-47674D01*
X70923Y-47580D01*
X70677Y-47579D01*
X70449Y-47674D01*
X70299Y-47823D01*
X70151Y-47674D01*
X69923Y-47580D01*
X69677Y-47579D01*
X69449Y-47674D01*
X69397Y-47725D01*
X69381Y-47688D01*
X69311Y-47617D01*
X69219Y-47579D01*
X68912Y-47580D01*
X68850Y-47642D01*
X68850Y-48150D01*
X68857Y-48150D01*
X68857Y-48250D01*
X68850Y-48250D01*
X68850Y-48757D01*
X68912Y-48820D01*
X69219Y-48820D01*
X69311Y-48782D01*
X69381Y-48711D01*
X69397Y-48674D01*
X69448Y-48725D01*
X69676Y-48819D01*
X69922Y-48820D01*
X70150Y-48725D01*
X70300Y-48576D01*
X70448Y-48725D01*
X70676Y-48819D01*
X70922Y-48820D01*
X71150Y-48725D01*
X71300Y-48576D01*
X71448Y-48725D01*
X71676Y-48819D01*
X71922Y-48820D01*
X72150Y-48725D01*
X72300Y-48576D01*
X72448Y-48725D01*
X72676Y-48819D01*
X72922Y-48820D01*
X73150Y-48725D01*
X73300Y-48576D01*
X73448Y-48725D01*
X73676Y-48819D01*
X73922Y-48820D01*
X74150Y-48725D01*
X74300Y-48576D01*
X74448Y-48725D01*
X74676Y-48819D01*
X74922Y-48820D01*
X75150Y-48725D01*
X75300Y-48576D01*
X75448Y-48725D01*
X75676Y-48819D01*
X75922Y-48820D01*
X76150Y-48725D01*
X76300Y-48576D01*
X76448Y-48725D01*
X76676Y-48819D01*
X76922Y-48820D01*
X77150Y-48725D01*
X77300Y-48576D01*
X77448Y-48725D01*
X77676Y-48819D01*
X77922Y-48820D01*
X78150Y-48725D01*
X78300Y-48576D01*
X78448Y-48725D01*
X78676Y-48819D01*
X78922Y-48820D01*
X79150Y-48725D01*
X79300Y-48576D01*
X79448Y-48725D01*
X79676Y-48819D01*
X79922Y-48820D01*
X80150Y-48725D01*
X80300Y-48576D01*
X80448Y-48725D01*
X80676Y-48819D01*
X80922Y-48820D01*
X81150Y-48725D01*
X81300Y-48576D01*
X81448Y-48725D01*
X81676Y-48819D01*
X81922Y-48820D01*
X82150Y-48725D01*
X82300Y-48576D01*
X82448Y-48725D01*
X82676Y-48819D01*
X82922Y-48820D01*
X83150Y-48725D01*
X83300Y-48576D01*
X83448Y-48725D01*
X83676Y-48819D01*
X83922Y-48820D01*
X84150Y-48725D01*
X84300Y-48576D01*
X84448Y-48725D01*
X84676Y-48819D01*
X84922Y-48820D01*
X85150Y-48725D01*
X85300Y-48576D01*
X85448Y-48725D01*
X85676Y-48819D01*
X85922Y-48820D01*
X86150Y-48725D01*
X86300Y-48576D01*
X86448Y-48725D01*
X86676Y-48819D01*
X86922Y-48820D01*
X87150Y-48725D01*
X87300Y-48576D01*
X87448Y-48725D01*
X87676Y-48819D01*
X87922Y-48820D01*
X88150Y-48725D01*
X88325Y-48551D01*
X88419Y-48323D01*
X88420Y-48077D01*
X88420Y-58730D01*
X86025Y-58730D01*
X86025Y-55515D01*
X85960Y-55359D01*
X85841Y-55239D01*
X85684Y-55175D01*
X85515Y-55174D01*
X85359Y-55239D01*
X85239Y-55358D01*
X85202Y-55449D01*
X83649Y-57002D01*
X83559Y-57039D01*
X83439Y-57158D01*
X83375Y-57315D01*
X83374Y-57484D01*
X83439Y-57640D01*
X83558Y-57760D01*
X83715Y-57824D01*
X83884Y-57825D01*
X84040Y-57760D01*
X84160Y-57641D01*
X84197Y-57550D01*
X85750Y-55997D01*
X85840Y-55960D01*
X85960Y-55841D01*
X86024Y-55684D01*
X86025Y-55515D01*
X86025Y-58730D01*
X81750Y-58730D01*
X81750Y-55690D01*
X81685Y-55534D01*
X81566Y-55414D01*
X81409Y-55350D01*
X81240Y-55349D01*
X81084Y-55414D01*
X80964Y-55533D01*
X80900Y-55690D01*
X80900Y-55726D01*
X80414Y-56212D01*
X77599Y-56212D01*
X77509Y-56175D01*
X77340Y-56174D01*
X77184Y-56239D01*
X77064Y-56358D01*
X77000Y-56515D01*
X76999Y-56684D01*
X77064Y-56840D01*
X77183Y-56960D01*
X77340Y-57024D01*
X77509Y-57025D01*
X77599Y-56987D01*
X80575Y-56987D01*
X80723Y-56958D01*
X80849Y-56874D01*
X81599Y-56124D01*
X81599Y-56124D01*
X81644Y-56056D01*
X81644Y-56056D01*
X81685Y-56016D01*
X81749Y-55859D01*
X81750Y-55690D01*
X81750Y-58730D01*
X65269Y-58730D01*
X65269Y-38269D01*
X110730Y-38269D01*
X110730Y-58730D01*
M02*
